<svg width="68" height="68" viewBox="0 0 68 68" fill="none" xmlns="http://www.w3.org/2000/svg">
<g clip-path="url(#clip0_2508_3769)">
<path d="M20.7097 8.31836C19.9427 8.82089 19.8369 9.15151 19.8369 11.0426V12.7618L18.7393 13.1321C18.1442 13.3437 17.0994 13.7669 16.4117 14.0975L15.1686 14.6794L13.9652 13.5024C12.6692 12.2328 12.2724 12.0477 11.2806 12.2328C10.8442 12.299 10.3152 12.7751 7.51158 15.5787C4.70796 18.3823 4.23187 18.9113 4.16575 19.3345C3.98061 20.3395 4.16575 20.7363 5.43531 22.0323L6.6123 23.2357L6.03042 24.4788C5.69981 25.1665 5.27662 26.2113 5.06503 26.8064L4.69474 27.904H2.97554C1.08442 27.904 0.753803 28.0098 0.251268 28.7768C0.0132246 29.1339 0 29.4777 0 33.8551C0 38.2324 0.0132246 38.5763 0.251268 38.9333C0.753803 39.7004 1.08442 39.8062 2.97554 39.8062H4.69474L5.06503 40.9038C5.27662 41.4989 5.69981 42.5436 6.03042 43.2313L6.6123 44.4744L5.43531 45.6779C4.16575 46.9739 3.98061 47.3706 4.16575 48.3625C4.23187 48.7989 4.70796 49.3279 7.51158 52.1315C10.3152 54.9351 10.8442 55.4112 11.2806 55.4773C12.2724 55.6625 12.6692 55.4773 13.9652 54.2078L15.1686 53.0308L16.4117 53.6126C17.0994 53.9433 18.1442 54.3664 18.7393 54.578L19.8369 54.9483V56.6675C19.8369 58.5586 19.9427 58.8893 20.7097 59.3918C21.0668 59.6166 21.3842 59.6431 24.4391 59.6431H27.7717V53.5862V47.5425L26.7534 47.6087C21.0404 47.979 15.8034 44.8976 13.3436 39.74C12.3121 37.5844 12.1005 36.5926 12.1005 33.8551C12.1005 31.1705 12.3121 30.1522 13.2775 28.0891C14.0578 26.4493 14.7983 25.3913 16.0547 24.1218C18.9244 21.2653 22.6934 19.837 26.7534 20.1015L27.7717 20.1676V14.1107V8.06709H24.4391C21.3842 8.06709 21.0668 8.09354 20.7097 8.31836Z" fill="#005BDD"/>
<path d="M31.7383 33.8551V59.6431H49.1022C65.871 59.6431 66.4661 59.6298 66.8364 59.3918C67.0348 59.2596 67.3257 58.9686 67.458 58.7702C67.696 58.4 67.7092 57.8181 67.7092 41.1683V23.9498L60.5415 23.9102C53.625 23.8705 53.3473 23.8573 52.9241 23.606C52.6861 23.4605 52.3554 23.1299 52.1968 22.8787C51.9058 22.4158 51.9058 22.3497 51.8661 15.2348L51.8265 8.06709H41.789H31.7383V33.8551ZM46.7879 20.2999C47.3962 20.6569 47.7401 21.2653 47.7401 21.9529C47.7401 22.6406 47.3962 23.2489 46.7879 23.606C46.3779 23.8573 46.1134 23.8705 41.789 23.8705C37.4645 23.8705 37.2 23.8573 36.7901 23.606C35.2825 22.6935 35.6263 20.5247 37.3455 20.0883C37.5703 20.0354 39.6863 19.9957 42.0535 20.0089C46.1002 20.0354 46.3779 20.0486 46.7879 20.2999ZM58.69 28.2346C59.2984 28.5917 59.6422 29.2 59.6422 29.8877C59.6422 30.5754 59.2984 31.1837 58.69 31.5408C58.2668 31.8053 58.0156 31.8053 47.7401 31.8053C37.4645 31.8053 37.2133 31.8053 36.7901 31.5408C35.2825 30.6283 35.6263 28.4462 37.3455 28.023C37.5703 27.9701 42.3709 27.9305 48.0046 27.9437C58.0024 27.9701 58.2668 27.9701 58.69 28.2346ZM58.69 36.1694C59.2984 36.5264 59.6422 37.1348 59.6422 37.8225C59.6422 38.5101 59.2984 39.1185 58.69 39.4755C58.2668 39.74 58.0156 39.74 47.7401 39.74C37.4645 39.74 37.2133 39.74 36.7901 39.4755C35.2825 38.563 35.6263 36.381 37.3455 35.9578C37.5703 35.9049 42.3709 35.8652 48.0046 35.8784C58.0024 35.9049 58.2668 35.9049 58.69 36.1694ZM58.69 44.1042C59.2984 44.4612 59.6422 45.0695 59.6422 45.7572C59.6422 46.4449 59.2984 47.0532 58.69 47.4103C58.2668 47.6748 58.0156 47.6748 47.7401 47.6748C37.4645 47.6748 37.2133 47.6748 36.7901 47.4103C35.2825 46.4978 35.6263 44.3157 37.3455 43.8926C37.5703 43.8397 42.3709 43.8 48.0046 43.8132C58.0024 43.8397 58.2668 43.8397 58.69 44.1042Z" fill="#005BDD"/>
<path d="M55.8086 14.5471V19.9692H61.2571H66.7189L61.2968 14.5471C58.3213 11.5584 55.8615 9.12506 55.8483 9.12506C55.8218 9.12506 55.8086 11.5584 55.8086 14.5471Z" fill="#2CD8B3"/>
<path d="M23.2876 24.2011C22.7454 24.3334 21.7932 24.6904 21.1716 25.0078C20.2591 25.4707 19.783 25.8278 18.7647 26.8461C17.6539 27.9437 17.4158 28.2743 16.8869 29.3587C16.014 31.1837 15.8289 32.1227 15.895 34.2783C15.9744 36.2488 16.2388 37.2274 17.1381 38.8672C17.8919 40.2161 19.7434 41.9882 21.1584 42.6891C22.7057 43.4562 24.0414 43.7736 25.7738 43.7736C27.9559 43.7736 27.7707 43.9852 27.7707 41.5122V39.4094L27.4136 39.502C27.202 39.5681 26.4218 39.6078 25.6548 39.6078C24.3588 39.6078 24.2001 39.5814 23.3669 39.1846C22.1635 38.616 21.0262 37.4786 20.4575 36.2752C20.0608 35.4288 20.0343 35.2966 20.0343 33.8551C20.0343 32.4136 20.0608 32.2814 20.4575 31.435C21.0262 30.2316 22.1635 29.0942 23.3669 28.5256C24.2001 28.1288 24.3588 28.1024 25.6548 28.1024C26.4218 28.1024 27.202 28.1421 27.4136 28.2082L27.7707 28.3008V26.1981C27.7707 24.135 27.7707 24.0953 27.4798 24.016C26.8318 23.8441 24.2662 23.9631 23.2876 24.2011Z" fill="#2CD8B3"/>
<path d="M24.6775 32.1228C24.0692 32.5327 23.8047 33.0353 23.8047 33.8552C23.8047 34.6751 24.0692 35.1776 24.6775 35.5876C24.942 35.7595 25.2991 35.8389 25.7884 35.8389C26.6083 35.8389 27.1108 35.5744 27.5208 34.966C27.8646 34.4503 27.8646 33.2601 27.5208 32.7443C27.1108 32.136 26.6083 31.8715 25.7884 31.8715C25.2991 31.8715 24.942 31.9508 24.6775 32.1228Z" fill="#2CD8B3"/>
</g>
<defs>
<clipPath id="clip0_2508_3769">
<rect width="67.71" height="67.71" fill="white"/>
</clipPath>
</defs>
</svg>
