<svg width="68" height="68" viewBox="0 0 68 68" fill="none" xmlns="http://www.w3.org/2000/svg">
<path d="M52.2496 5.50153C47.3433 6.82399 45.6902 12.9867 49.2873 16.5705C52.8976 20.1808 59.0735 18.5013 60.3695 13.5553C61.1101 10.6724 59.748 7.48522 57.1824 6.12309C55.6616 5.31639 53.8101 5.07834 52.2496 5.50153Z" fill="#005BDD"/>
<path d="M14.6657 6.94288C14.6128 7.29994 13.9648 14.018 13.211 21.847C12.4572 29.6892 11.8092 36.0502 11.7563 35.9973C11.7166 35.9444 10.9099 29.7157 9.97094 22.1512C9.03199 14.5867 8.25174 8.55628 8.22529 8.74142C8.19884 8.92657 8.72783 15.3141 9.38906 22.9314C10.0503 30.5488 10.5793 36.8437 10.5528 36.9231C10.5264 36.9892 9.40228 33.8946 8.0666 30.0198C6.73091 26.1582 5.58037 22.9579 5.52747 22.9314C5.46135 22.8918 5.44812 22.9976 5.47457 23.1695C5.63327 23.8043 7.41859 36.1428 7.37892 36.2486C7.35247 36.3147 5.95066 32.6647 4.24468 28.1287C2.55193 23.6059 1.09723 19.8369 1.0311 19.7707C0.938532 19.6782 0.925307 19.7311 0.978205 19.903C1.01788 20.0617 2.39324 24.73 4.03309 30.2843C5.67294 35.8519 7.0483 40.5069 7.08797 40.626C7.12765 40.7714 6.53254 40.4805 5.35555 39.7928C4.36371 39.1977 3.53055 38.7481 3.49088 38.7877C3.46443 38.8142 3.84795 39.8193 4.36371 40.9962C4.86624 42.1865 5.2762 43.1651 5.24975 43.1783C5.23653 43.1915 4.49595 43.1122 3.59668 43.0064C2.6974 42.9006 1.93038 42.8477 1.8907 42.8874C1.85103 42.927 2.00972 43.2312 2.24777 43.5618C2.57838 44.0247 2.77675 44.1702 3.16027 44.2231C3.42476 44.2627 6.91605 44.7124 10.9099 45.2281C14.9169 45.7439 18.3024 46.1803 18.4611 46.22C18.7124 46.2729 18.7785 46.1009 19.3604 43.6015C19.7043 42.1336 20.1274 40.3482 20.2861 39.6341C20.4581 38.9332 20.5639 38.3513 20.511 38.3513C20.4713 38.3513 19.8762 39.4622 19.1885 40.7979C18.5008 42.1468 17.9322 43.2312 17.9189 43.218C17.8925 43.1915 19.2149 36.2089 20.8416 27.7055C22.4682 19.1889 23.7907 12.1137 23.7642 11.9682C23.751 11.836 22.0979 17.9193 20.101 25.4838C18.1041 33.0615 16.451 39.2374 16.4378 39.2242C16.4113 39.1977 18.038 22.0718 18.1834 20.8948C18.2231 20.5246 18.2099 20.3791 18.1437 20.4981C18.0776 20.6039 17.3106 24.6771 16.451 29.5437L14.8773 38.4042L14.8111 22.3363C14.7715 13.5023 14.7054 6.57259 14.6657 6.94288Z" fill="#005BDD"/>
<path d="M33.2466 17.6021C32.0167 18.6998 30.8397 19.771 30.6413 19.9693L30.2578 20.3264L32.5986 22.9316C34.0136 24.4921 35.0054 25.484 35.098 25.4311C35.1774 25.3782 36.3544 24.3334 37.7165 23.1036C39.2241 21.7414 40.163 20.8025 40.1101 20.7099C40.0044 20.5512 35.5477 15.6052 35.4948 15.6052C35.4815 15.6052 34.4632 16.5045 33.2466 17.6021Z" fill="#2CD8B3"/>
<path d="M55.5174 19.5592C53.4014 20.2469 51.8013 22.1248 51.4045 24.373C51.2723 25.1533 51.2987 25.5368 51.6161 27.5998C51.8145 28.8958 52.0393 30.5753 52.1054 31.3424C52.3302 33.5112 52.3831 33.855 52.4757 33.855C52.5286 33.855 52.7667 33.5906 53.0047 33.2732C54.3007 31.554 55.3983 28.8297 55.6628 26.727C55.9009 24.8623 56.7869 23.8176 58.2416 23.6985C59.1674 23.6192 59.8154 23.8572 60.5163 24.492C61.6007 25.4839 61.7197 26.6476 61.032 29.4909C60.4237 31.9507 59.379 34.2782 57.911 36.3677C56.9853 37.677 54.8561 39.859 53.5601 40.8112L52.5022 41.5914V42.213C52.5022 44.2496 53.6395 46.3655 55.2264 47.2912L55.8083 47.6351L55.3587 48.4418C55.1074 48.8914 54.1156 50.7825 53.1237 52.634C49.9101 58.7173 49.9366 58.6644 50.3069 59.934C50.5846 60.9126 51.3516 61.6928 52.2906 61.9441C52.7799 62.0896 54.5388 62.1822 58.6119 62.3012C64.9201 62.4731 64.9465 62.4731 65.8458 61.6003C66.5202 60.939 66.7054 60.4762 66.7054 59.4447C66.7186 58.347 66.4012 57.6461 65.6474 57.0246C64.9597 56.4559 64.444 56.3766 61.1246 56.2708L58.1887 56.165L59.2599 54.1019C59.855 52.9646 61.1114 50.6238 62.0636 48.8782C64.5101 44.3686 64.3514 44.8447 64.5498 41.684C64.682 39.5681 64.682 38.3911 64.563 35.9974C64.2853 30.8531 63.5579 24.611 63.0554 23.2092C62.4074 21.3578 60.9262 19.9957 59.0483 19.4931C58.1094 19.2419 56.4299 19.2683 55.5174 19.5592Z" fill="#005BDD"/>
<path d="M39.8459 22.3629C39.026 23.0903 38.3516 23.7383 38.3516 23.8044C38.3516 23.9895 39.7005 25.0343 40.7981 25.7219C43.1521 27.1899 45.559 27.8776 48.7197 27.9966L50.8224 28.0759L50.7033 27.0973C50.6372 26.5551 50.5843 25.6162 50.5843 24.9946L50.5976 23.8705L48.9312 23.8573C46.1673 23.8176 44.1043 23.077 41.5916 21.2388C41.3403 21.0537 41.2345 21.1198 39.8459 22.3629Z" fill="#005BDD"/>
<path d="M57.4352 24.8623C56.8268 25.2326 56.6153 25.6161 56.4169 26.7931C55.425 32.3871 52.476 36.2619 47.3051 38.7614C46.0488 39.3697 45.6917 39.7532 45.5595 40.6657C45.4934 41.0757 45.5463 41.3402 45.7843 41.7766C46.4852 43.1387 47.4638 43.271 49.5269 42.2527C52.4231 40.8244 55.2663 38.5101 57.0649 36.1164C58.6651 33.9873 59.9346 31.1308 60.371 28.6445C60.7678 26.3699 60.5826 25.4574 59.6172 24.8623C59.0354 24.5185 58.0038 24.5052 57.4352 24.8623Z" fill="#005BDD"/>
<path d="M28.3008 42.9139V46.4185H31.8053H35.3098V42.9139V39.4094H31.8053H28.3008V42.9139Z" fill="#2CD8B3"/>
<path d="M0.925781 44.8843C0.925781 44.9768 3.29299 61.4018 3.37233 61.8647L3.45168 62.2878H11.122C17.1392 62.2878 18.7922 62.2482 18.8319 62.1291C18.9906 61.5605 20.8685 47.5292 20.7891 47.4631C20.7362 47.4234 17.483 46.987 13.5553 46.4977C5.25023 45.4661 1.63991 44.9901 1.22995 44.8975C1.05803 44.8578 0.925781 44.8446 0.925781 44.8843Z" fill="#005BDD"/>
<path d="M24.7305 50.8488V54.3533H28.235H31.7395V50.8488V47.3442H28.235H24.7305V50.8488Z" fill="#2CD8B3"/>
<path d="M32.4004 50.8488V54.3533H35.9049H39.4094V50.8488V47.3442H35.9049H32.4004V50.8488Z" fill="#2CD8B3"/>
<path d="M21.291 58.7833V62.2878H24.7955H28.3001V58.7833V55.2788H24.7955H21.291V58.7833Z" fill="#2CD8B3"/>
<path d="M28.9629 58.7833V62.2878H32.4674H35.9719V58.7833V55.2788H32.4674H28.9629V58.7833Z" fill="#2CD8B3"/>
<path d="M36.5 58.7833V62.2878H40.0045H43.509V58.7833V55.2788H40.0045H36.5V58.7833Z" fill="#2CD8B3"/>
</svg>
