<svg width="68" height="68" viewBox="0 0 68 68" fill="none" xmlns="http://www.w3.org/2000/svg">
<g clip-path="url(#clip0_2506_3699)">
<path d="M22.6536 0.185008C21.3179 0.62142 20.1409 1.67939 19.4664 3.04152C19.1358 3.70275 19.1094 3.90112 19.1094 5.28971C19.1094 6.70474 19.1358 6.86344 19.4929 7.60401C19.9954 8.62231 21.0005 9.62738 22.0188 10.1299C22.7594 10.487 22.9181 10.5134 24.3331 10.5134C25.7481 10.5134 25.9068 10.487 26.6474 10.1299C27.6657 9.62738 28.6708 8.62231 29.1733 7.60401C29.5304 6.86344 29.5568 6.70474 29.5568 5.28971C29.5568 3.87467 29.5304 3.71598 29.1733 2.9754C28.6708 1.95711 27.6657 0.952035 26.6474 0.462725C25.9597 0.118885 25.6952 0.0659865 24.5315 0.0395373C23.6851 0.013088 23.0106 0.0659865 22.6536 0.185008Z" fill="#2CD8B3"/>
<path d="M33.8555 2.01006C33.8555 3.67636 33.9084 4.126 34.1068 4.56241C34.3581 5.13107 35.2309 6.00389 35.6938 6.14937L35.9715 6.22871V14.4941C35.9715 21.318 35.945 22.7462 35.7996 22.7462C35.4954 22.7462 32.6653 24.2142 31.6338 24.9019L30.6816 25.5499V26.9913C30.6816 27.7848 30.7081 28.4328 30.7345 28.4328C30.7742 28.4328 31.29 28.0493 31.8983 27.5997C33.5249 26.3698 35.4028 25.3515 37.6642 24.4654L38.0874 24.3068V15.3272V6.34773H39.1454H40.2034V5.28977V4.2318H38.6825C36.8575 4.2318 36.3418 4.0731 36.117 3.43832C36.0376 3.20028 35.9715 2.80354 35.9715 2.5655V2.11586H44.4352H52.899V2.57872C52.899 3.33252 52.5948 3.91441 52.1055 4.08633C51.8146 4.1789 50.4128 4.2318 48.0588 4.2318H44.4352V5.28977V6.34773H47.6091H50.783V15.314V24.2935L52.0129 24.7696C56.2713 26.4756 59.9609 29.5172 62.3414 33.2863L62.6852 33.8549H46.6834H30.6816V35.5609V37.2536L37.5584 47.3043L44.4352 57.3683V59.1271C44.422 63.1739 43.9062 64.9989 42.1871 66.9561L41.6448 67.5644L42.1209 67.657C43.1128 67.8422 47.6091 67.6306 49.0374 67.3264C58.4665 65.3427 65.5549 58.1353 67.4064 48.6533C67.5915 47.6614 67.6444 46.7886 67.6444 44.3024C67.6312 41.5781 67.5915 41.0227 67.3403 39.806C65.8988 33.1672 62.0636 27.798 56.2448 24.3068C55.5836 23.91 54.5521 23.381 53.9702 23.1298L52.899 22.6801V14.4544V6.22871L53.1767 6.14937C53.6396 6.00389 54.5124 5.13107 54.7637 4.56241C54.962 4.126 55.0149 3.67636 55.0149 2.01006V-7.75705e-05H44.4352H33.8555V2.01006Z" fill="#005BDD"/>
<path d="M14.4806 8.71498C13.3301 9.24396 12.6953 10.3019 12.6953 11.6641C12.7085 13.542 13.9781 14.8115 15.8692 14.8115C17.7736 14.8115 19.0431 13.542 19.0431 11.6376C19.0431 10.2623 18.3422 9.16462 17.1652 8.6753C16.4776 8.38436 15.1419 8.41081 14.4806 8.71498Z" fill="#2CD8B3"/>
<path d="M21.1602 13.7536V14.8115H22.2181H23.2761V13.7536V12.6956H22.2181H21.1602V13.7536Z" fill="#2CD8B3"/>
<path d="M10.5797 18.9376C10.5797 20.6304 10.6326 21.0535 10.831 21.49C11.2938 22.4686 12.4179 23.2753 13.3569 23.2753H13.7536V30.443V37.624L6.8768 47.6615L0 57.7122V60.1323C0 62.235 0.0396738 62.6714 0.277717 63.3855C0.938947 65.3692 2.53912 66.9297 4.48314 67.4984C5.13115 67.6835 6.98259 67.71 21.1858 67.71C37.0157 67.71 37.1744 67.71 37.9943 67.4322C39.978 66.771 41.5385 65.1708 42.1072 63.2268C42.2659 62.6846 42.3187 61.9044 42.3187 60.1058V57.7122L35.442 47.6615L28.5652 37.624V30.443V23.2753H29.0016C29.9405 23.2621 31.1175 22.4025 31.5275 21.3974C31.6862 21.0271 31.7391 20.4055 31.7391 18.9112V16.9275H21.1594H10.5797V18.9376ZM29.6231 19.493C29.6231 19.7311 29.557 20.1278 29.4777 20.3659C29.2132 21.1197 28.9354 21.1593 24.2672 21.1593H20.1014V22.2173V23.2753H23.2753H26.4492V30.9191V38.5761L29.1603 42.5303L31.8713 46.4845L26.5153 46.5241C23.5663 46.5374 18.7525 46.5374 15.8034 46.5241L10.4474 46.4845L13.1585 42.5303L15.8695 38.5761V30.9191V23.2753H16.9275H17.9855V22.2173V21.1593H15.9489C14.7851 21.1593 13.7404 21.0932 13.4891 21.0139C12.9998 20.8419 12.6956 20.2601 12.6956 19.5063V19.0434H21.1594H29.6231V19.493ZM14.8116 51.8404V52.8984H13.7536H12.6956V51.8404V50.7825H13.7536H14.8116V51.8404ZM29.6231 53.9564V55.0143H28.5652H27.5072V53.9564V52.8984H28.5652H29.6231V53.9564ZM10.5797 58.1882V59.2462H9.52172H8.46375V58.1882V57.1303H9.52172H10.5797V58.1882ZM21.1594 60.3042V61.3621H20.1014H19.0434V60.3042V59.2462H20.1014H21.1594V60.3042ZM35.442 60.3042V61.3621H34.384H33.326V60.3042V59.2462H34.384H35.442V60.3042Z" fill="#005BDD"/>
<path d="M21.1602 28.5651V29.623H22.2181H23.2761V28.5651V27.5071H22.2181H21.1602V28.5651Z" fill="#2CD8B3"/>
<path d="M19.043 34.913V35.9709H20.1009H21.1589V34.913V33.855H20.1009H19.043V34.913Z" fill="#2CD8B3"/>
<path d="M21.1602 39.1447V40.2026H22.2181H23.2761V39.1447V38.0867H22.2181H21.1602V39.1447Z" fill="#2CD8B3"/>
<path d="M16.9277 43.3766V44.4346H17.9857H19.0437V43.3766V42.3186H17.9857H16.9277V43.3766Z" fill="#2CD8B3"/>
</g>
<defs>
<clipPath id="clip0_2506_3699">
<rect width="67.71" height="67.71" fill="white"/>
</clipPath>
</defs>
</svg>
