<svg width="68" height="68" viewBox="0 0 68 68" fill="none" xmlns="http://www.w3.org/2000/svg">
<path d="M25.6816 1.07126C24.3194 1.33575 22.9176 2.28792 22.0845 3.51781C21.41 4.48321 21.1588 5.48828 21.1455 7.23393V8.79443L19.5586 9.56146C15.1416 11.7038 11.5841 15.7902 9.98397 20.5379C9.79883 21.1065 9.50789 22.1116 9.36242 22.7861C9.07147 23.9895 9.07147 24.1085 9.0318 41.3931C8.9789 60.9258 8.93923 59.9472 9.9443 62.0235C10.3675 62.9095 10.7113 63.3724 11.5577 64.2188C13.0256 65.6867 14.4671 66.3744 16.7682 66.7182L17.3236 66.8108V56.4427C17.3236 49.9494 17.3765 45.8762 17.4691 45.5059C17.9849 43.2445 20.0347 41.2873 22.3358 40.8641C23.3012 40.6922 44.4076 40.6922 45.373 40.8641C47.6741 41.2873 49.7239 43.2445 50.2397 45.5059C50.3323 45.8762 50.3852 49.9494 50.3852 56.4427V66.8108L50.9538 66.7182C52.2101 66.5331 52.8846 66.3347 53.9558 65.8322C55.5295 65.0784 56.9975 63.6237 57.7645 62.0235C58.7696 59.9472 58.7299 60.9258 58.677 41.3931C58.6373 24.1085 58.6373 23.9895 58.3464 22.7861C58.2009 22.1116 57.91 21.1065 57.7248 20.5379C56.0585 15.5919 52.3292 11.4394 47.5815 9.25729L46.5765 8.79443L46.5368 7.00911C46.4839 5.32958 46.4574 5.17089 46.0607 4.32451C45.254 2.63176 43.6803 1.38865 41.9346 1.05803C41.0618 0.899339 26.5015 0.899339 25.6816 1.07126ZM41.6701 3.86165C42.3314 4.06002 43.1777 4.77415 43.5084 5.43538C43.7861 5.97759 44.0373 7.93483 43.8257 7.93483C43.7596 7.93483 43.2306 7.84226 42.6488 7.73646C41.1015 7.45874 26.6073 7.45874 25.06 7.73646C24.4781 7.84226 23.9492 7.93483 23.883 7.93483C23.6714 7.93483 23.9227 5.97759 24.2004 5.43538C24.5046 4.82705 25.3113 4.11292 25.9328 3.8881C26.5544 3.66328 40.9296 3.63683 41.6701 3.86165ZM45.5846 23.8308C46.1004 24.3598 46.0872 25.0343 45.5185 25.5368L45.0953 25.9203H33.8544H22.6135L22.1903 25.5368C21.5026 24.9152 21.6745 23.8969 22.5474 23.5266C22.6928 23.4737 27.8504 23.4341 34.0131 23.4473L45.2276 23.4737L45.5846 23.8308Z" fill="#005BDD"/>
<path d="M5.62052 38.6689C3.35911 39.2111 1.48121 41.208 1.05803 43.4959C0.97868 43.9058 0.925781 46.9078 0.925781 50.6372C0.925781 55.7154 0.965455 57.2495 1.12415 57.9636C1.66636 60.5556 3.7294 62.3806 6.48012 62.7112C7.14135 62.7906 7.71001 62.8303 7.73646 62.7906C7.7629 62.7641 7.61743 62.2352 7.40584 61.6268C7.19425 61.0053 6.9562 60.0002 6.89008 59.3786C6.79751 58.691 6.74461 54.4855 6.74461 48.3758C6.74461 39.0392 6.73139 38.4838 6.51979 38.497C6.38755 38.497 5.99081 38.5763 5.62052 38.6689Z" fill="#005BDD"/>
<path d="M60.9657 48.3625C60.9657 54.4855 60.9128 58.691 60.8202 59.3786C60.7541 60.0002 60.516 61.0053 60.3044 61.6268C60.0928 62.2352 59.9474 62.7641 59.9738 62.7906C60.0003 62.8303 60.5689 62.7906 61.2301 62.7112C63.9809 62.3806 66.0439 60.5556 66.5861 57.9636C66.7448 57.2495 66.7845 55.7154 66.7845 50.6372C66.7845 46.802 66.7316 43.9191 66.6522 43.4959C66.1629 40.9435 64.1263 38.9731 61.5343 38.5499L60.9657 38.4573V48.3625Z" fill="#005BDD"/>
<path d="M22.3497 43.0991C21.6356 43.324 20.895 43.7868 20.4586 44.3158C19.5328 45.387 19.5725 44.9241 19.5725 56.4296V66.7844H33.8551H48.1377V56.4296C48.1377 44.9241 48.1773 45.387 47.2516 44.3158C47.0004 44.0116 46.4846 43.6017 46.1011 43.4033L45.4266 43.0463L34.0535 43.0198C27.7982 43.0066 22.5348 43.0463 22.3497 43.0991ZM41.9353 49.9759C42.6627 50.7033 42.2792 51.8142 41.2476 52.0258C40.7054 52.1316 27.0047 52.1316 26.4625 52.0258C25.431 51.8142 25.0475 50.7033 25.7749 49.9759L26.1584 49.5924H33.8551H41.5518L41.9353 49.9759Z" fill="#2CD8B3"/>
</svg>
