<svg width="68" height="68" viewBox="0 0 68 68" fill="none" xmlns="http://www.w3.org/2000/svg">
<path d="M29.954 1.46789C26.0527 1.91753 21.477 3.41191 17.946 5.3956C13.6083 7.81571 9.70708 11.3863 6.87701 15.5389L6.07031 16.7291L8.75491 16.8084C10.2361 16.8481 11.4527 16.8878 11.466 16.901C11.4792 16.9142 12.0611 17.9325 12.762 19.1756C13.4629 20.4055 14.058 21.4238 14.0844 21.4238C14.1109 21.4238 14.3886 21.0668 14.6795 20.6171C17.7344 16.134 22.7862 12.6162 28.1025 11.2541C29.3721 10.9367 31.6335 10.5796 32.4402 10.5796H32.9956L34.3578 8.29179C35.0983 7.02223 35.7067 5.93781 35.7067 5.87169C35.7067 5.80556 35.1248 4.77405 34.4107 3.57061L33.1146 1.38855L32.0567 1.37532C31.488 1.3621 30.5358 1.40177 29.954 1.46789Z" fill="#2CD8B3"/>
<path d="M34.7793 1.36209C34.7793 1.40176 35.348 2.39361 36.0356 3.55738C36.7233 4.73437 37.292 5.79234 37.292 5.89813C37.292 6.00393 36.7233 7.04867 36.0356 8.22566C35.348 9.38943 34.7793 10.3813 34.7793 10.4342C34.7793 10.4871 35.4538 10.5929 36.2737 10.6854C39.1963 11.0028 41.4842 11.6641 44.1026 12.9468C47.6204 14.6793 50.6224 17.2316 52.8573 20.3923L53.5847 21.4238H54.7352C55.37 21.4238 56.5999 21.4635 57.4727 21.5032L59.0465 21.5825L60.3425 19.2682C61.0434 17.9854 61.6253 16.8878 61.6253 16.8349C61.6253 16.7688 61.2682 16.1869 60.8186 15.5256C55.8593 8.23889 48.0171 3.18709 39.4211 1.73238C37.7945 1.45466 34.7793 1.21662 34.7793 1.36209Z" fill="#005BDD"/>
<path d="M4.57507 19.4934C2.32689 24.122 1.30859 28.5787 1.30859 33.8553C1.30859 38.2988 2.0095 42.0017 3.58323 45.9823C3.99319 47.0271 4.97181 49.0636 5.15696 49.2356C5.20985 49.3017 5.83141 48.3363 6.53231 47.1064C7.40514 45.5591 7.89445 44.8185 8.09282 44.7524C8.25151 44.7127 9.46818 44.7127 10.8039 44.7656C12.1395 44.8185 13.224 44.8318 13.224 44.7921C13.224 44.7656 12.9859 44.2367 12.695 43.6151C12.0205 42.1604 11.3328 40.0841 10.9493 38.3517C10.6981 37.135 10.6584 36.5928 10.6584 33.8553C10.6584 31.1179 10.6981 30.5756 10.9493 29.359C11.3328 27.6133 12.0073 25.59 12.7082 24.0824L13.2504 22.9186L11.9412 20.5911L10.6452 18.2635L7.90767 18.2503H5.1834L4.57507 19.4934Z" fill="#005BDD"/>
<path d="M61.1771 20.6039C60.0398 22.614 59.8546 22.8653 59.4976 22.9446C59.2727 22.9975 58.0561 22.9975 56.7865 22.9446C55.517 22.8917 54.4854 22.8785 54.4854 22.9049C54.4854 22.9446 54.7235 23.4868 55.0144 24.1084C55.7285 25.616 56.3898 27.679 56.7601 29.5172C57.0246 30.8 57.0642 31.4084 57.0642 33.8549C57.0642 36.3015 57.0246 36.9098 56.7601 38.1926C56.3898 40.0308 55.7418 42.0542 55.0144 43.6147L54.459 44.7917L55.7682 47.1192L57.0642 49.46H59.8017H62.526L63.1343 48.2168C64.7477 44.8842 65.8586 41.0623 66.2553 37.4917C66.4669 35.5609 66.4273 31.5274 66.1892 29.6759C65.7792 26.5682 64.8403 23.2488 63.5443 20.3526C62.4863 17.9854 62.6715 17.9722 61.1771 20.6039Z" fill="#2CD8B3"/>
<path d="M22.6659 19.4933C19.0424 20.6703 18.6721 25.7617 22.084 27.5074C23.7371 28.3538 26.0911 27.9306 27.2681 26.5949C28.0087 25.7485 28.3525 24.7963 28.3525 23.6061C28.3525 22.3366 28.0748 21.6092 27.2284 20.6967C26.382 19.7842 25.5489 19.4007 24.2661 19.3478C23.6181 19.3214 22.9965 19.3742 22.6659 19.4933Z" fill="#005BDD"/>
<path d="M42.4496 19.427C41.2858 19.7841 40.1485 20.7892 39.646 21.8868C39.4211 22.3893 39.355 22.7993 39.3418 23.606C39.3418 24.545 39.3947 24.7698 39.7782 25.55C40.4262 26.8593 41.4313 27.6131 42.8728 27.8908C44.7903 28.2346 46.7211 27.2824 47.5675 25.55C47.8849 24.8888 47.9378 24.6375 47.9378 23.606C47.9378 22.4951 47.9113 22.3629 47.4617 21.5562C46.9063 20.5511 46.0202 19.7973 45.0416 19.5064C44.3539 19.2948 43.005 19.2551 42.4496 19.427Z" fill="#005BDD"/>
<path d="M18.9496 28.3669C17.7065 28.9884 16.9394 29.6893 16.384 30.7076L15.9344 31.5408L15.8947 34.0138L15.8418 36.5H21.9912H28.1275L28.22 35.9578C28.4448 34.5295 29.807 32.7971 31.2749 32.0698C31.7113 31.8449 32.0948 31.6598 32.1213 31.6466C32.1477 31.6333 32.0155 31.2895 31.8171 30.8795C31.2352 29.6893 29.9921 28.6314 28.4713 28.0495C28.0878 27.8908 28.0084 27.9172 27.4398 28.3007C25.2577 29.8083 22.6128 29.7819 20.5365 28.2214C20.3117 28.0495 20.0604 27.904 19.9943 27.904C19.9282 27.904 19.4521 28.1156 18.9496 28.3669Z" fill="#005BDD"/>
<path d="M38.5228 28.3801C37.3194 28.9884 36.3275 29.9274 35.8779 30.8928C35.6927 31.2895 35.5737 31.6333 35.5869 31.6466C35.6134 31.6598 35.9969 31.8449 36.4333 32.0698C37.9012 32.7971 39.2634 34.5295 39.4882 35.9578L39.5808 36.5H45.717H51.8664L51.8135 34.0799C51.7739 31.8185 51.7606 31.6333 51.43 30.9457C51.2449 30.5489 50.9143 30.0199 50.7027 29.7687C50.253 29.2265 49.0231 28.4065 48.2032 28.0891C47.6346 27.8776 47.6213 27.8776 47.1849 28.2082C45.9418 29.1471 44.302 29.5835 42.8737 29.3587C41.9083 29.2 40.8503 28.7636 40.1627 28.2478C39.9114 28.0627 39.6601 27.904 39.594 27.904C39.5279 27.904 39.0518 28.1156 38.5228 28.3801Z" fill="#005BDD"/>
<path d="M32.228 33.1939C31.2891 33.551 30.522 34.2519 30.0195 35.204C29.6095 35.9578 29.5699 36.143 29.5566 37.1613C29.5566 38.1796 29.5963 38.3779 29.9931 39.1714C30.7469 40.7055 32.0825 41.5254 33.8546 41.5254C35.6267 41.5254 36.9624 40.7055 37.7162 39.1714C38.0997 38.3912 38.1526 38.1663 38.1526 37.2274C38.1526 36.2884 38.0997 36.0636 37.7162 35.2834C37.2137 34.2519 36.4731 33.5774 35.4416 33.1807C34.5688 32.85 33.0876 32.85 32.228 33.1939Z" fill="#005BDD"/>
<path d="M28.697 41.9752C27.4539 42.6232 26.6604 43.3638 26.1579 44.4086L25.7215 45.2814L25.6818 47.7015L25.6289 50.1216H33.8546H42.0803L42.0274 47.7015L41.9877 45.2814L41.5513 44.4086C41.2868 43.8531 40.8901 43.3241 40.4934 42.9671C39.8983 42.4513 38.2716 41.5256 37.9278 41.5256C37.8484 41.5256 37.4782 41.7372 37.1079 41.9884C36.1292 42.6497 35.0713 42.9803 33.8546 42.9803C32.5851 42.9803 31.7122 42.729 30.7072 42.0546C30.2707 41.7636 29.8343 41.5256 29.7418 41.5256C29.636 41.5388 29.1731 41.7372 28.697 41.9752Z" fill="#005BDD"/>
<path d="M7.37804 48.4419C6.66391 49.7247 6.08203 50.8223 6.08203 50.8752C6.08203 51.0736 7.64254 53.2953 8.66083 54.5517C9.95684 56.1519 12.4431 58.5455 14.0829 59.7886C18.857 63.3725 24.4378 65.6074 30.2169 66.2555C31.4468 66.3877 32.928 66.4274 32.928 66.3348C32.928 66.2951 32.3593 65.3165 31.6717 64.1527C30.984 62.989 30.4153 61.9442 30.4153 61.8252C30.4153 61.7062 30.984 60.6614 31.6717 59.4845C32.3593 58.3207 32.928 57.3288 32.928 57.2627C32.928 57.2098 32.4387 57.1305 31.8568 57.0776C25.1387 56.5221 18.7512 52.8457 14.8499 47.3046L14.1226 46.2863H12.9721C12.3373 46.2863 11.1074 46.2466 10.2346 46.2069L8.66083 46.1276L7.37804 48.4419Z" fill="#2CD8B3"/>
<path d="M52.8572 47.3048C48.9427 52.8591 42.4626 56.562 35.7842 57.0778L34.6865 57.1703L33.3509 59.445C32.6103 60.6881 32.002 61.7725 32.002 61.8386C32.002 61.9047 32.5838 62.9363 33.298 64.1397L34.594 66.3218L35.242 66.3614C36.1545 66.4276 38.5085 66.1631 40.3731 65.7796C48.6385 64.1265 56.0311 59.2069 60.8316 52.1714L61.6383 50.9812L58.9537 50.9019C57.4726 50.8622 56.2559 50.8225 56.2427 50.8093C56.2294 50.7961 55.6476 49.7646 54.9467 48.5347C54.2457 47.2916 53.6506 46.2865 53.6242 46.2865C53.5977 46.2865 53.2539 46.7493 52.8572 47.3048Z" fill="#005BDD"/>
</svg>
