<svg width="68" height="68" viewBox="0 0 68 68" fill="none" xmlns="http://www.w3.org/2000/svg">
<g clip-path="url(#clip0_2522_2528)">
<path d="M4.76172 31.0646V55.2392L7.24795 55.8475C11.5724 56.9055 13.3445 57.1171 19.0443 57.2626C22.6414 57.3551 23.7919 57.4213 25.1276 57.6593C27.0981 58.0031 29.4124 58.6511 31.0258 59.3124C31.6738 59.5769 32.3086 59.8281 32.4408 59.8678C32.6524 59.9339 32.6656 58.7305 32.6656 35.8519V11.7699L31.6341 11.2542C29.5182 10.1962 26.5162 9.34981 23.5407 8.99274C22.853 8.9134 20.499 8.79437 18.3169 8.72825C13.1726 8.58278 9.5887 8.11992 6.01806 7.12807C5.51552 6.99583 5.02621 6.87681 4.93364 6.87681C4.78817 6.87681 4.76172 11.598 4.76172 31.0646ZM11.3211 12.7618C13.6487 13.1056 15.3546 13.2246 19.322 13.3569C23.5142 13.4891 25.0086 13.661 27.7064 14.309C29.0686 14.6397 29.505 14.8116 29.7959 15.0893L30.153 15.4464V24.2407V33.0351L29.8091 33.445C29.4388 33.8947 29.095 33.9476 28.3015 33.7228C25.7492 32.969 23.382 32.678 18.7798 32.5325C13.9131 32.3871 9.97221 31.9771 9.09939 31.5275C8.86135 31.4085 8.68943 31.1704 8.61008 30.8398C8.41171 30.1653 8.41171 14.1371 8.59686 13.4627C8.75555 12.9072 9.15229 12.5634 9.65482 12.5634C9.85319 12.5634 10.5938 12.656 11.3211 12.7618ZM11.4269 37.3595C13.4767 37.6637 15.672 37.8224 19.7055 37.9546C22.5224 38.034 23.8977 38.1398 25.1276 38.3514C27.3097 38.7349 29.214 39.2242 29.624 39.5284C30.3381 40.0441 30.272 40.9302 29.4653 41.3798C29.1479 41.565 28.976 41.5517 27.4155 41.155C24.8235 40.507 23.3026 40.3351 18.9782 40.2028C13.3709 40.0309 9.5358 39.5813 8.92747 39.0126C8.22657 38.3514 8.71588 37.1612 9.6945 37.1612C9.94577 37.1612 10.726 37.2537 11.4269 37.3595ZM12.2468 43.509C13.6354 43.6941 15.7249 43.8264 18.3831 43.9057C23.4481 44.0644 25.9343 44.3686 28.8702 45.2414C29.6504 45.4794 29.7959 45.5588 29.981 45.9687C30.2455 46.5242 30.1265 47.0003 29.5975 47.3838L29.2405 47.6483L27.5477 47.2383C24.7706 46.5506 23.5936 46.4184 19.5072 46.2861C15.5266 46.1539 13.609 46.0084 11.2418 45.6778C9.52258 45.4398 9.04649 45.2943 8.79522 44.924C8.25302 44.157 8.96714 42.9932 9.86642 43.1784C10.0251 43.218 11.0963 43.3635 12.2468 43.509ZM12.0485 49.5262C14.2041 49.8171 16.7829 49.989 19.0443 49.989C20.1684 49.989 21.7818 50.0552 22.6149 50.1345C25.326 50.3858 28.9628 51.1528 29.7033 51.6421C30.3513 52.0653 30.2588 53.0307 29.5446 53.4539C29.1347 53.6919 29.1082 53.6919 27.8916 53.3613C25.0879 52.6075 21.8611 52.2372 18.0392 52.2372C15.1298 52.2372 9.81352 51.6818 9.11262 51.2983C8.782 51.1263 8.59686 50.7561 8.59686 50.2932C8.61008 49.5658 9.19196 49.1559 10.0516 49.2617C10.3822 49.3014 11.2815 49.4204 12.0485 49.5262Z" fill="#005BDD"/>
<path d="M10.8438 22.3229V29.5965L11.214 29.6758C11.5447 29.7419 12.8803 29.9006 14.6789 30.0858C15.0756 30.1255 17.1916 30.218 19.3736 30.2842C23.1823 30.39 24.928 30.5883 27.5464 31.157L27.9035 31.2363V23.9628C27.9035 17.1389 27.8903 16.676 27.6787 16.6099C27.1761 16.4512 25.3908 16.1074 24.1345 15.9222C23.4071 15.8164 21.0267 15.671 18.8446 15.6048C16.6626 15.5255 14.3483 15.4197 13.687 15.3403C13.039 15.2742 12.1265 15.1684 11.6769 15.1288L10.8438 15.0362V22.3229Z" fill="#2CD8B3"/>
<path d="M61.8909 7.07491C60.8065 7.41875 57.6061 8.05353 55.5298 8.33125C54.1413 8.52962 52.2237 8.64864 49.4597 8.72799C47.238 8.79411 44.8576 8.91313 44.1699 8.99248C41.1944 9.34955 38.1924 10.1959 36.0764 11.2539L35.0449 11.7696V35.8384C35.0449 49.0763 35.0846 59.9072 35.1375 59.9072C35.1904 59.9072 35.8119 59.6692 36.5261 59.3782C38.2453 58.6641 40.5596 58.0161 42.5829 57.659C43.9319 57.421 45.0692 57.3549 48.6663 57.2623C54.5115 57.1168 57.5268 56.7201 61.6661 55.5696L62.9488 55.2125V31.0511C62.9488 8.10643 62.9356 6.87654 62.724 6.88977C62.5918 6.88977 62.2215 6.98234 61.8909 7.07491ZM58.7831 12.8937C59.2592 13.3566 59.2327 14.0311 58.7302 14.4542C58.0557 15.0097 54.5115 15.4329 48.9308 15.6048C44.8576 15.7238 43.231 15.8957 41.0621 16.3983C38.4436 17.0066 38.523 16.9934 38.1792 16.8082C37.994 16.7157 37.7824 16.4908 37.7031 16.3057C37.1476 15.089 38.1659 14.5468 42.4507 13.8062C44.0244 13.5285 45.0824 13.4492 48.3357 13.3566C51.9724 13.2376 55.4637 12.9731 56.7994 12.6954C57.8706 12.4838 58.4393 12.5367 58.7831 12.8937ZM58.5054 18.6993C59.2724 19.0167 59.3914 19.9557 58.7434 20.5376C58.188 21.0401 53.8503 21.5162 48.4018 21.6881C44.2492 21.8071 43.1119 21.9394 40.2422 22.6403C38.5759 23.037 38.4965 23.0502 38.1527 22.8254C37.4782 22.389 37.3989 21.5823 37.9543 21.0533C38.2585 20.7624 40.8902 20.0879 42.8739 19.7705C44.5005 19.506 47.5422 19.3077 49.8962 19.3077C51.9724 19.3077 54.2338 19.1225 56.4688 18.7787C57.3019 18.6464 58.0028 18.5406 58.0293 18.5274C58.0425 18.5274 58.2673 18.5935 58.5054 18.6993ZM58.6641 24.7959C59.074 25.0736 59.2856 25.6687 59.1269 26.0919C58.9286 26.6209 58.5054 26.8193 57.13 27.0308C54.776 27.4144 53.4933 27.5069 48.8646 27.7053C44.0112 27.8904 42.5433 28.0756 39.9116 28.75C38.5098 29.1203 38.1527 29.0807 37.7692 28.5385C37.465 28.1153 37.5047 27.5466 37.8618 27.1895C38.0469 27.0044 38.5891 26.7796 39.2636 26.5944C42.3052 25.7745 44.2492 25.5365 49.063 25.391C52.713 25.2852 55.5563 25.0472 57.1432 24.743C58.0293 24.5711 58.3731 24.5843 58.6641 24.7959ZM58.6773 32.3339C58.836 32.4529 59.0344 32.7571 59.1137 33.0348C59.2989 33.7093 59.2989 49.7375 59.1005 50.4252C59.0344 50.6897 58.836 51.0071 58.6773 51.1129C58.0293 51.5228 52.6204 52.1047 49.2878 52.1047C45.7436 52.1179 43.0723 52.4089 40.2951 53.1098C38.6552 53.5197 38.2982 53.5197 37.8882 53.0966L37.5576 52.7792V43.9187V35.0582L37.8618 34.7143C38.0998 34.4499 38.4965 34.2912 39.938 33.9341C42.7416 33.2332 44.355 33.048 48.7324 32.929C52.3295 32.8232 55.305 32.5852 56.8788 32.281C57.7912 32.0959 58.3731 32.1223 58.6773 32.3339Z" fill="#005BDD"/>
<path d="M54.8166 34.8597C54.0892 34.9523 51.6559 35.0845 49.3945 35.1639C44.7262 35.3226 43.3641 35.4548 40.7059 36.0499L39.8066 36.2615V43.5351V50.8086L40.1769 50.7425C40.3753 50.716 41.2217 50.5573 42.0548 50.4119C44.1179 50.0283 46.1016 49.8564 48.4688 49.8564C51.074 49.8564 55.7158 49.5126 56.6416 49.2481C56.8532 49.182 56.8664 48.7191 56.8664 41.9084V34.6481L56.5093 34.6613C56.2977 34.6746 55.5439 34.7671 54.8166 34.8597Z" fill="#2CD8B3"/>
<path d="M0 36.632V60.833L14.2561 60.8198C23.2621 60.8198 28.3536 60.7669 28.1023 60.6875C25.7483 59.9602 23.1431 59.6428 18.3161 59.5105C12.8675 59.3651 10.5003 59.0477 6.08332 57.9104C3.80869 57.3285 3.18713 57.0111 2.77717 56.2044C2.51268 55.6886 2.51268 55.4903 2.51268 34.0532V12.4309H1.25634H0V36.632Z" fill="#005BDD"/>
<path d="M65.1981 34.0532C65.1981 55.4903 65.1981 55.6886 64.9336 56.2044C64.5104 57.0375 63.9153 57.3285 61.363 57.9765C57.0385 59.0741 54.7771 59.3651 49.3947 59.5105C44.6206 59.6428 41.9625 59.9602 39.6085 60.6875C39.3572 60.7669 44.4487 60.8198 53.4679 60.8198L67.7108 60.833V36.632V12.4309H66.4544H65.1981V34.0532Z" fill="#005BDD"/>
</g>
<defs>
<clipPath id="clip0_2522_2528">
<rect width="67.71" height="67.71" fill="white"/>
</clipPath>
</defs>
</svg>
