<svg width="66" height="66" viewBox="0 0 66 66" fill="none" xmlns="http://www.w3.org/2000/svg">
<g clip-path="url(#clip0_2239_462)">
<path d="M0.257812 17.0156V34.0312H15.082H29.9062V33V31.9688H32.0719H34.2375L34.3406 26.7352C34.418 22.3008 34.4953 21.3984 34.9078 20.625C36.0422 18.4594 37.1766 17.8148 41.482 16.8609L44.6016 16.1648V15.3914C44.6016 14.8242 44.2922 14.2828 43.4672 13.432C42.8227 12.7102 42.1266 11.6016 41.7914 10.6734C41.2758 9.35859 41.2242 8.76562 41.3016 6.31641C41.4047 3.35156 41.843 1.98516 43.132 0.567188L43.6477 0H21.9656H0.257812V17.0156ZM4.84687 3.40313C4.76953 4.51172 4.76953 4.51172 3.68672 4.58906L2.57812 4.66641V3.50625V2.32031H3.76406H4.92422L4.84687 3.40313ZM16.1906 3.40313L16.1133 4.51172H11.6273H7.14141L7.16719 3.53203C7.16719 3.01641 7.19297 2.52656 7.19297 2.44922C7.21875 2.37188 9.25547 2.32031 11.7562 2.32031H16.268L16.1906 3.40313ZM4.84687 7.96641L4.92422 9.02344H3.76406H2.57812V8.04375C2.57812 7.50234 2.62969 6.98672 2.68125 6.93516C2.73281 6.88359 3.24844 6.83203 3.78984 6.85781C4.74375 6.88359 4.76953 6.90938 4.84687 7.96641ZM16.1906 7.96641L16.268 9.02344H11.6789H7.08984L7.14141 7.94063C7.16719 7.32187 7.19297 6.83203 7.19297 6.83203C7.21875 6.83203 9.22969 6.85781 11.6531 6.88359L16.1133 6.93516L16.1906 7.96641ZM25.2656 20.2383V29.6484H26.4258H27.5859V30.8086V31.9688H15.082H2.57812V30.8344V29.6742L3.68672 29.5969L4.76953 29.5195L4.84687 22.7906L4.89844 16.0617L7.63125 15.8813C12.8391 15.5461 17.1703 14.4375 22.1719 12.1172C23.6672 11.4469 24.9562 10.8539 25.0852 10.8539C25.1883 10.8281 25.2656 15.0562 25.2656 20.2383Z" fill="#2CD8B3"/>
<path d="M21.6563 14.9017L20.7539 15.3399V22.4298V29.5196L21.8625 29.597L22.9453 29.6743V22.0688C22.9453 17.8665 22.868 14.4376 22.7648 14.4376C22.6359 14.4376 22.1461 14.6438 21.6563 14.9017Z" fill="#2CD8B3"/>
<path d="M16.9641 16.5517L16.2422 16.8095V23.229V29.6743L17.3508 29.597L18.4336 29.5196L18.5109 22.8681C18.5883 15.5462 18.6656 15.9071 16.9641 16.5517Z" fill="#2CD8B3"/>
<path d="M12.0656 17.7117C11.6273 17.8148 11.6016 18.3305 11.6016 23.7445V29.6484H12.7617H13.9219V23.5898V17.5312L13.2258 17.557C12.8133 17.5828 12.2977 17.6344 12.0656 17.7117Z" fill="#2CD8B3"/>
<path d="M7.06363 18.3821C7.01207 18.5626 6.98629 21.1407 7.01207 24.1056L7.08941 29.5196L8.198 29.597L9.28082 29.6743V23.8735V18.047H8.24957C7.63082 18.047 7.14097 18.1759 7.06363 18.3821Z" fill="#2CD8B3"/>
<path d="M46.7156 0.670311C45.8133 1.13437 45.0914 1.72734 44.5242 2.52656C43.6992 3.73828 43.6992 3.76406 43.6992 6.83203C43.6992 9.9 43.6992 9.92578 44.5242 11.1375C45.4781 12.5039 47.5148 13.6641 48.9586 13.6641C51.4336 13.6641 53.7539 12.0656 54.5016 9.87422C55.0172 8.35312 55.0172 5.28516 54.5273 3.8414C53.3672 0.592967 49.7836 -0.876564 46.7156 0.670311Z" fill="#005BDD"/>
<path d="M46.9219 16.3969C46.9219 17.3508 48.5461 18.4337 49.6031 18.1501C50.4023 17.9696 51.5625 16.8352 51.5625 16.268C51.5625 15.9071 51.2273 15.8298 49.2422 15.8298C47.0508 15.8298 46.9219 15.8555 46.9219 16.3969Z" fill="#005BDD"/>
<path d="M41.8693 19.0781C40.142 19.4906 38.4662 19.9805 38.1826 20.1609C37.8733 20.3414 37.3834 20.9859 37.0998 21.5531C36.6358 22.507 36.61 23.0484 36.6615 27.225L36.7389 31.8398L49.1912 31.9172L61.6178 31.9688V27.0187C61.6178 23.5898 61.5147 21.8625 61.2826 21.4242C60.7154 20.3156 59.6584 19.8 56.4358 19.0781L53.2647 18.3562L52.3881 19.1297C51.2795 20.0836 50.5318 20.3672 49.0881 20.3672C47.7733 20.3672 46.8193 19.9547 45.917 18.975C45.5561 18.6141 45.2209 18.3047 45.1436 18.3305C45.0662 18.3305 43.5709 18.6656 41.8693 19.0781Z" fill="#005BDD"/>
<path d="M32.2266 35.1914V36.3516H49.1133H66V35.1914V34.0312H49.1133H32.2266V35.1914Z" fill="#005BDD"/>
<path d="M34.2891 39.832C34.2891 40.7344 34.3922 41.0438 34.7531 41.1469C36.8414 41.8172 38.8781 43.4672 39.4453 44.9883L39.7031 45.6328H44.6016H49.5L49.9898 44.6531C50.9953 42.668 53.1352 41.2758 55.4297 41.0695C58.0336 40.8375 60.457 42.075 61.8492 44.3438C62.468 45.3492 62.8031 45.6328 63.293 45.6328H63.9375V42.1523V38.6719H49.1133H34.2891V39.832Z" fill="#005BDD"/>
<path d="M8.53399 43.7766C8.04415 44.0086 7.29649 44.6531 6.85821 45.1946C6.13633 46.0969 6.08477 46.3547 5.98165 48.5461C5.9043 50.6344 5.95587 51.0469 6.49727 52.0781C7.88946 54.7852 11.0863 55.4039 13.4324 53.4446C14.6184 52.4391 14.9535 51.4078 14.9535 48.8039C14.9535 46.9219 14.8504 46.3547 14.3606 45.5039C13.252 43.5445 10.5449 42.7453 8.53399 43.7766Z" fill="#005BDD"/>
<path d="M31.3233 43.6992C29.5444 44.6531 28.9256 45.7102 28.6936 48.0562C28.3327 51.8719 30.2663 54.6562 33.2569 54.6562C36.2475 54.6562 38.1811 51.8719 37.8202 48.0562C37.6397 46.0711 37.1756 45.1172 35.9381 44.1891C34.778 43.2867 32.5092 43.0547 31.3233 43.6992Z" fill="#005BDD"/>
<path d="M53.7539 43.9055C52.1297 44.8078 51.5625 46.0969 51.5625 48.8039C51.5625 51.4078 51.8977 52.4391 53.0836 53.4446C55.4297 55.4039 58.6266 54.7852 60.0187 52.0781C60.5602 51.0469 60.6117 50.6344 60.5344 48.5461C60.4312 46.3547 60.3797 46.0969 59.6578 45.1946C58.1367 43.2867 55.7648 42.7711 53.7539 43.9055Z" fill="#005BDD"/>
<path d="M40.1408 47.85C40.0377 47.9531 39.9604 48.8555 39.9604 49.8609C39.9604 51.7688 39.2385 53.857 38.3361 54.6305C37.7174 55.1203 37.7432 57.157 38.3619 57.3375C41.5588 58.2398 43.3377 58.8586 43.9049 59.2969L44.5752 59.8125L45.426 59.2195C45.9158 58.9102 47.4885 58.3172 48.9322 57.9047L51.5619 57.1828V56.2805C51.5619 55.6617 51.3041 55.0687 50.7885 54.3984C49.7057 53.032 49.4479 52.2328 49.2674 49.8867L49.1127 47.8242L44.7041 47.7469C42.3065 47.7211 40.244 47.7727 40.1408 47.85Z" fill="#005BDD"/>
<path d="M8.25 57.2601C8.25 58.9616 10.9055 59.6577 12.1945 58.3171C13.3805 57.0796 13.1227 56.4093 11.6016 56.7444C11.0602 56.8734 10.1062 56.8734 9.43594 56.7444C8.25 56.5382 8.25 56.5382 8.25 57.2601Z" fill="#005BDD"/>
<path d="M30.9375 57.1312C30.9375 58.0852 32.0977 59.0391 33.2578 59.0391C34.418 59.0391 35.5781 58.0852 35.5781 57.1312C35.5781 56.5125 35.5008 56.4867 34.7531 56.6672C34.2891 56.7445 33.6187 56.8477 33.2578 56.8477C32.8969 56.8477 32.2266 56.7445 31.7883 56.6672C31.0148 56.4867 30.9375 56.5125 30.9375 57.1312Z" fill="#005BDD"/>
<path d="M53.7529 56.6671C53.4436 56.9765 53.6756 57.6468 54.3201 58.3171C55.6092 59.6577 58.2647 58.9616 58.2647 57.2601C58.2647 56.5382 58.2647 56.5382 57.0787 56.7444C56.4084 56.8734 55.4545 56.8734 54.9131 56.7444C54.3459 56.6155 53.8561 56.5898 53.7529 56.6671Z" fill="#005BDD"/>
<path d="M3.99609 60.0961C0.61875 61.05 0.257812 61.4367 0.257812 64.0922V66H10.4414H20.625V63.9375C20.625 61.3852 20.393 61.1016 17.7375 60.3281C16.7062 60.0188 15.5461 59.6836 15.1594 59.5547C14.6953 59.4 14.3859 59.4258 14.2828 59.6063C14.1797 59.7352 13.5867 60.1992 12.9422 60.6117C12.0398 61.1789 11.4469 61.3594 10.493 61.3594C9.10078 61.3594 8.48203 61.1016 7.34766 60.0703L6.57422 59.3484L3.99609 60.0961Z" fill="#005BDD"/>
<path d="M26.5547 60.1734C24.0281 60.9211 23.8219 61.0242 23.4094 61.875C23.1 62.4422 22.9453 63.3703 22.9453 64.3758V66H33.2578H43.5703V64.3758C43.5703 63.3703 43.4156 62.4422 43.1062 61.875C42.6938 61.0242 42.4875 60.9211 39.9609 60.1734L37.2539 59.3484L36.3773 60.1219C35.3203 61.05 34.5469 61.3594 33.2578 61.3594C31.9688 61.3594 31.1953 61.05 30.1383 60.1219L29.2617 59.3484L26.5547 60.1734Z" fill="#005BDD"/>
<path d="M51.3047 59.5805C50.9437 59.6836 49.8094 60.0188 48.7781 60.3281C46.1227 61.1016 45.8906 61.4109 45.8906 63.9375V66H55.9453H66V63.8602C66 61.1789 65.8969 61.0758 62.4937 60.0961L59.9414 59.3484L59.168 60.0703C58.0336 61.1016 57.4148 61.3594 56.0227 61.3594C54.8109 61.3594 53.625 60.8438 52.4648 59.8125C52.0781 59.4773 51.7687 59.4258 51.3047 59.5805Z" fill="#005BDD"/>
</g>
<defs>
<clipPath id="clip0_2239_462">
<rect width="66" height="66" fill="white"/>
</clipPath>
</defs>
</svg>
