<svg width="68" height="68" viewBox="0 0 68 68" fill="none" xmlns="http://www.w3.org/2000/svg">
<g clip-path="url(#clip0_2506_3672)">
<path d="M26.1836 12.5633V16.3984H32.1347H38.0857V12.5633V8.72816H32.1347H26.1836V12.5633Z" fill="#005BDD"/>
<path d="M44.7373 14.0709C41.8146 15.2478 39.3813 16.2397 39.3416 16.2926C39.302 16.3323 39.9235 18.0118 40.7302 20.0087L42.2114 23.6587L42.8462 23.4074C46.073 22.1379 53.1217 19.2549 53.201 19.1755C53.373 19.0301 50.49 11.9681 50.2519 11.9417C50.1461 11.9285 47.6599 12.8806 44.7373 14.0709Z" fill="#005BDD"/>
<path d="M0.263672 17.0597V21.0271H6.21475H12.1658V17.0597V13.0923H6.21475H0.263672V17.0597Z" fill="#005BDD"/>
<path d="M26.1836 19.8369V22.3496H32.1347H38.0857V19.8369V17.3243H32.1347H26.1836V19.8369Z" fill="#2CD8B3"/>
<path d="M13.2246 38.9464V58.9817H19.1757H25.1268V38.9464V18.9111H19.1757H13.2246V38.9464ZM21.9529 24.201C22.2041 24.4522 22.2173 24.6374 22.2173 31.0778C22.2173 37.5182 22.2041 37.7033 21.9529 37.9546C21.7016 38.2058 21.5164 38.2191 19.2286 38.2191C17.7871 38.2191 16.6762 38.1662 16.5175 38.0868C16.2795 37.9546 16.2663 37.7297 16.2663 31.0778C16.2663 24.6771 16.2795 24.201 16.5043 24.0819C16.6366 24.0026 17.7739 23.9365 19.2154 23.9365C21.5164 23.9365 21.7016 23.9497 21.9529 24.201ZM22.0057 45.4265C22.257 45.691 22.138 46.0083 21.728 46.167C21.3048 46.3257 17.0333 46.3257 16.6101 46.1538C16.2398 46.0216 16.1605 45.6513 16.425 45.3868C16.544 45.2678 17.3375 45.2281 19.1889 45.2281C21.3577 45.2281 21.8338 45.2678 22.0057 45.4265ZM22.0057 51.1263C22.1644 51.285 22.1777 51.3908 22.0851 51.5891C21.9529 51.8272 21.8074 51.8404 19.136 51.814C16.5572 51.7743 16.3324 51.7611 16.2927 51.5362C16.1869 50.9676 16.4117 50.9147 19.1889 50.9147C21.3842 50.9147 21.8338 50.9411 22.0057 51.1263Z" fill="#005BDD"/>
<path d="M17.1914 31.0778V37.1611H19.1751H21.1588V31.0778V24.9945H19.1751H17.1914V31.0778Z" fill="#2CD8B3"/>
<path d="M48.1375 22.2833C45.1885 23.4735 42.7287 24.4654 42.6758 24.4918C42.5171 24.558 44.3421 29.094 44.514 29.094C44.6595 29.094 55.3979 24.7828 55.5037 24.6902C55.583 24.5976 53.758 20.1806 53.6125 20.1542C53.5464 20.1409 51.0866 21.1063 48.1375 22.2833Z" fill="#2CD8B3"/>
<path d="M0.263672 24.4654V26.978H6.21475H12.1658V24.4654V21.9527H6.21475H0.263672V24.4654Z" fill="#2CD8B3"/>
<path d="M26.1836 41.1285V58.9817H32.1347H38.0857V41.1285V23.2752H32.1347H26.1836V41.1285ZM33.2323 31.5142C34.2638 31.9506 35.1763 33.2202 35.1763 34.2384C35.1763 35.9047 33.7745 37.333 32.1347 37.333C30.8916 37.333 29.8997 36.6453 29.3443 35.389C28.7227 33.974 29.4897 32.1886 31.0106 31.5274C31.5263 31.3026 32.6901 31.2894 33.2323 31.5142ZM34.8854 44.4214C34.9912 44.4743 35.0441 44.6727 35.0176 44.8446L34.978 45.162H32.1347C29.503 45.162 29.2914 45.1487 29.2517 44.9239C29.1459 44.3553 29.3707 44.3024 32.1214 44.3024C33.5497 44.3024 34.7928 44.3553 34.8854 44.4214ZM34.8854 50.108C34.9912 50.1609 35.0441 50.3592 35.0176 50.5312L34.978 50.8486H32.1347C29.503 50.8486 29.2914 50.8353 29.2517 50.6105C29.1459 50.0419 29.3707 49.989 32.1214 49.989C33.5497 49.989 34.7928 50.0419 34.8854 50.108Z" fill="#005BDD"/>
<path d="M31.2621 32.453C30.0984 32.9688 29.7016 34.7409 30.5744 35.6666C31.5398 36.6981 33.021 36.5923 33.907 35.4021C34.3302 34.8335 34.2773 33.7623 33.8013 33.1275C33.1929 32.334 32.1746 32.0563 31.2621 32.453Z" fill="#2CD8B3"/>
<path d="M50.2924 27.8112C47.3698 28.9882 44.9365 29.9932 44.8968 30.0461C44.8307 30.1123 55.9922 58.1088 56.3096 58.6774C56.4154 58.8493 67.4447 54.4984 67.4447 54.2868C67.4315 54.2075 64.8527 47.7539 61.7053 39.9381C58.1346 31.0644 55.9129 25.7085 55.7939 25.6952C55.6881 25.6688 53.2151 26.621 50.2924 27.8112ZM59.2455 43.7072C59.6025 44.1303 59.2719 44.3816 57.3544 45.1354C56.3228 45.5454 55.3971 45.8892 55.3178 45.8892C55.0401 45.8892 54.8681 45.4264 55.0533 45.1883C55.1987 45.0032 58.571 43.5485 58.9281 43.522C59.0074 43.5088 59.1529 43.6014 59.2455 43.7072Z" fill="#005BDD"/>
<path d="M0.263672 43.4428V58.9817H6.21475H12.1658V43.4428V27.9039H6.21475H0.263672V43.4428ZM9.00514 45.9026C9.26963 46.167 9.26963 46.1935 9.04481 46.4315C8.83322 46.6564 8.6084 46.6828 6.21475 46.6828C3.54337 46.6828 3.30533 46.6431 3.30533 46.1274C3.30533 45.7042 3.72852 45.6381 6.25442 45.6248C8.58195 45.6248 8.74065 45.6381 9.00514 45.9026Z" fill="#005BDD"/>
</g>
<defs>
<clipPath id="clip0_2506_3672">
<rect width="67.71" height="67.71" fill="white"/>
</clipPath>
</defs>
</svg>
