<svg width="68" height="68" viewBox="0 0 68 68" fill="none" xmlns="http://www.w3.org/2000/svg">
<g clip-path="url(#clip0_2509_3857)">
<path d="M-1.38708 16.1406C-1.44645 24.4828 -1.41677 31.2812 -1.3277 31.2812C-1.23864 31.2516 2.50198 27.2734 6.9848 22.4047C11.4676 17.5063 15.2082 13.5281 15.2973 13.5281C15.3864 13.5281 16.6332 14.8047 18.0582 16.3781C19.4832 17.9516 21.7692 20.4453 23.1051 21.8703L25.5395 24.4828L32.0707 17.3281C35.6629 13.4094 38.6614 10.2031 38.7504 10.2031C38.8395 10.2031 44.0348 15.6656 50.3285 22.375L61.7582 34.5172L65.8551 34.5469H69.9223V17.7734V1H34.2973H-1.3277L-1.38708 16.1406ZM61.016 12.1328V14.3594H58.7895H56.5629V12.1328V9.90625H58.7895H61.016V12.1328Z" fill="#005BDD"/>
<path d="M33.7024 22.0782C31.0009 25.0173 28.7743 27.5407 28.7446 27.6595C28.7149 27.7782 30.1102 29.3813 31.8618 31.222L35.0384 34.5767L45.3102 34.4876L55.5821 34.3985L47.2993 25.6407C42.7571 20.8313 38.9571 16.8532 38.8384 16.8235C38.6899 16.7938 36.404 19.1688 33.7024 22.0782Z" fill="#2CD8B3"/>
<path d="M9.36016 26.2641C6.18359 29.7078 3.18516 32.9734 2.73984 33.5375L1.87891 34.5469H15.2977H28.6867L28.0039 33.6859C27.1133 32.5875 15.5055 20.1781 15.2977 20.0891C15.2086 20.0594 12.5367 22.85 9.36016 26.2641Z" fill="#2CD8B3"/>
<path d="M5.23258 37.6077C4.69821 37.7859 3.62946 38.5281 2.85758 39.2999C0.126332 42.0609 0.0669566 45.8906 2.73883 48.6218C5.88571 51.8281 11.1998 51.0859 13.2779 47.1077C16.0982 41.7046 11.1998 35.9156 5.23258 37.6077Z" fill="#005BDD"/>
<path d="M31.4175 37.9938C26.994 40.0719 26.3112 46.3656 30.23 49.275C34.0003 52.0656 39.344 50.3141 40.68 45.8313C41.9269 41.6453 38.6612 37.2813 34.2972 37.2813C33.4956 37.2813 32.3378 37.5781 31.4175 37.9938Z" fill="#005BDD"/>
<path d="M58.4917 37.8453C52.1979 40.725 53.7417 50.0172 60.5995 50.5812C62.6776 50.7594 64.3995 50.1062 65.8542 48.6219C68.5261 45.8906 68.4667 42.0609 65.7354 39.3C63.7167 37.2812 60.9557 36.7172 58.4917 37.8453Z" fill="#005BDD"/>
<path d="M-2.21875 51.8875C-3.37656 53.7578 -3.70312 55.5984 -3.70312 59.9031V68H7.45937H18.6219L18.5031 59.1906C18.4141 55.0047 18.2953 54.1734 17.7609 53.0156C16.6328 50.6703 16.6922 50.7 15.0891 52.125C11.1109 55.6875 5.58906 56.0734 1.13594 53.1047C0.245312 52.5406 -0.585938 51.7984 -0.764063 51.5016C-1.17969 50.7 -1.53594 50.7891 -2.21875 51.8875Z" fill="#005BDD"/>
<path d="M24.1148 52.9266C23.2242 54.8562 23.1945 55.1234 23.0758 59.4875L22.957 68H34.2977H45.6383L45.5195 59.4578C45.4008 55.1234 45.3711 54.8562 44.4805 52.9266C43.9461 51.8281 43.4414 50.9375 43.3227 50.9375C43.2039 50.9375 42.5211 51.4719 41.8086 52.1547C41.0664 52.8078 39.7305 53.7281 38.8102 54.1438C37.3555 54.8266 36.732 54.9453 34.2977 54.9453C31.8633 54.9453 31.2398 54.8266 29.7852 54.1438C28.8648 53.7281 27.5289 52.8078 26.7867 52.1547C26.0742 51.4719 25.3914 50.9375 25.2727 50.9375C25.1539 50.9375 24.6492 51.8281 24.1148 52.9266Z" fill="#005BDD"/>
<path d="M51.0117 52.6297C50.2398 54.2625 50.1805 54.5891 50.0914 59.1609L49.9727 68H60.9867H72.0008V59.1609C72.0008 54.7078 71.9414 54.2328 71.2883 52.8375C70.9023 52.0063 70.4273 51.2047 70.2492 51.0859C70.0414 50.9969 69.5367 51.2641 69.0914 51.7687C66.0633 54.975 60.4227 56.0438 56.4742 54.0844C55.5836 53.6688 54.2477 52.7781 53.5055 52.125C52.7633 51.4719 52.1102 50.9375 52.0211 50.9375C51.932 50.9375 51.4867 51.7094 51.0117 52.6297Z" fill="#005BDD"/>
</g>
<defs>
<clipPath id="clip0_2509_3857">
<rect width="67.7153" height="67.71" fill="white"/>
</clipPath>
</defs>
</svg>
