<svg width="68" height="68" viewBox="0 0 68 68" fill="none" xmlns="http://www.w3.org/2000/svg">
<path d="M42.4745 13.443C40.7351 15.3979 39.1997 17.5248 37.8921 19.7907C36.8467 21.6582 35.57 23.8967 35.6124 26.0863C35.6417 27.5114 35.6124 29.0991 35.6124 30.5241C37.4069 31.0349 38.7585 32.4177 38.7585 34.2332C38.7585 36.0487 37.814 37.067 36.0585 37.695C36.0813 39.8879 36.0357 42.738 36.0585 44.9276C36.0944 48.308 36.0227 51.4347 36.0585 54.8282C36.0585 56.3053 36.0585 57.7563 36.0585 59.2042C36.3983 58.7004 36.6957 58.1693 36.9477 57.6164C37.2479 56.8805 37.5905 56.1624 37.9736 55.4658C38.6842 54.2708 39.4764 53.1261 40.3445 52.0399C41.795 50.2656 43.4016 48.6247 45.1451 47.1368C48.6527 44.1435 53.5901 41.6578 54.4922 36.6864C54.6974 35.5671 54.7202 28.3866 54.7495 24.7068C54.8179 16.4753 54.6974 8.24059 54.7495 0.00585938C50.6947 4.4014 46.4022 8.92058 42.4745 13.443Z" fill="#30BA4E"/>
<path d="M29.8852 34.2631C29.8852 32.5257 31.2791 31.0486 32.9597 30.4792C32.9597 28.8525 32.9173 27.2257 32.9597 25.5989C32.9875 24.9966 32.9194 24.3937 32.7577 23.8127C32.5682 23.3076 32.3508 22.8134 32.1064 22.3324C30.9014 19.6139 29.3277 17.074 27.4296 14.7841C25.4755 12.3993 23.2315 10.2292 21.1699 7.95167C18.8055 5.31955 16.5029 2.63537 14.145 0C13.9951 8.21521 13.9137 16.694 13.9789 24.9287C14.0082 28.6085 13.7737 34.3933 13.9235 35.5222C14.5749 40.562 18.9097 43.4088 22.5834 46.3143C26.5567 49.4604 29.4911 53.4721 31.8491 58.027C31.9956 58.3068 32.546 59.1332 32.5428 59.3968C32.5688 58.0433 32.5428 56.7939 32.5428 55.434V45.9369C32.5428 43.2852 32.4874 40.37 32.5428 37.7151C30.8948 37.1197 29.8852 35.9647 29.8852 34.2631Z" fill="#FB9223"/>
<path d="M32.5104 61.9668C31.8898 62.0282 31.3154 62.322 30.9028 62.7892C30.4902 63.2564 30.2698 63.8622 30.286 64.485C30.286 66.037 31.3086 67 32.5104 67V61.9668Z" fill="#FB9223"/>
<path d="M36.0664 61.9668V66.948C37.2649 66.948 38.3006 65.6726 38.3006 64.3874C38.3006 63.1023 37.2584 61.9668 36.0664 61.9668Z" fill="#30BA4E"/>
<path d="M63.2848 1.13892L58.976 5.51494V38.571C58.976 42.2377 57.8198 44.0467 55.045 46.1713C53.0095 47.733 50.2835 50.1374 48.4239 51.8975C47.0886 53.1632 45.1931 54.7476 44.4277 56.6737L59.0607 46.3047C59.0607 46.3047 63.9948 43.0772 63.5681 37.0418L63.2848 1.13892Z" fill="#30BA4E"/>
<path d="M5.89942 1.13781L9.98349 6.01813L9.6578 37.0082C9.54634 39.0543 9.99349 41.0923 10.9515 42.9043C11.9094 44.7163 13.3422 46.2343 15.0967 47.2959C15.0967 47.2959 23.0987 53.6045 24.6295 56.6661L17.1029 51.3563C13.6116 48.8901 9.32236 46.6127 6.97744 43.1704C4.32964 39.2922 5.06568 34.0052 5.17966 29.5738L5.577 13.8397L5.90268 1.15082C5.91245 0.548913 6.29675 1.60957 5.89942 1.13781Z" fill="#FB9223"/>
</svg>
