<svg width="68" height="68" viewBox="0 0 68 68" fill="none" xmlns="http://www.w3.org/2000/svg">
<g clip-path="url(#clip0_2239_532)">
<path d="M28.3801 0.370285C24.5185 1.32246 21.0008 4.12607 19.2287 7.67027C18.6733 8.72824 18.2501 9.73331 18.2501 9.91845C18.2501 10.0771 17.5095 10.5797 16.6102 11.0029C12.3254 13.013 9.31023 17.9326 9.57473 22.4554C9.70697 25.1532 11.241 27.9039 14.891 32.1093L15.7638 33.1409L17.7211 30.0728L19.6519 26.9782H34.2783H48.9047L51.4703 30.1521L54.0359 33.2996L55.0938 32.4796C55.6493 32.03 56.5221 31.0514 56.9982 30.3108C60.3837 25.1797 58.5058 18.2764 53.0308 15.5786C51.7083 14.9174 50.862 14.7322 48.6931 14.5471C47.212 14.4148 45.8895 14.2297 45.7573 14.1503C45.5986 14.071 45.4928 13.542 45.4928 13.013C45.4928 12.4576 45.3076 11.3203 45.096 10.4474C43.1917 3.20035 35.6008 -1.37536 28.3801 0.370285Z" fill="#2CD8B3"/>
<path d="M20.5512 30.9984C20.0752 31.7654 18.6204 34.0665 17.3509 36.1031C16.0549 38.1397 14.7324 40.0969 14.415 40.4672C13.4628 41.5252 12.9603 42.7419 12.9603 44.0379C12.9603 46.3125 14.706 48.5078 16.769 48.8516L17.7212 49.0103L16.6368 49.9361C16.0284 50.465 15.3672 51.285 15.182 51.761C14.4679 53.4538 14.8382 55.7813 16.0549 57.1831C16.3987 57.5534 16.3458 57.6328 15.6052 57.7915C13.8067 58.1882 11.9023 60.6744 11.9023 62.6846C11.9023 63.8219 12.6694 65.5146 13.5157 66.3081C15.0763 67.7364 14.6002 67.7099 34.9132 67.7099H53.7186L53.6392 66.5726C53.5599 65.4617 53.5599 65.4617 52.449 65.3824L51.3117 65.303V62.5259V59.7752H52.5019C53.4541 59.7752 53.6921 59.6958 53.6921 59.2991C53.6921 58.9288 53.9302 58.8494 55.0146 58.8759L56.337 58.9023V57.7386C56.337 56.6542 56.3106 56.6013 55.5436 56.6013H54.7501V53.8241V51.0469H55.5436C56.3106 51.0469 56.337 50.994 56.337 49.8567C56.337 48.6665 56.337 48.6665 55.4113 48.6665C54.512 48.6665 54.4856 48.64 54.4856 47.635C54.4856 46.8679 54.1153 45.8893 53.1631 44.1437C52.449 42.7948 51.8407 41.6574 51.8407 41.6045C51.8407 41.5781 52.5019 41.5252 53.2954 41.5252H54.7501V40.044V38.5893L51.1001 34.1194L47.4765 29.6495H34.4635L21.4505 29.6231L20.5512 30.9984ZM50.2008 44.223L50.2802 46.815H33.8023C21.2125 46.815 17.1657 46.7357 16.6632 46.4712C16.2929 46.2861 15.7904 45.7042 15.5259 45.1487C14.9705 44.0643 15.1556 42.9799 16.0549 42.0013C16.4516 41.5516 17.3244 41.5252 33.2998 41.5781L50.1215 41.6574L50.2008 44.223ZM52.3697 53.8241V56.6013H35.8389C17.6154 56.6013 18.1708 56.6542 17.298 54.9879C16.7161 53.8505 17.007 52.581 18.0121 51.7346L18.832 51.0469H35.6008H52.3697V53.8241ZM48.9313 62.5523V65.3295H32.374H15.8168L15.0498 64.5625C13.7273 63.2136 14.2299 60.7538 15.9755 60.0397C16.2665 59.9074 23.8309 59.8016 32.7443 59.8016L48.9313 59.7752V62.5523Z" fill="#005BDD"/>
</g>
<defs>
<clipPath id="clip0_2239_532">
<rect width="67.71" height="67.71" fill="white"/>
</clipPath>
</defs>
</svg>
