<svg width="68" height="68" viewBox="0 0 68 68" fill="none" xmlns="http://www.w3.org/2000/svg">
<path d="M26.1989 1.86469C25.3261 2.03661 24.6781 2.52592 24.2813 3.3194L23.9375 4.0203V8.51667C23.9375 11.3071 23.9904 13.2246 24.083 13.542C24.3739 14.5868 25.6567 15.4728 26.8998 15.4728H27.3759V17.4433V19.427L27.7197 19.6915C28.4735 20.2866 28.6719 20.1675 31.1449 17.721L33.4063 15.4728H37.3473C40.0847 15.4728 41.4601 15.4199 41.8436 15.3141C42.5445 15.1025 43.4438 14.2032 43.6289 13.542C43.7215 13.2246 43.7744 11.3203 43.7744 8.52989C43.7744 4.29802 43.748 3.99385 43.4967 3.43842C43.1661 2.69784 42.9148 2.42012 42.2536 2.06306C41.7378 1.78534 41.6188 1.78534 34.2527 1.75889C30.1398 1.74567 26.5163 1.79857 26.1989 1.86469Z" fill="#2CD8B3"/>
<path d="M14.9182 9.25715C12.2733 9.66711 9.90607 11.7302 9.08614 14.3486C8.63651 15.7769 8.68941 17.6548 9.23162 19.3079C9.72093 20.7758 10.3954 21.9792 11.2814 22.9578C11.8104 23.5397 11.903 23.7249 11.903 24.1877C11.903 25.4837 11.0566 26.502 9.48288 27.1104C8.88778 27.3352 8.12075 27.7055 7.79013 27.9171C6.90408 28.4857 5.91224 29.5834 5.42293 30.5488C4.8146 31.7522 4.62945 32.8102 4.62945 35.2038V37.2933H3.10862C1.77294 37.2933 1.56134 37.3198 1.3233 37.5578C0.939786 37.9413 0.913336 38.2058 0.95301 41.1814C0.992684 43.8924 0.992684 43.9321 1.31007 44.1833C1.56134 44.3817 1.82583 44.4346 2.72511 44.4346H3.83598V54.8688C3.83598 65.2105 3.83598 65.303 4.11369 65.6469L4.37818 65.9907H18.4359H32.4937L32.7714 65.6866L33.0624 65.3824V54.9085V44.4346H34.2394C35.3634 44.4346 35.4428 44.4214 35.6941 44.0908C35.9586 43.7602 35.9718 43.575 35.9718 40.9036C35.9718 37.8488 35.8924 37.4123 35.2841 37.2404C35.1122 37.2007 33.3004 37.1611 31.2506 37.1611H27.508V34.8732C27.508 33.2466 27.4551 32.3605 27.3097 31.8051C26.7542 29.7156 25.0086 27.8245 22.9323 27.0971C21.8876 26.7269 21.557 26.5417 21.147 26.0921C20.6841 25.6028 20.3932 25.0077 20.2874 24.3597C20.208 23.8571 20.2477 23.791 21.028 22.8653C23.4745 19.9294 24.1093 15.9356 22.5752 13.0262C22.0066 11.955 20.6312 10.5796 19.6262 10.0771C18.1318 9.32327 16.4258 9.03233 14.9182 9.25715ZM18.2905 11.8756C19.8245 12.6294 20.9089 14.0974 21.1999 15.7901C21.6098 18.1838 19.7981 21.6883 17.5896 22.8124C16.0687 23.5926 14.5744 23.1827 13.1064 21.6222C12.2336 20.6832 11.3872 19.0963 11.1095 17.8664C10.8582 16.7555 10.9905 15.3934 11.4798 14.3751C12.3923 12.4178 14.1776 11.3334 16.3597 11.4128C17.2457 11.4524 17.5763 11.5318 18.2905 11.8756ZM33.8558 40.7978V42.1864H18.5153H3.17474V40.7978V39.4093H18.5153H33.8558V40.7978Z" fill="#005BDD"/>
<path d="M49.3022 9.66706C47.6888 10.0374 46.1416 11.3334 45.3745 12.9468C44.9117 13.9386 44.8984 13.9783 44.8984 15.6049C44.8984 17.2051 44.9117 17.2844 45.3348 18.144C46.4193 20.379 48.4955 21.6882 50.9156 21.6882C52.5952 21.6882 54.0234 21.1063 55.1607 19.969C58.4404 16.7158 57.118 11.135 52.7539 9.77286C51.8943 9.50837 50.2015 9.45547 49.3022 9.66706ZM52.6084 12.0872C54.2615 12.9335 55.0814 14.6924 54.6846 16.5439C54.1953 18.8185 51.5372 20.1277 49.3551 19.1756C48.0062 18.5804 46.9483 17.0332 46.9483 15.6049C46.9483 14.8908 47.2921 13.8725 47.7417 13.2509C48.8129 11.7698 50.9685 11.254 52.6084 12.0872Z" fill="#005BDD"/>
<path d="M46.5117 23.553C45.4405 23.8042 44.8586 24.2671 41.9228 27.1897L38.9472 30.1388L35.2443 30.1785C31.7398 30.2182 31.515 30.2314 31.0125 30.5091C30.3909 30.8397 29.7429 31.501 29.4387 32.0961C28.9097 33.1408 29.3726 35.0319 30.338 35.7725C31.2637 36.4734 31.3827 36.4866 37.1487 36.4999H42.4914L43.7874 35.2171L45.0967 33.9343V36.8701V39.806H42.4121C39.7936 39.806 39.7143 39.8192 39.0398 40.1498C38.2728 40.5334 37.638 41.1946 37.2809 41.9748C37.0561 42.4906 37.0297 43.0593 37.0297 51.9462C37.0297 59.5636 37.0693 61.4547 37.2016 61.7985C37.8496 63.3194 39.6217 64.0864 41.3144 63.5839C41.6318 63.4913 42.1079 63.1607 42.465 62.8168C43.5097 61.8118 43.5097 61.8382 43.5097 53.996V47.2118H48.3235C52.6744 47.2118 53.2166 47.1853 53.9439 46.9605C55.8879 46.3522 57.422 44.7917 57.9907 42.8344C58.1758 42.1864 58.189 41.1549 58.1626 34.4368C58.1229 26.8856 58.1229 26.7665 57.832 26.1582C57.4088 25.2193 56.4698 24.2935 55.5044 23.8571L54.6845 23.4736L50.8494 23.4472C48.7467 23.4339 46.7894 23.4736 46.5117 23.553Z" fill="#005BDD"/>
<path d="M60.5025 32.0697L60.1719 32.3871V40.798V49.1956H53.229C46.5505 49.1956 46.2728 49.2088 46.0348 49.4468C45.8893 49.5923 45.7438 49.9626 45.6909 50.28C45.6513 50.5974 45.6248 53.8771 45.6513 57.5668L45.6909 64.2981L46.0612 64.6155C46.4183 64.9196 46.4976 64.9329 48.7194 64.9329C50.8353 64.9329 51.0337 64.9064 51.3643 64.6551L51.7081 64.3907V59.762V55.1467H56.2045H60.7009V59.6959C60.7009 63.9675 60.7141 64.2584 60.9521 64.5493C61.2034 64.8535 61.2695 64.8667 63.478 64.9064C65.9775 64.9593 66.4007 64.8667 66.6387 64.2981C66.7445 64.0468 66.7842 59.3918 66.7577 48.0979L66.7181 32.2416L66.4007 31.9904C66.123 31.7655 65.8585 31.7391 63.4516 31.7391C60.8331 31.7391 60.8199 31.7391 60.5025 32.0697Z" fill="#005BDD"/>
</svg>
