<svg width="68" height="68" viewBox="0 0 68 68" fill="none" xmlns="http://www.w3.org/2000/svg">
<g clip-path="url(#clip0_2510_3943)">
<path d="M63.9022 0.264404C63.3997 0.56857 62.7385 1.56042 62.5401 2.31422C62.4607 2.60516 62.4211 3.49121 62.4343 4.29791L62.4872 5.75262H60.7019C59.1017 5.75262 58.8636 5.77907 58.3611 6.05678C57.4883 6.51964 56.9064 7.10153 56.5097 7.90823C56.1658 8.62236 56.1394 8.76783 56.1394 10.4077V12.1533L55.8088 12.074C55.6236 12.0211 54.9095 11.9814 54.2218 11.9814C53.058 11.9682 52.8861 12.0079 52.0662 12.4046C51.5504 12.6691 51.0082 13.0658 50.7173 13.3964C49.8841 14.3618 49.5535 16.0943 49.8445 17.8664L49.937 18.4615L49.2097 18.3424C48.7997 18.2763 48.0195 18.2499 47.464 18.2895C45.6787 18.4086 44.5282 19.1756 43.7876 20.7625C43.4966 21.3841 43.457 21.675 43.457 22.7462C43.457 23.4339 43.4966 24.1613 43.5495 24.3464L43.6421 24.7035L42.2139 24.6241C41.1294 24.5845 40.6137 24.6109 40.0582 24.7696C38.1275 25.3383 37.2679 26.8326 38.0349 28.3138C38.4977 29.2263 39.8334 29.4908 40.9707 28.9089L41.5923 28.5783L42.9148 28.8296C45.6126 29.3453 46.9615 29.0412 47.5963 27.7848C48.0327 26.9384 48.0591 26.2111 47.7417 24.3993C47.5831 23.4868 47.4773 22.6537 47.5302 22.5479C47.6227 22.2834 48.2311 22.2966 49.5271 22.5611C51.0347 22.8785 52.4365 22.7859 53.1242 22.3231C53.9044 21.8073 54.2218 21.0667 54.2218 19.7575C54.2086 19.1888 54.1292 18.3292 54.0234 17.8531C53.7722 16.6894 53.7722 16.1472 54.0367 16.0414C54.1557 16.0017 54.8301 16.0678 55.531 16.2133C57.3693 16.5703 58.533 16.5307 59.2868 16.0943C59.6174 15.8959 60.0142 15.5256 60.1861 15.2611C60.5828 14.5999 60.6754 13.2245 60.3845 11.8492C60.12 10.5664 60.1068 9.79935 60.358 9.70678C60.4506 9.6671 61.2176 9.7729 62.0376 9.91837C64.5106 10.3945 65.833 10.0903 66.4942 8.88685C66.9571 8.0537 66.9968 7.16765 66.6529 5.32943L66.362 3.74248L66.7058 3.14737C67.3274 2.07618 67.0761 0.859512 66.0975 0.264404C65.5156 -0.0926602 64.4841 -0.0926602 63.9022 0.264404Z" fill="#2CD8B3"/>
<path d="M37.4266 1.57356C36.3951 2.11577 36.1835 2.90924 36.5802 4.76069C36.8844 6.1625 36.7653 8.62228 36.3289 10.315C35.6677 12.8674 34.2659 15.4329 32.3219 17.6282C30.6556 19.5326 30.4837 19.9293 30.8804 20.9608C31.1581 21.7014 31.7135 22.1114 32.5467 22.1907C33.4724 22.2833 33.8692 22.0585 35.0197 20.8286C38.1407 17.4828 40.0715 13.6212 40.6798 9.46865C41.0898 6.71793 40.6931 2.85635 39.926 2.0232C39.278 1.32229 38.2465 1.13715 37.4266 1.57356Z" fill="#005BDD"/>
<path d="M47.2401 5.7791C45.7854 6.49323 45.8251 8.75463 47.3062 9.41586C49.1048 10.2093 50.8108 8.50337 50.0173 6.70482C49.5677 5.68652 48.2849 5.26334 47.2401 5.7791Z" fill="#005BDD"/>
<path d="M27.6526 8.55632C26.1185 9.36303 26.1714 11.5848 27.7319 12.246C29.1073 12.8279 30.5488 11.8889 30.5488 10.421C30.5488 10.0639 30.4562 9.60107 30.3504 9.38947C29.8875 8.50343 28.5386 8.08024 27.6526 8.55632Z" fill="#005BDD"/>
<path d="M20.4056 20.8817C18.9112 24.7301 18.25 28.3139 18.25 32.4665C18.25 39.5813 20.3924 45.9423 24.7036 51.695C25.8806 53.2688 28.1949 55.7021 29.5967 56.8394L30.4299 57.5271L31.2498 57.2097C31.6994 57.0378 33.4847 56.3766 35.2172 55.7286C36.9364 55.0805 38.3514 54.4854 38.3514 54.4061C38.3514 54.3267 38.1927 54.1284 38.0076 53.9432C37.8092 53.7713 37.148 53.0175 36.5264 52.2637C33.3261 48.3624 30.8002 43.4032 29.557 38.5498C28.7239 35.2701 28.4329 32.9425 28.4329 29.2926V26.7799L24.7565 23.1034C22.7464 21.0933 21.0668 19.4402 21.0272 19.4402C20.9875 19.4402 20.7098 20.0882 20.4056 20.8817Z" fill="#005BDD"/>
<path d="M61.2051 19.8501C59.8165 20.5774 59.8827 22.7198 61.2977 23.4075C61.9854 23.7381 62.4615 23.7381 63.1624 23.3943C64.1674 22.9182 64.551 21.6222 63.9955 20.6303C63.4401 19.6517 62.2102 19.3078 61.2051 19.8501Z" fill="#005BDD"/>
<path d="M59.3797 27.6527C57.039 27.9436 54.1825 28.8826 52.1194 30.0464C49.9506 31.2895 46.8693 33.7757 46.4064 34.675C45.7055 36.0636 46.6709 37.6902 48.2049 37.6902C48.8794 37.6902 49.3819 37.386 50.5589 36.2884C52.8468 34.146 55.7694 32.5855 58.7582 31.9243C60.0806 31.6201 62.8446 31.6201 64.1538 31.911C65.2779 32.1623 65.8201 32.083 66.3623 31.5804C67.4071 30.6018 67.2484 28.9752 66.0449 28.2743C65.106 27.7188 61.4824 27.3882 59.3797 27.6527Z" fill="#005BDD"/>
<path d="M14.2961 28.8561C14.2432 29.028 12.7753 32.9293 11.0561 37.5314L7.92188 45.8894L8.25249 47.0796C9.33691 50.8089 11.3338 54.697 13.7672 57.7518C14.6532 58.8627 15.4731 59.7488 17.0998 61.3489L17.9726 62.1953L21.9796 60.7009C24.1881 59.881 26.0396 59.1537 26.1057 59.1008C26.1851 59.0346 25.5371 58.2808 24.5849 57.3022C22.6012 55.2656 21.7945 54.287 20.3001 52.0388C17.9197 48.4814 16.0682 44.0644 15.1425 39.7399C14.5606 37.0157 14.4813 36.0635 14.4813 32.2283C14.4813 30.2182 14.4681 28.5651 14.4416 28.5651C14.4284 28.5651 14.3623 28.6974 14.2961 28.8561Z" fill="#2CD8B3"/>
<path d="M32.2695 31.3953C32.2695 32.1887 32.6134 34.8601 32.8779 36.1032C34.121 42.0543 37.0304 47.4896 41.3019 51.8802C42.3864 52.991 42.4393 53.0307 42.8095 52.8852C43.0079 52.8059 44.37 52.3034 45.8248 51.7479C47.2795 51.2057 48.6019 50.6767 48.7738 50.5709C49.488 50.1081 49.7921 48.9575 49.4483 48.045C49.3293 47.7012 32.5869 30.8134 32.3753 30.8134C32.3092 30.8134 32.2695 31.0779 32.2695 31.3953Z" fill="#005BDD"/>
<path d="M58.9438 39.277C58.0577 39.4357 57.3965 40.2953 57.3965 41.2871C57.3965 42.4245 58.2561 43.2444 59.4463 43.2444C60.3059 43.2444 60.901 42.8741 61.2316 42.1467C61.549 41.4458 61.5622 41.0755 61.2448 40.3746C60.8481 39.515 59.9885 39.1051 58.9438 39.277Z" fill="#005BDD"/>
<path d="M3.20123 58.4792C1.52171 62.9623 0.662109 65.4353 0.662109 65.7659C0.662109 66.3478 0.900152 66.8503 1.37624 67.3C1.64073 67.5512 1.90522 67.6438 2.48711 67.6835C3.18801 67.7232 3.57152 67.6041 8.5043 65.7527C11.4005 64.6551 13.8074 63.7293 13.847 63.6897C13.8867 63.65 13.49 63.1607 12.961 62.592C10.3557 59.7752 8.54398 57.1435 6.97025 53.9299C6.37514 52.7132 5.84616 51.7214 5.80648 51.7214C5.76681 51.7082 4.58982 54.7631 3.20123 58.4792Z" fill="#005BDD"/>
</g>
<defs>
<clipPath id="clip0_2510_3943">
<rect width="67.71" height="67.71" fill="white"/>
</clipPath>
</defs>
</svg>
