<svg width="70" height="70" viewBox="0 0 70 70" fill="none" xmlns="http://www.w3.org/2000/svg">
<g clip-path="url(#clip0_2239_514)">
<path d="M14.3838 5.68512C12.2783 6.04059 9.68065 7.46246 7.98534 9.21246L6.45409 10.7711L4.75878 10.2242C2.10643 9.34918 2.07909 9.43121 2.27049 14.8179C2.35253 17.2242 2.57128 19.9586 2.73534 20.8882L3.06346 22.5836L2.10643 23.4312C-0.764661 25.9468 -0.108412 30.3218 3.39159 32.0445C4.23924 32.4547 4.92284 32.9468 4.92284 33.1382C4.92284 33.3297 5.36034 34.314 5.87987 35.3531C6.8369 37.2945 8.1494 38.8804 9.84471 40.1929L10.8017 40.9312H9.16112C6.20799 40.9312 3.44628 42.8179 2.70799 45.3062C2.54393 45.8531 2.4619 48.5328 2.51659 51.732L2.59862 64.4785H4.23924C5.87987 64.4785 5.87987 64.4785 5.87987 63.6582C5.87987 63.0293 5.74315 62.8379 5.19628 62.7012L4.51268 62.5371L4.43065 51.3218C4.32128 46.4273 4.43065 45.8257 5.63378 44.4859C6.67284 43.3648 8.17674 42.8453 10.4736 42.8453C11.5947 42.8453 11.6767 42.9 12.0049 43.857C12.5791 45.4976 13.6455 46.6734 15.1494 47.3843C18.458 48.9156 21.958 47.6031 23.4346 44.2672L24.0908 42.7632L26.1689 42.9547C28.6299 43.1461 29.8603 43.8023 30.626 45.3336C31.1181 46.2359 31.1728 46.9468 31.1728 50.9117V62.7012H20.2627C15.8355 62.7012 13.048 62.7051 11.3313 62.7805C8.49952 62.9049 3.19712 63.4697 3.63974 64.2869C3.80785 64.6078 9.31792 64.5035 11.4153 64.566C13.0706 64.6152 15.9539 64.6152 21.0557 64.6152C32.376 64.6152 32.8135 64.5879 33.0869 64.0957C33.415 63.4395 33.4424 47.5211 33.1142 46.0992L32.8955 45.1148L34.5635 44.9507C35.4931 44.8687 36.4502 44.7047 36.7236 44.6226C37.1611 44.4312 37.1611 44.5132 36.7783 45.5797C36.2588 47.0836 36.1767 63.7676 36.6963 64.2871C37.1611 64.752 64.2861 64.752 64.751 64.2871C65.2705 63.7676 65.1885 46.6734 64.6689 45.4156C64.2861 44.4859 64.2861 44.4312 64.7236 44.6226C65.5166 44.9234 68.5244 45.1148 69.29 44.9234L70.001 44.7593V40.0562C70.001 34.5875 69.7549 33.7672 67.54 31.8531L66.2275 30.732L66.3642 29.2828C66.4736 28.189 66.3916 27.5875 65.9541 26.6578C65.5166 25.7281 65.3799 24.7984 65.2978 22.064C65.1885 18.3453 64.833 17.0601 63.7939 16.9234C62.8642 16.7867 62.5908 17.607 63.0556 19.3297C63.2744 20.15 63.4385 21.5445 63.4385 22.4195V24.0054L59.3642 23.9234C55.3174 23.8414 55.2627 23.8414 54.1142 23.0211C52.8017 22.0914 52.0361 20.8062 51.7353 19.0289C51.5439 17.9351 51.4619 17.8257 50.7236 17.8257C50.0127 17.8257 49.9306 17.9351 49.6299 19.1929C49.083 21.6265 47.9892 22.9664 45.9658 23.65C45.4463 23.8414 43.5049 23.9781 41.5361 23.9781H38.0088V22.2554C38.0088 17.6617 40.415 13.7789 44.4072 11.7828C46.7314 10.6617 49.7666 10.1695 49.7666 10.9351C49.7666 11.7007 50.8877 11.8101 51.4619 11.1265C51.9267 10.5523 52.1181 10.525 53.54 10.689C55.5361 10.9078 57.9971 12.0836 59.8291 13.6968C61.0322 14.7359 61.3877 14.9 61.8252 14.6812C62.6455 14.2164 62.4541 13.4234 61.1963 12.2203C58.626 9.73199 55.8642 8.66559 51.5439 8.52887C46.4306 8.36481 43.1221 9.43121 40.2236 12.2203C37.2705 15.064 36.0947 17.9898 35.9306 22.8023C35.8213 26.5757 35.5478 27.2593 34.8916 25.5367C34.6455 24.8804 34.1806 24.0875 33.9072 23.8414C33.4424 23.4312 33.3603 22.9937 33.3603 21.1343C33.3603 17.7164 32.9228 15.6109 31.7197 13.15C29.9424 9.51324 26.6611 6.83356 22.6689 5.79449C21.083 5.35699 16.5986 5.30231 14.3838 5.68512ZM21.0557 7.57184C25.8135 8.33746 29.833 12.0289 30.8721 16.6226C31.0361 17.2789 31.1728 18.8101 31.1728 20.0132V22.2007L22.7783 22.064L14.3564 21.9273L13.0439 21.1617C11.7041 20.3687 10.2549 18.5093 9.92674 17.1422C9.35253 14.6812 7.60253 15.7203 5.77049 19.5757C4.78612 21.6812 4.67674 21.4078 4.45799 16.1304L4.29393 12.2476L5.87987 12.6851L7.49315 13.15L8.04003 12.357C10.583 8.82965 13.2353 7.54449 18.458 7.32574C18.9228 7.32574 20.0713 7.43512 21.0557 7.57184ZM10.2275 21.4351C10.8017 22.0914 11.9775 22.939 12.8252 23.3492L14.3564 24.1148L22.4228 24.1968C26.8525 24.2242 30.7353 24.3062 31.0635 24.3882C31.3642 24.4429 31.9385 24.8257 32.3213 25.2086C34.208 27.0953 33.0049 30.0484 30.1338 30.5132C29.2041 30.6773 29.1494 30.732 28.5205 32.7281C27.4541 36.2554 24.8017 38.9898 21.3564 40.1382C18.8135 40.9859 15.5596 40.7945 13.0986 39.6461C9.8994 38.1695 8.12206 36.0914 6.94628 32.4547C6.3994 30.814 6.29003 30.6773 5.44237 30.5132C3.41893 30.1851 2.4619 29.1461 2.4619 27.314C2.4619 26.3023 2.62596 25.9468 3.39159 25.1812C4.02049 24.5523 4.56737 24.2515 5.14159 24.2515C6.15331 24.2515 6.45409 23.8961 7.00096 22.0367C7.24706 21.2164 7.62987 20.2047 7.90331 19.7945L8.34081 19.0289L8.75096 19.6578C8.96971 20.0132 9.62596 20.8062 10.2275 21.4351ZM54.3056 25.482C55.0439 25.8101 56.5205 26.0015 59.0635 26.0836C61.0869 26.1656 62.9736 26.357 63.2471 26.4937C63.5205 26.6304 63.9306 27.1773 64.1494 27.7242C64.8877 29.4468 63.7119 31.3609 61.9619 31.3609C61.1416 31.3609 60.4306 32.0172 60.4306 32.8101C60.4306 33.7672 59.2275 36.0367 57.9971 37.4312C57.2861 38.2242 56.165 39.0718 55.0166 39.6187C53.376 40.439 52.9658 40.5211 50.7236 40.5211C48.6455 40.5211 48.0166 40.4117 46.7041 39.7828C45.8564 39.4 44.5986 38.5523 43.915 37.9234C42.7119 36.8297 41.0166 33.9312 41.0166 33.0289C41.0166 32.1812 40.1963 31.3609 39.3486 31.3609C37.7353 31.3609 36.5322 29.3648 37.1885 27.7789C37.7627 26.439 38.3642 26.2203 42.2471 26.1109C46.376 25.9468 47.9072 25.4547 49.6299 23.7047L50.6963 22.6382L51.9814 23.8414C52.6924 24.4976 53.7314 25.2359 54.3056 25.482ZM33.6885 32.1265C31.583 34.1773 31.1728 35.3804 31.1728 39.482V42.5992L30.4346 42.0797C29.2861 41.314 28.7666 41.15 26.7158 40.9586L24.8564 40.7945L26.1689 39.8101C27.7275 38.6617 29.2861 36.5015 30.1885 34.2593C30.7627 32.8375 30.9814 32.6187 32.2119 32.0445C33.0869 31.6343 33.8525 31.0328 34.2353 30.4312C34.8096 29.5562 34.8916 29.5289 35.0556 30.0211C35.2197 30.4586 34.9463 30.8961 33.6885 32.1265ZM37.0517 32.7281C37.1338 32.8648 37.5986 33.0836 38.0635 33.2203C38.7197 33.3843 38.9931 33.6851 39.4033 34.7789C41.0166 38.9898 38.5556 42.8453 34.29 42.8453H33.0322L33.1416 39.482C33.2236 36.4468 33.3056 36.0093 33.9892 34.8609C34.3721 34.1773 35.1103 33.357 35.6025 33.0289C36.6142 32.4 36.8056 32.3453 37.0517 32.7281ZM66.2002 33.4664C67.8408 34.9429 68.0869 35.7359 68.0869 39.564V42.8453H66.9385C64.3681 42.8179 62.0713 40.9312 61.4971 38.3336C61.2236 37.0757 61.251 36.7476 61.7978 35.2437C62.3447 33.7398 62.5635 33.4664 63.5478 33.0289C64.1767 32.7281 64.751 32.482 64.8603 32.482C64.9971 32.4547 65.5986 32.9195 66.2002 33.4664ZM44.7353 41.3961C44.5713 41.4234 43.6142 41.4781 42.6299 41.5328L40.8252 41.6422L41.3994 40.3843L41.9736 39.1265L43.5049 40.2203C44.3252 40.8492 44.8994 41.3687 44.7353 41.3961ZM60.5947 41.6148C60.5674 41.6148 59.6103 41.5875 58.4619 41.5328L56.3291 41.4234L57.8877 40.2476L59.4463 39.0718L60.0478 40.357C60.3486 41.0406 60.6221 41.6148 60.5947 41.6148ZM16.6807 42.7359C17.665 42.8179 19.1963 42.7632 20.0713 42.5992C20.9736 42.4351 21.7392 42.3531 21.8213 42.4078C22.04 42.6539 21.5205 43.7476 20.7275 44.65C18.6767 46.9742 14.8213 46.1265 13.9463 43.1461C13.7002 42.2984 13.7275 42.2437 14.3017 42.4078C14.6299 42.4898 15.6963 42.6539 16.6807 42.7359ZM54.1416 43.4742C54.1416 45.4703 52.6924 46.9468 50.7236 46.9468C48.7549 46.9468 47.3056 45.4703 47.3056 43.4742V42.4351H50.7236H54.1416V43.4742ZM45.3369 44.9507C46.1025 47.7672 49.2197 49.5445 52.0908 48.8336C53.8955 48.3687 55.6181 46.7007 56.0556 44.9507L56.3838 43.6656H58.2978C60.5127 43.6656 61.5244 44.1304 62.4267 45.5797C62.9736 46.4547 63.0283 46.8922 63.0283 50.9117V62.5645H50.7236H38.4189L38.3369 52.1422C38.2002 47.6031 38.4189 46.2906 39.458 45.1148C40.5244 43.8843 41.0166 43.6929 43.2041 43.6929L45.0088 43.6656L45.3369 44.9507Z" fill="#005BDD"/>
<path d="M10.9941 26.4937C10.5019 26.9859 10.5839 29.5836 11.1035 30.1031C12.0332 31.0601 12.8535 30.2125 12.8535 28.2437C12.8535 26.7945 12.5254 26.1656 11.7597 26.1656C11.5136 26.1656 11.1855 26.3023 10.9941 26.4937Z" fill="#005BDD"/>
<path d="M23.0254 26.4937C22.5332 26.9859 22.6152 29.5836 23.1347 30.1031C24.0644 31.0601 24.8847 30.2125 24.8847 28.2437C24.8847 26.7945 24.5566 26.1656 23.791 26.1656C23.5449 26.1656 23.2168 26.3023 23.0254 26.4937Z" fill="#005BDD"/>
<path d="M14.5471 32.5094C14.0549 33.0015 14.137 34.1226 14.7659 35.107C15.9963 37.1578 18.8127 37.4039 20.426 35.6265C21.0823 34.9156 21.3284 34.3961 21.3284 33.7125C21.3284 31.8804 19.8245 31.7164 19.3596 33.5211C19.0315 34.7242 17.9377 35.1344 16.9807 34.4234C16.5705 34.1226 16.2151 33.6578 16.1604 33.3844C15.969 32.2906 15.176 31.8804 14.5471 32.5094Z" fill="#005BDD"/>
<path d="M43.6698 27.7242C43.3143 28.0524 43.4784 29.2008 43.8885 29.3375C44.1073 29.4469 44.2987 29.8297 44.2987 30.2399C44.2987 30.65 44.4354 31.1149 44.6268 31.3063C45.4471 32.1266 46.4862 31.2516 46.4862 29.693C46.4862 28.0524 46.1034 27.5328 44.8729 27.5328C44.2987 27.5328 43.7518 27.6149 43.6698 27.7242Z" fill="#005BDD"/>
<path d="M55.2903 27.861C54.8802 28.2711 54.8528 30.3766 55.2357 31.1149C55.8099 32.1266 57.1497 31.5797 57.1497 30.3219C57.1497 29.9391 57.3411 29.5016 57.5872 29.3102C57.9153 29.0915 57.9974 28.7633 57.8607 28.2711C57.7239 27.6422 57.5325 27.5329 56.6575 27.5329C56.0833 27.5329 55.4818 27.6696 55.2903 27.861Z" fill="#005BDD"/>
<path d="M47.6336 33.3296C46.4305 34.5327 48.618 37.3765 50.7508 37.3765C52.0086 37.3765 53.4032 36.3374 53.8407 34.9976C54.1961 34.0405 54.1961 33.7944 53.868 33.4116C53.4305 32.8921 52.5008 32.9741 52.2274 33.5483C51.5985 34.8882 51.4344 35.0522 50.6961 35.0522C50.0399 35.0522 49.8211 34.8608 49.4383 34.0132C48.9188 32.9741 48.2625 32.7007 47.6336 33.3296Z" fill="#005BDD"/>
<path d="M45.7067 9.94925L39.5303 14.8904L38.295 17.7728L37.0597 22.714L37.8832 24.7728H45.7067L49.4126 22.714L50.6479 18.5963L52.7067 22.714L56.0009 24.7728H64.2362L64.6479 19.4198C63.9891 14.1492 59.9813 11.7336 58.0597 11.1845L45.7067 9.94925Z" fill="#005BDD"/>
<path d="M68.3538 35.0669L65.8832 31.7728C64.9224 32.0473 62.8362 32.5963 62.1773 32.5963C61.5185 32.5963 60.8048 34.2434 60.5303 35.0669V38.361L63.0009 42.8904L68.3538 44.1257L69.5891 42.0669L68.3538 35.0669Z" fill="#005BDD"/>
<path d="M38.295 42.8904L40.7656 37.1257L38.7067 32.1845L36.2361 31.7728L34.589 32.5963L32.1185 35.8904C32.2558 37.812 32.4479 41.7375 32.1185 42.0669C31.7891 42.3963 32.5303 43.5767 32.942 44.1257L38.295 42.8904Z" fill="#005BDD"/>
<path d="M32.1185 63.7564H11.5236H7.0008H3.70669V61.6976L4.11845 47.4198L4.24581 44.2731L9.05963 42.0669L12.3537 42.8904L14.0008 45.7728L16.8832 47.0081L19.7655 46.1845L23.4714 42.8904L26.7655 41.6551L32.1185 44.9492V63.7564Z" fill="#005BDD"/>
<path d="M39.942 43.7139L44.8832 42.0669L46.942 45.7728L48.589 47.4198L51.0596 47.8316L54.3537 47.0081L55.1773 42.8904L57.2361 42.0669L61.3537 42.8904L63.0009 44.9492L64.2362 60.0505L63.0009 63.7564H39.942L37.0597 62.5211V46.1845L39.942 43.7139Z" fill="#005BDD"/>
<path d="M7.0008 12.4198L3.70669 11.1845L3.29492 15.3022L4.11845 21.8904L5.35375 22.714L7.0008 19.4198L8.64786 16.5375L10.2949 19.4198L14.0008 22.714H32.1185L31.2949 14.8904L28.4126 11.1845L24.7067 8.30219L19.3537 7.06689L12.3537 7.89042L7.0008 12.4198Z" fill="#005BDD"/>
<path d="M45.7067 9.94925L39.5303 14.8904L38.295 17.7728L37.0597 22.714L37.8832 24.7728H45.7067L49.4126 22.714L50.6479 18.5963L52.7067 22.714L56.0009 24.7728H64.2362L64.6479 19.4198C63.9891 14.1492 59.9813 11.7336 58.0597 11.1845L45.7067 9.94925Z" stroke="#005BDD"/>
<path d="M68.3538 35.0669L65.8832 31.7728C64.9224 32.0473 62.8362 32.5963 62.1773 32.5963C61.5185 32.5963 60.8048 34.2434 60.5303 35.0669V38.361L63.0009 42.8904L68.3538 44.1257L69.5891 42.0669L68.3538 35.0669Z" stroke="#005BDD"/>
<path d="M38.295 42.8904L40.7656 37.1257L38.7067 32.1845L36.2361 31.7728L34.589 32.5963L32.1185 35.8904C32.2558 37.812 32.4479 41.7375 32.1185 42.0669C31.7891 42.3963 32.5303 43.5767 32.942 44.1257L38.295 42.8904Z" stroke="#005BDD"/>
<path d="M32.1185 63.7564H11.5236H7.0008H3.70669V61.6976L4.11845 47.4198L4.24581 44.2731L9.05963 42.0669L12.3537 42.8904L14.0008 45.7728L16.8832 47.0081L19.7655 46.1845L23.4714 42.8904L26.7655 41.6551L32.1185 44.9492V63.7564Z" stroke="#005BDD"/>
<path d="M39.942 43.7139L44.8832 42.0669L46.942 45.7728L48.589 47.4198L51.0596 47.8316L54.3537 47.0081L55.1773 42.8904L57.2361 42.0669L61.3537 42.8904L63.0009 44.9492L64.2362 60.0505L63.0009 63.7564H39.942L37.0597 62.5211V46.1845L39.942 43.7139Z" stroke="#005BDD"/>
<path d="M7.0008 12.4198L3.70669 11.1845L3.29492 15.3022L4.11845 21.8904L5.35375 22.714L7.0008 19.4198L8.64786 16.5375L10.2949 19.4198L14.0008 22.714H32.1185L31.2949 14.8904L28.4126 11.1845L24.7067 8.30219L19.3537 7.06689L12.3537 7.89042L7.0008 12.4198Z" stroke="#005BDD"/>
<rect x="2.59961" y="59.7" width="30.7" height="5" fill="#2CD8B3"/>
<rect x="36.4004" y="59.7" width="28.7" height="5" fill="#2CD8B3"/>
</g>
<defs>
<clipPath id="clip0_2239_514">
<rect width="70" height="70" fill="white"/>
</clipPath>
</defs>
</svg>
