<svg width="68" height="68" viewBox="0 0 68 68" fill="none" xmlns="http://www.w3.org/2000/svg">
<g clip-path="url(#clip0_2239_490)">
<path d="M31.8726 0.823438C30.3054 1.59375 29.6148 2.68281 29.482 4.54219C29.2695 7.46406 31.0492 9.42969 33.9445 9.42969C36.8398 9.42969 38.6195 7.46406 38.407 4.54219C38.2742 2.68281 37.4773 1.46094 35.9632 0.770313C34.5289 0.132812 33.2804 0.132812 31.8726 0.823438Z" fill="#005BDD"/>
<path d="M11.8176 9.11094C9.55982 9.82812 8.09888 12.3781 8.70982 14.6094C9.26763 16.7078 10.9942 18.0625 13.0926 18.0625C15.6692 18.0625 17.4754 16.4422 17.6879 13.9187C17.7676 13.0953 17.6614 12.1391 17.4754 11.6875C17.0239 10.5984 15.5895 9.37656 14.3676 9.05781C13.1723 8.7125 13.1192 8.7125 11.8176 9.11094Z" fill="#005BDD"/>
<path d="M53.2543 9.16407C51.2621 9.8547 50.1465 11.3953 50.1465 13.4141C50.1465 15.9906 51.7668 17.7969 54.2902 18.0094C56.0168 18.1422 57.0527 17.7703 58.1152 16.575C60.3996 13.9719 59.1777 9.88126 55.8574 9.05782C54.4496 8.71251 54.5027 8.71251 53.2543 9.16407Z" fill="#005BDD"/>
<path d="M27.9402 12.6703C27.6215 13.3343 27.409 14.4765 27.3559 15.8843L27.2496 18.089L25.8152 16.7343C24.4605 15.4593 22.9996 14.6093 22.1496 14.6093C21.9371 14.6093 21.698 14.9812 21.5918 15.4593C20.9809 18.3812 18.0855 21.2765 15.1637 21.914C14.659 22.0203 14.2871 22.2593 14.2871 22.4718C14.2871 23.3218 15.1371 24.7828 16.4387 26.164L17.8199 27.6249H15.9074C14.5262 27.6249 13.5965 27.7843 12.6668 28.1828C11.9496 28.5015 11.3652 28.8203 11.3652 28.8734C11.3652 28.9531 11.5777 29.3249 11.8699 29.6968C12.6137 30.7859 13.2246 32.8046 13.2246 34.2656C13.2246 35.7265 12.6137 37.7453 11.8699 38.8343C11.5777 39.2062 11.3652 39.5781 11.3652 39.6578C11.3652 39.7109 11.9496 40.0296 12.6668 40.3484C13.5965 40.7468 14.5262 40.9062 15.9074 40.9062H17.8199L16.4387 42.3671C15.1371 43.7484 14.2871 45.2093 14.2871 46.0593C14.2871 46.2718 14.659 46.5109 15.1637 46.6171C18.059 47.2281 20.9543 50.1234 21.5918 53.0718C21.698 53.5499 21.9371 53.9218 22.1496 53.9218C22.9996 53.9218 24.4605 53.0718 25.8418 51.7702L27.3027 50.389L27.3293 52.3546C27.3293 54.214 27.5949 55.2765 28.259 56.4187C28.5512 56.9234 28.5777 56.9234 29.3215 56.3921C31.8715 54.5859 36.0152 54.5859 38.5652 56.3921C39.309 56.9234 39.3355 56.9234 39.6277 56.4187C40.2918 55.2765 40.5574 54.214 40.5574 52.3546L40.584 50.389L42.0449 51.7702C43.4262 53.0718 44.8871 53.9218 45.7371 53.9218C45.9496 53.9218 46.1887 53.5499 46.2949 53.0718C46.9324 50.1234 49.8277 47.2281 52.7496 46.6171C53.2277 46.5109 53.5996 46.2718 53.5996 46.0593C53.5996 45.2093 52.7496 43.7484 51.448 42.3671L50.0668 40.9062L52.0324 40.8796C53.8918 40.8796 54.9543 40.614 56.0965 39.9499C56.6012 39.6578 56.6012 39.6312 56.0699 38.8874C54.2637 36.3374 54.2637 32.1937 56.0699 29.6437C56.6012 28.8999 56.6012 28.8734 56.0965 28.5812C54.9543 27.9171 53.8918 27.6515 52.0324 27.6515L50.0668 27.6249L51.448 26.164C52.7496 24.7828 53.5996 23.3218 53.5996 22.4718C53.5996 22.2593 53.2277 22.0203 52.7496 21.914C49.8277 21.3031 46.9324 18.4078 46.2949 15.4593C46.1887 14.9812 45.9496 14.6093 45.7371 14.6093C44.8871 14.6093 43.4262 15.4593 42.0449 16.7609L40.584 18.1421L40.5574 16.1765C40.5574 14.3171 40.2918 13.2546 39.6277 12.1124C39.3355 11.6078 39.309 11.6078 38.5652 12.139C36.0418 13.9453 31.8715 13.9453 29.3746 12.1921C29.0027 11.8999 28.6309 11.6874 28.5512 11.6874C28.4715 11.6874 28.2059 12.139 27.9402 12.6703ZM37.9809 17.5046C41.2746 18.3546 43.6121 19.6828 46.0559 22.1531C51.5277 27.6249 52.723 35.2484 49.1902 42.2609C47.8355 44.9703 44.648 48.1578 41.9387 49.5124C34.9262 53.0452 27.3027 51.8499 21.8309 46.3781C14.9512 39.4984 14.9512 29.0328 21.8309 22.1531C26.2137 17.7437 32.2168 16.0437 37.9809 17.5046Z" fill="#005BDD"/>
<path d="M30.5713 21.3829C28.3667 21.9938 26.5338 23.0563 24.7542 24.7563C20.4776 28.847 19.4417 35.0892 22.151 40.4548C23.0542 42.2345 25.976 45.1563 27.7557 46.0595C31.687 48.0251 36.2026 48.0251 40.1338 46.0595C41.9135 45.1563 44.8354 42.2345 45.7385 40.4548C47.7041 36.5501 47.7041 32.0079 45.7651 28.1563C44.8088 26.2704 42.2057 23.6142 40.3729 22.6313C37.3979 21.0376 33.6526 20.5595 30.5713 21.3829Z" fill="#2CD8B3"/>
<path d="M3.55651 29.8032C2.12213 30.122 1.13932 30.8923 0.475256 32.3001C-1.01224 35.3548 1.16588 38.8345 4.59244 38.8345C8.01901 38.8345 10.1971 35.3548 8.70963 32.3001C7.75338 30.3079 5.76119 29.3251 3.55651 29.8032Z" fill="#005BDD"/>
<path d="M62.2598 29.8033C59.0988 30.4674 57.691 34.133 59.5238 36.8955C61.2238 39.4455 65.3145 39.4721 67.041 36.9486C67.891 35.6736 67.9442 33.0439 67.1473 31.7424C66.1645 30.1486 64.2254 29.3783 62.2598 29.8033Z" fill="#005BDD"/>
<path d="M10.9412 50.9734C7.14272 53.2844 8.07241 58.5437 12.5083 59.6062C14.1818 60.0047 16.7583 58.5703 17.4755 56.8437C18.3255 54.7719 17.2365 51.85 15.2708 50.8937C14.0224 50.3094 11.9771 50.3359 10.9412 50.9734Z" fill="#005BDD"/>
<path d="M52.59 50.9205C51.2087 51.5845 50.3322 52.9392 50.1994 54.6126C50.0665 56.3392 50.4384 57.3751 51.6337 58.4376C54.3962 60.8548 58.4072 59.4205 59.2837 55.7017C59.6556 54.0814 58.4337 51.7173 56.7603 50.8673C55.7775 50.3361 53.679 50.3626 52.59 50.9205Z" fill="#005BDD"/>
<path d="M31.8726 59.5266C30.3054 60.2969 29.6148 61.386 29.482 63.2454C29.3491 65.1047 29.907 66.4329 31.2616 67.3625C32.6163 68.2922 35.2726 68.2922 36.6273 67.3625C37.9819 66.4329 38.5398 65.1047 38.4069 63.2454C38.2741 61.386 37.4773 60.1641 35.9632 59.4735C34.5288 58.836 33.2804 58.836 31.8726 59.5266Z" fill="#005BDD"/>
</g>
<defs>
<clipPath id="clip0_2239_490">
<rect width="68" height="68" fill="white"/>
</clipPath>
</defs>
</svg>
