<svg width="68" height="68" viewBox="0 0 68 68" fill="none" xmlns="http://www.w3.org/2000/svg">
<path fill-rule="evenodd" clip-rule="evenodd" d="M28.3151 25.335C25.2224 27.1444 22.5603 28.7541 22.3992 28.912L22.1062 29.1992L22.0754 46.5996L22.0445 63.9999H24.6829H27.3212V58.5381C27.3212 53.9337 27.3504 52.9633 27.507 52.3562C28.1354 49.9206 30.2122 47.9273 32.6535 47.417C33.6887 47.2006 34.3154 47.2008 35.3489 47.4177C37.726 47.9169 39.6589 49.66 40.3907 51.9645L40.6811 52.8788V58.4394V63.9999H43.3195H45.9578L45.927 46.6641C45.8964 29.4637 45.8943 29.3257 45.6589 29.0104C45.5168 28.8202 43.1418 27.3583 39.7425 25.3689C36.6191 23.5408 34.0353 22.0452 34.0008 22.0452C33.9664 22.0452 31.4077 23.5255 28.3151 25.335ZM35.5733 30.1288C36.8235 30.4487 37.5536 30.8713 38.5131 31.8307C39.7056 33.0233 40.4426 34.7243 40.4426 36.284C40.4426 37.7994 39.6661 39.675 38.5833 40.7747C37.3072 42.0707 35.8091 42.6914 33.9691 42.6862C32.1323 42.6811 30.6069 42.0163 29.2971 40.6502C28.321 39.6322 27.5597 37.719 27.5597 36.284C27.5597 34.7532 28.2903 33.0338 29.4307 31.881C30.344 30.9579 31.2207 30.4387 32.3794 30.1352C33.4942 29.8432 34.449 29.8414 35.5733 30.1288ZM33.1892 33.5493C31.7027 33.9763 30.8078 35.6105 31.2422 37.1048C31.6115 38.3751 32.6613 39.1552 34.0012 39.1552C35.341 39.1552 36.3908 38.3751 36.7601 37.1048C37.3874 34.947 35.3581 32.9265 33.1892 33.5493ZM11.4568 36.796C5.58022 38.7637 4.51623 39.1542 4.2788 39.4302L4 39.7543V51.8771V63.9999H11.2659H18.5318V49.2337C18.5318 41.1123 18.4922 34.4718 18.4439 34.4768C18.3956 34.4818 15.2514 35.5255 11.4568 36.796ZM49.4705 49.2212V63.9999H56.7364H64.0023V51.8724V39.7449L63.6801 39.4021C63.403 39.1074 62.4047 38.7433 56.5607 36.8048C52.8222 35.5648 49.6976 34.526 49.617 34.4964C49.5003 34.4534 49.4705 37.4476 49.4705 49.2212ZM12.2217 42.6419C12.8167 42.9933 13.0238 43.5676 13.0238 44.8669C13.0238 46.1356 12.8716 46.532 12.1909 47.0359C11.7832 47.3379 10.9405 47.3469 10.4415 47.0548C9.7512 46.6506 9.57131 46.282 9.52514 45.1776C9.47088 43.8813 9.56112 43.4552 9.99449 42.9617C10.5611 42.3164 11.4534 42.1883 12.2217 42.6419ZM57.7704 42.7504C58.3705 43.2081 58.5217 43.6925 58.4753 45.0065C58.4309 46.2642 58.2199 46.7228 57.5183 47.0856C57.0176 47.3445 56.1958 47.3206 55.8114 47.0359C55.1281 46.53 54.9786 46.1373 54.9786 44.8492C54.9786 43.4143 55.156 42.99 55.9284 42.5777C56.5592 42.2411 57.1787 42.2991 57.7704 42.7504ZM12.3 52.4777C12.8523 52.8825 13.0234 53.3903 13.0234 54.6246C13.0234 55.4531 12.9711 55.8407 12.8185 56.1398C12.1753 57.4011 10.3631 57.3714 9.74241 56.0895C9.4131 55.4092 9.41252 53.841 9.74148 53.1617C10.1952 52.2242 11.484 51.8798 12.3 52.4777ZM57.5701 52.4195C58.2399 52.7959 58.4943 53.403 58.4943 54.6246C58.4943 55.3821 58.4382 55.7213 58.2476 56.115C57.6674 57.3135 55.9971 57.4038 55.2446 56.2772C55.0094 55.9252 54.9786 55.7337 54.9786 54.6246C54.9786 53.5155 55.0094 53.324 55.2446 52.9719C55.7687 52.1874 56.7448 51.9556 57.5701 52.4195Z" fill="#005BDD"/>
<path d="M31.4226 52.1365C31.8502 51.5441 32.2905 51.2162 32.9979 50.9633C34.4482 50.4448 36.1799 51.1774 36.8932 52.6114C37.0903 53.0076 37.1104 53.4858 37.1404 58.5212L37.1729 64H34.0055H30.8379V58.6852C30.8379 53.0314 30.8466 52.9346 31.4226 52.1365Z" fill="#2CD8B3"/>
<path d="M32.4913 4.93763C32.6271 4.69575 32.9304 4.3866 33.1652 4.25054C33.5846 4.00724 33.6979 4.00303 39.7953 4.00033C45.8225 3.99775 46.0129 4.00455 46.4975 4.23905C46.8596 4.41437 47.0624 4.61711 47.2377 4.97924C47.4662 5.45129 47.4791 5.68051 47.4791 9.27128C47.4791 12.862 47.4662 13.0913 47.2377 13.5633C47.0624 13.9254 46.8596 14.1282 46.4975 14.3035C46.0173 14.536 45.8091 14.5449 40.8793 14.5449H35.7599V16.713C35.7599 17.9054 35.7389 18.881 35.7133 18.881C35.6875 18.881 35.3658 18.7228 34.9982 18.5295C34.1609 18.089 33.8431 18.089 33.0059 18.5295C32.6383 18.7228 32.3166 18.881 32.2908 18.881C32.2651 18.881 32.2441 15.8427 32.2441 12.1291C32.2441 5.47859 32.2479 5.37066 32.4913 4.93763Z" fill="#2CD8B3"/>
</svg>
