<svg width="68" height="68" viewBox="0 0 68 68" fill="none" xmlns="http://www.w3.org/2000/svg">
<path d="M32.2285 4.5094C31.435 4.69454 30.4431 5.24998 29.0942 6.26827L27.8379 7.20722L29.6497 7.24689C31.3027 7.27334 31.5276 7.26012 32.0301 6.99562C32.4136 6.79725 32.9294 6.67823 33.5906 6.63856C34.4502 6.58566 34.7147 6.62533 35.4685 6.9295C36.2884 7.26012 36.4603 7.27334 38.1134 7.24689L39.8723 7.20722L38.5498 6.21537C37.1348 5.14418 36.3281 4.70777 35.4156 4.49617C34.7279 4.33748 32.9161 4.3507 32.2285 4.5094Z" fill="#005BDD"/>
<path d="M12.2206 9.44238C11.9957 9.54817 11.7709 9.72009 11.718 9.85234C11.6783 9.97136 11.6387 14.4281 11.6387 19.7576V29.438L21.4117 37.0421C28.7381 42.7287 31.383 44.7124 31.9517 44.9505C33.3667 45.5191 34.9272 45.453 36.21 44.7521C36.5142 44.5934 41.1163 41.0756 46.4194 36.9496L56.0734 29.438V19.7311C56.0734 13.661 56.0205 9.94491 55.9411 9.78622C55.875 9.65397 55.6237 9.48205 55.3989 9.4027C55.0947 9.29691 48.9321 9.25723 33.8031 9.25723C16.3334 9.27046 12.5644 9.29691 12.2206 9.44238ZM47.2261 17.1788C47.5699 17.602 47.5435 18.0648 47.1468 18.4483L46.8294 18.779H33.856H20.8827L20.5653 18.4483C20.0627 17.959 20.1818 17.1788 20.8033 16.9275C20.962 16.8614 26.728 16.8217 34.0279 16.8349L46.9748 16.8614L47.2261 17.1788ZM47.2261 23.5266C47.5699 23.9498 47.5435 24.4126 47.1468 24.7961L46.8294 25.1268H33.856H20.8827L20.5653 24.7961C20.0627 24.3068 20.1818 23.5266 20.8033 23.2753C20.962 23.2092 26.728 23.1695 34.0279 23.1827L46.9748 23.2092L47.2261 23.5266ZM34.4379 29.7686C34.8743 30.1124 34.9008 30.734 34.4908 31.1704L34.2131 31.4746H27.5479H20.8827L20.5653 31.144C20.0627 30.6546 20.1818 29.8744 20.8033 29.6231C20.962 29.557 24.0169 29.5041 27.5876 29.5041C33.9618 29.4909 34.0941 29.4909 34.4379 29.7686Z" fill="#2CD8B3"/>
<path d="M7.36577 22.7066C6.22846 23.5662 5.30273 24.32 5.30273 24.3994C5.30273 24.4655 5.68625 24.8226 6.14911 25.1796L7.00871 25.8276L7.45835 25.5102C7.69639 25.3383 8.25182 24.9284 8.70146 24.5977L9.50816 24.0026L9.52138 22.5744C9.52138 21.7941 9.49494 21.1593 9.48171 21.1593C9.45526 21.1593 8.50309 21.8603 7.36577 22.7066Z" fill="#005BDD"/>
<path d="M58.1895 22.5744L58.2027 24.0026L59.0094 24.5977C59.459 24.9284 60.0144 25.3383 60.2525 25.5102L60.7021 25.8276L61.5617 25.1796C62.0246 24.8226 62.4081 24.4655 62.4081 24.3994C62.4081 24.2936 58.9168 21.5693 58.3746 21.2519C58.2159 21.1593 58.1895 21.3974 58.1895 22.5744Z" fill="#005BDD"/>
<path d="M4.23242 42.1734C4.23242 57.9504 4.23242 58.2149 4.49691 58.9951C4.85398 60.0531 5.38296 60.873 5.63423 60.7805C5.80615 60.7143 27.9045 45.2283 28.2086 44.9638C28.288 44.8977 15.6188 34.9528 4.40434 26.2775C4.2721 26.1717 4.23242 29.372 4.23242 42.1734Z" fill="#005BDD"/>
<path d="M51.4047 35.5347C44.7924 40.6658 39.4364 44.9109 39.5026 44.9638C39.8067 45.2283 61.9183 60.7143 62.077 60.7805C62.3282 60.873 62.8572 60.0531 63.2143 58.9951C63.4788 58.2017 63.4788 58.0033 63.4523 42.1867L63.4127 26.1849L51.4047 35.5347Z" fill="#005BDD"/>
<path d="M18.4226 54.1945C12.1541 58.6115 7.02299 62.2615 7.00977 62.3012C7.00977 62.3408 7.44618 62.5789 7.97516 62.8301L8.92733 63.2798H33.8557H58.7841L59.7495 62.8301C60.2653 62.5789 60.7017 62.3408 60.7017 62.3012C60.6885 62.2615 55.5441 58.5983 49.2359 54.1813L37.7967 46.1275L37.1751 46.4581C36.0378 47.0664 35.1914 47.278 33.8557 47.278C32.5068 47.278 31.6075 47.0532 30.5892 46.4713C30.2851 46.2994 29.9941 46.1539 29.928 46.1671C29.8751 46.1671 24.6911 49.7775 18.4226 54.1945Z" fill="#005BDD"/>
</svg>
