<svg width="68" height="68" viewBox="0 0 68 68" fill="none" xmlns="http://www.w3.org/2000/svg">
<path d="M19.9518 3.32546C19.3873 3.67043 18.9169 4.36037 18.321 5.80296C17.8977 6.79082 17.8506 6.85354 17.0039 7.19851L16.1258 7.55915L14.793 7.01034C12.5193 6.10088 11.9705 6.25769 9.90069 8.39021C8.81874 9.5192 8.42674 10.0523 8.28561 10.5384C8.09745 11.2597 8.11313 11.3224 8.78738 13.1727L9.27347 14.4585L8.92851 15.3052C8.58354 16.1363 8.56786 16.152 7.32911 16.6694C4.97706 17.6416 4.83594 17.8768 4.83594 20.9815C4.83594 22.7534 4.89866 23.3806 5.08682 23.7413C5.36907 24.3058 6.37261 24.9643 7.64272 25.4347C8.50514 25.764 8.56786 25.8268 8.91283 26.6578C9.27347 27.5202 9.27347 27.5516 8.99123 28.2572C8.14449 30.4681 8.09745 30.7033 8.28561 31.409C8.52082 32.2714 11.1551 35.0625 12.0019 35.3447C12.7388 35.5799 13.6953 35.4388 15.0438 34.8586C15.6554 34.6077 16.2512 34.3882 16.3767 34.3882C16.5335 34.3882 16.5962 34.1844 16.5962 33.6983C16.5962 32.7104 17.0196 30.6249 17.5684 28.9315L18.0231 27.4575L17.2548 26.6421C15.8592 25.1682 15.1222 23.6315 14.9341 21.7969C14.4637 17.2339 18.2269 13.2198 22.9781 13.2198C25.1106 13.2198 26.8668 13.9567 28.4035 15.5091C29.2502 16.3715 29.2659 16.3715 29.7206 16.152C30.3322 15.8384 32.1668 15.3523 34.2993 14.9289L36.0712 14.5839L36.3848 13.8627C37.5922 11.0245 37.5608 10.5698 35.9457 8.76654C33.7818 6.33609 32.9508 6.05384 30.6928 6.99466L29.3443 7.55915L28.4662 7.21419L27.5881 6.86922L27.0079 5.50503C26.4278 4.10948 25.926 3.48226 25.1733 3.20002C24.9225 3.10594 23.7621 3.02753 22.5861 3.02753C20.7515 3.02753 20.3595 3.07458 19.9518 3.32546Z" fill="#2CD8B3"/>
<path d="M37.5304 16.9203C33.5476 17.3124 30.4899 18.2061 27.8086 19.7585C21.9755 23.1141 18.9492 28.6022 18.9492 35.7995C18.9492 40.1429 19.843 43.232 22.2578 47.2461C24.6882 51.3073 25.6604 55.0079 25.8015 60.7939C25.8956 63.9614 25.9113 64.0868 26.2563 64.4475L26.6169 64.8081H35.8683H45.1197L45.5274 64.4475C45.841 64.1809 46.0448 63.6791 46.4055 62.2993C46.6721 61.3114 47.0013 60.3706 47.1582 60.2138C47.362 60.0099 48.1303 59.8531 50.6705 59.5552C54.2613 59.1161 54.8102 58.9437 55.6255 57.9558C56.2998 57.1247 56.3782 56.7955 56.7232 53.3928C56.8956 51.668 57.1152 50.2724 57.2249 50.1313C57.319 50.0059 58.1187 49.5041 58.9811 49.018C61.49 47.6068 62.227 46.6816 62.227 44.8941C62.227 43.9533 61.8506 43.2006 60.5648 41.5228C59.969 40.7388 59.1066 39.6412 58.6675 39.0767L57.8678 38.0261L57.9619 35.2193C58.0403 32.0676 57.8835 30.4995 57.2563 28.5081C55.3747 22.5339 50.3099 18.41 43.4262 17.234C41.9366 16.9831 38.6751 16.8106 37.5304 16.9203ZM39.7257 24.1176C40.2431 24.6194 40.2745 25.6857 39.7884 26.2972C39.3807 26.8146 38.5496 26.8617 38.0792 26.3913C37.6245 25.9365 37.6402 24.588 38.1106 24.0863C38.5653 23.6002 39.2396 23.6158 39.7257 24.1176ZM30.7879 27.9907C31.4935 28.6649 31.6346 29.3078 31.1799 29.888C30.8036 30.3741 30.3018 30.4368 29.6275 30.0918C28.6867 29.6057 28.3731 28.414 29.016 27.8025C29.5178 27.3321 30.145 27.3948 30.7879 27.9907ZM48.8516 27.8966C49.3848 28.4297 49.2593 29.104 48.5067 29.7939C47.6913 30.5622 46.7348 30.4525 46.4212 29.5744C46.233 28.9942 46.3898 28.6022 47.0798 27.9907C47.7697 27.3791 48.3028 27.3478 48.8516 27.8966ZM40.6665 29.1353C44.2573 29.888 47.1268 32.7575 47.8794 36.3483C48.1617 37.7282 48.1617 38.2613 47.8794 39.6412C47.5502 41.1622 46.7505 42.7459 45.6842 43.9533C44.8531 44.8941 43.881 46.5719 43.881 47.058C43.881 47.3559 43.3165 48.4065 43.0342 48.6417C42.8461 48.7985 42.7833 49.1434 42.7833 49.8961C42.7833 51.1819 42.6109 51.8248 42.015 52.7656C41.0742 54.2552 39.1141 54.8511 37.4834 54.1455C36.5112 53.7221 35.5547 52.7186 35.2881 51.8248C35.1784 51.4798 35.1 50.7428 35.1 50.1627C35.1 49.2689 35.0372 49.018 34.6923 48.579C34.4728 48.281 34.1121 47.5284 33.8926 46.9012C33.4535 45.631 33.2026 45.2234 32.0893 43.9689C28.8435 40.2841 29.0317 35.1095 32.5127 31.6285C34.755 29.4019 37.6715 28.5081 40.6665 29.1353ZM27.4793 36.9128C27.7773 37.148 27.887 37.3832 27.887 37.7595C27.887 38.4965 27.3068 38.9355 26.319 38.9355C25.4722 38.9355 24.8764 38.4495 24.8764 37.7595C24.8764 37.54 25.0332 37.1793 25.2214 36.9598C25.7074 36.458 26.8678 36.4267 27.4793 36.9128ZM52.5836 36.9755C52.8031 37.1793 52.9756 37.54 52.9756 37.7595C52.9756 37.979 52.8031 38.3397 52.5836 38.5435C52.2856 38.8571 52.0504 38.9355 51.4075 38.9355C50.7646 38.9355 50.5294 38.8571 50.2315 38.5435C50.012 38.3397 49.8395 37.979 49.8395 37.7595C49.8395 37.54 50.012 37.1793 50.2315 36.9755C50.5294 36.6619 50.7646 36.5835 51.4075 36.5835C52.0504 36.5835 52.2856 36.6619 52.5836 36.9755Z" fill="#005BDD"/>
<path d="M37.1058 31.5815C36.1179 31.8167 34.7537 32.6007 33.9854 33.3534C32.1978 35.1566 31.5863 38.3868 32.6525 40.4723C32.8877 40.927 33.609 42.0246 34.2676 42.9027C35.428 44.4707 36.1963 45.8193 36.1963 46.321C36.1963 47.403 38.172 47.9988 40.2575 47.5441C41.167 47.3559 41.4335 47.0894 41.6844 46.1485C41.9196 45.2548 42.3116 44.5648 43.7542 42.5891C45.432 40.3155 45.6515 39.7353 45.5731 37.7752C45.5261 36.4111 45.4477 36.0504 45.04 35.1723C44.1933 33.3691 42.9702 32.3028 41.0886 31.7226C40.0223 31.3933 38.172 31.3306 37.1058 31.5815ZM39.7087 35.0155C40.085 35.3918 40.1007 36.1758 39.7244 36.5835C39.5676 36.756 39.1599 36.9442 38.8306 36.9912C38.1877 37.101 37.7643 37.5244 37.7643 38.0732C37.7643 38.6063 37.1058 39.1237 36.5099 39.061C35.3025 38.9513 35.083 37.3989 36.0865 36.0818C37.1371 34.7176 38.8776 34.2001 39.7087 35.0155Z" fill="#005BDD"/>
<path d="M37.4984 50.7116C37.6081 51.5113 37.9845 51.9347 38.7371 52.0444C39.4741 52.1699 40.2581 51.5113 40.3052 50.6959L40.3522 50.1471L38.8782 50.1001L37.4043 50.053L37.4984 50.7116Z" fill="#005BDD"/>
</svg>
