<svg width="77" height="75" viewBox="0 0 77 75" fill="none" xmlns="http://www.w3.org/2000/svg">
<g clip-path="url(#clip0_2239_562)">
<path d="M0 18.8328H6.67456V67.0009C6.67456 68.3254 6.69252 68.3454 7.99511 68.3454H68.4631C69.7757 68.3454 69.7896 68.3294 69.7896 67.0089V18.8727H76.4642V19.6606C76.4642 35.9115 76.4642 52.1637 76.4642 68.4172C76.4642 72.4067 73.871 75 69.8814 75H6.79025C3.15176 75 1.05325 73.4041 0.0897679 69.8813C0.0777992 69.8395 0.0319166 69.8055 0 69.7676V18.8328Z" fill="#005BDD"/>
<path d="M0 10.0198C0.0480995 9.96556 0.0877783 9.90437 0.117698 9.83831C0.971467 6.55888 3.2136 4.81145 6.59277 4.80347C8.50377 4.80347 10.4128 4.80347 12.4136 4.80347C12.4136 5.7091 12.4136 6.54691 12.4136 7.38472C12.4255 8.85887 13.1436 9.59494 14.6078 9.61888C15.3299 9.63085 16.0521 9.63883 16.7722 9.60891C17.9371 9.55904 18.6652 8.82296 18.6932 7.66399C18.7151 6.74838 18.6932 5.83078 18.6932 4.85932H57.773C57.773 5.72905 57.773 6.5908 57.773 7.45254C57.787 8.89078 58.4891 9.59295 59.9334 9.61888C60.5797 9.63085 61.228 9.63085 61.8743 9.61888C63.2986 9.59295 64.0327 8.86086 64.0506 7.44855C64.0606 6.60276 64.0506 5.75897 64.0506 4.85533C64.3039 4.83937 64.5174 4.80945 64.7308 4.81145C66.8932 4.84137 69.0715 4.72368 71.2139 4.94709C72.5801 5.09298 73.8504 5.71792 74.7998 6.7111C75.7492 7.70428 76.3162 9.00155 76.4003 10.3729C76.5579 12.7467 76.4323 15.1404 76.4323 17.624H0.969463C0.646308 17.624 0.323155 17.6359 0 17.6419V10.0198Z" fill="#005BDD"/>
<path d="M59.1618 37.7973C57.4842 38.8585 55.6929 38.673 53.8856 38.5154C48.7829 38.0726 43.6743 37.6657 38.5696 37.2408C38.1348 37.2029 37.7159 37.2547 37.662 37.7654C37.6081 38.2761 38.0091 38.3977 38.448 38.4336C42.6131 38.7688 46.7775 39.1079 50.9413 39.451C51.7572 39.5168 52.573 39.5886 53.6083 39.6744C53.4046 39.7906 53.1949 39.8958 52.98 39.9896C48.2523 41.5854 43.522 43.1812 38.7891 44.7771C38.4672 44.8876 38.1192 44.8973 37.7917 44.805C31.0559 42.5509 24.3249 40.2821 17.5984 37.9988C17.5067 37.9689 17.4149 37.9349 17.1875 37.8552C17.4847 37.7275 17.6702 37.6337 17.8657 37.5679C24.4818 35.3351 31.0985 33.1109 37.7159 30.8953C38.0382 30.7865 38.386 30.7782 38.7133 30.8714C45.4011 33.1096 52.085 35.3623 58.7649 37.6297C58.8945 37.6776 59.0202 37.7355 59.1618 37.7973Z" fill="#2CD8B3"/>
<path d="M50.1874 42.2277C50.1874 45.6388 50.2253 48.9462 50.1395 52.2495C50.1275 52.6744 49.557 53.2868 49.1102 53.4604C47.7298 53.993 46.3175 54.5196 44.8593 54.759C40.012 55.5569 35.1507 55.5429 30.3333 54.5056C29.2321 54.2702 28.1729 53.7935 27.1276 53.3507C26.5152 53.0913 26.2539 52.5627 26.2619 51.8446C26.2938 48.8843 26.2759 45.9241 26.2759 42.9658V42.1958C27.3949 42.5668 28.4262 42.902 29.4556 43.249C32.1824 44.1706 34.9033 45.1162 37.6342 45.9959C38.1047 46.1128 38.5992 46.0892 39.0565 45.928C42.5214 44.789 45.9744 43.6061 49.4294 42.4392C49.6588 42.3693 49.8582 42.3195 50.1874 42.2277Z" fill="#2CD8B3"/>
<path d="M17.4975 4.24896C17.4975 5.31617 17.4815 6.38339 17.4975 7.44062C17.5134 8.14478 17.1923 8.43802 16.5001 8.42006C15.8079 8.40211 15.1596 8.42006 14.4893 8.42006C13.9148 8.42006 13.5977 8.14678 13.5977 7.56629C13.5977 5.33213 13.5977 3.09731 13.5977 0.861815C13.5977 0.291306 13.8989 -0.00392254 14.4833 6.70294e-05C15.1536 6.70294e-05 15.8238 0.0180201 16.4941 6.70294e-05C17.1643 -0.0178861 17.4915 0.265373 17.4915 0.967539C17.4835 2.06268 17.4975 3.15582 17.4975 4.24896Z" fill="#005BDD"/>
<path d="M58.9669 4.15307C58.9669 3.08586 58.9789 2.01665 58.9669 0.949441C58.9669 0.295151 59.2442 -0.0140407 59.9064 0.00391238C60.5687 0.0218655 61.2469 0.0178759 61.9172 0.00391238C62.5874 -0.0100511 62.8647 0.325074 62.8627 0.961411C62.8627 3.1477 62.8627 5.33332 62.8627 7.51828C62.8627 8.13068 62.5615 8.43189 61.9451 8.42591C61.2489 8.42591 60.5488 8.42591 59.8586 8.42591C59.2382 8.42591 58.9609 8.12669 58.9669 7.50631C58.9769 6.38723 58.9669 5.27015 58.9669 4.15307Z" fill="#005BDD"/>
<path d="M57.368 39.8718C57.368 42.1818 57.3939 44.4598 57.368 46.7518C57.35 47.8789 57.4438 48.9601 57.8746 50.0213C58.1878 50.8321 58.4503 51.6615 58.6606 52.5048C58.9359 53.5261 58.487 54.0847 57.4438 54.1006C56.971 54.1006 56.4982 54.1006 56.0255 54.1006C55.1099 54.0887 54.6511 53.5301 54.8984 52.6325C55.2176 51.4855 55.6145 50.3584 55.9517 49.2174C56.0812 48.8219 56.1557 48.4104 56.1731 47.9946C56.195 45.7066 56.2289 43.4066 56.1591 41.1305C56.1232 40.2369 56.4404 39.8898 57.368 39.8718Z" fill="#2CD8B3"/>
</g>
<defs>
<clipPath id="clip0_2239_562">
<rect width="76.4841" height="75" fill="white"/>
</clipPath>
</defs>
</svg>
