<svg width="68" height="68" viewBox="0 0 68 68" fill="none" xmlns="http://www.w3.org/2000/svg">
<path d="M24.1192 3.19192C22.8237 3.54071 21.8521 4.11373 20.7932 5.17256C19.124 6.84179 18.6133 8.19959 18.6133 10.9899V12.709H34.0598H49.5064V10.9899C49.5064 9.05911 49.3569 8.27433 48.7216 6.97881C48.186 5.87015 46.6288 4.31304 45.5202 3.77739C43.5894 2.83067 42.4682 2.7933 37.5727 3.49088L34.0848 4.00162L30.5594 3.49088C26.785 2.95524 25.2404 2.8805 24.1192 3.19192Z" fill="#005BDD"/>
<path d="M14.8884 14.6271C11.5749 15.4741 11.3258 15.5489 11.0019 15.9226C10.7029 16.2465 10.6406 16.4333 10.6406 16.9441C10.6406 17.9655 10.9645 18.2147 13.132 18.8873C18.5632 20.5566 24.9411 21.8272 30.2229 22.313C32.2907 22.4998 37.697 22.3877 39.9143 22.1261C44.9345 21.5033 51.3124 20.1081 55.8841 18.6133C57.1173 18.2147 57.4786 17.8285 57.4786 16.9191C57.4786 16.3835 57.4287 16.2465 57.0799 15.8977C56.6938 15.524 56.4073 15.4243 53.0937 14.6022L49.5061 13.7053L33.9724 13.7177L18.4262 13.7302L14.8884 14.6271Z" fill="#005BDD"/>
<path d="M15.6863 21.4163C14.478 21.9769 13.332 23.2599 12.896 24.5679C12.5472 25.6018 12.5472 27.0842 12.8835 28.1929C13.195 29.2143 14.0296 30.3355 14.914 30.9459C15.6614 31.4566 16.8946 31.8926 17.6047 31.8926H18.0656L17.7168 30.4974C17.3057 28.878 17.1189 26.723 17.1189 23.5838C17.1189 22.4129 17.0815 21.4163 17.0317 21.3914C16.6953 21.1921 16.1348 21.2046 15.6863 21.4163Z" fill="#005BDD"/>
<path d="M51.3778 21.2918L51.0664 21.379L50.9916 24.6053C50.9044 28.0434 50.7923 29.1147 50.3314 30.8337L50.0449 31.8926H50.5183C51.1411 31.8926 52.3121 31.5189 52.9598 31.1078C54.6041 30.0614 55.4886 28.4296 55.4886 26.4115C55.4886 24.2191 54.4671 22.5125 52.5612 21.5035C51.9259 21.1672 51.8761 21.1547 51.3778 21.2918Z" fill="#005BDD"/>
<path d="M18.6133 24.9544C18.6133 28.38 18.7628 29.6382 19.3732 31.3946C20.4943 34.6334 22.6369 37.4237 25.4023 39.2674C28.1054 41.0736 30.7463 41.8584 34.0598 41.8584C37.3734 41.8584 40.0142 41.0736 42.7174 39.2674C45.5576 37.3739 47.7126 34.5213 48.7963 31.2078C49.3943 29.3766 49.5064 28.3925 49.5064 24.9544V21.7779L49.2323 21.8402C36.9748 24.5059 31.2695 24.5059 18.8998 21.8402L18.6133 21.7779V24.9544ZM27.4452 24.7426C27.9061 25.1163 28.0805 25.7018 28.0805 26.7856C28.0805 27.8693 27.9061 28.4548 27.4452 28.8285C26.6729 29.4887 25.5019 29.0776 25.2154 28.0562C25.1532 27.807 25.0909 27.234 25.0909 26.7856C25.0909 26.3371 25.1532 25.7641 25.2154 25.515C25.3898 24.8797 25.9753 24.4187 26.5857 24.4187C26.922 24.4187 27.1836 24.5184 27.4452 24.7426ZM35.0066 24.8423C35.592 25.4278 35.5671 25.8762 34.9069 27.2091L34.3962 28.2555L34.9069 28.7413C35.3554 29.1648 35.4301 29.3143 35.4301 29.7503C35.4301 30.7593 34.6453 31.27 33.0633 31.27C32.6148 31.27 32.0418 31.2078 31.7927 31.1455C31.1947 30.9711 30.6965 30.3856 30.6965 29.825C30.6965 29.252 32.7892 25.054 33.2626 24.6803C33.7982 24.2568 34.4834 24.3191 35.0066 24.8423ZM42.3935 24.7426C42.8544 25.1163 43.0288 25.7018 43.0288 26.7856C43.0288 27.8693 42.8544 28.4548 42.3935 28.8285C41.6212 29.4887 40.4502 29.0776 40.1637 28.0562C40.1014 27.807 40.0391 27.234 40.0391 26.7856C40.0391 26.3371 40.1014 25.7641 40.1637 25.515C40.3381 24.8797 40.9236 24.4187 41.534 24.4187C41.8703 24.4187 42.1319 24.5184 42.3935 24.7426ZM31.4937 32.8521C32.5775 33.3005 32.6896 33.3254 34.0598 33.3254C35.4301 33.3254 35.5422 33.3005 36.626 32.8521C38.071 32.2666 38.4322 32.2541 38.9928 32.8147C39.3291 33.151 39.4163 33.3379 39.4163 33.7365C39.4163 34.3843 39.08 34.7953 38.1582 35.2562C36.1152 36.2902 33.8232 36.5393 31.7802 35.9414C30.4349 35.5552 29.3138 35.0071 28.965 34.5587C28.5041 33.9732 28.666 33.0015 29.3013 32.6029C29.7996 32.2915 30.2356 32.3413 31.4937 32.8521Z" fill="#005BDD"/>
<path d="M21.3637 41.9076C17.5519 42.8792 17.3152 42.954 16.9789 43.3277C16.518 43.8384 16.4682 44.7478 16.8668 45.2585C17.0785 45.5201 28.5514 52.8198 28.7507 52.8198C28.788 52.8198 28.9251 52.5582 29.0745 52.2344C29.7098 50.7894 30.9929 49.6433 32.5126 49.145L33.3223 48.8834L30.2704 45.0716C28.6012 42.9789 27.0939 41.1726 26.9444 41.0605C26.4337 40.7117 25.5243 40.8487 21.3637 41.9076Z" fill="#005BDD"/>
<path d="M41.1729 41.0605C41.0234 41.1726 39.5161 42.9789 37.8469 45.0716L34.7949 48.8834L35.6046 49.145C37.1368 49.6433 38.4199 50.8018 39.0303 52.2219C39.1673 52.5582 39.3168 52.8198 39.3541 52.8198C39.5659 52.8198 51.0387 45.5325 51.2505 45.2585C51.4249 45.0343 51.4996 44.7478 51.4996 44.3242C51.4996 43.7886 51.4373 43.6515 51.101 43.3028C50.7148 42.929 50.4159 42.8294 46.6165 41.8827C44.3743 41.3221 42.294 40.8612 41.995 40.8612C41.7085 40.8612 41.3348 40.9484 41.1729 41.0605Z" fill="#005BDD"/>
<path d="M14.6268 46.4797C13.269 47.1648 12.0856 48.3233 11.4503 49.6063C10.6406 51.2631 10.6406 51.2008 10.6406 58.4134V64.9283L11.0642 65.3519L11.4877 65.7754H16.5327H21.5902L21.3909 65.3145C21.1169 64.6418 21.229 63.4833 21.7148 62.0383C22.6242 59.3352 24.0692 56.9559 25.9875 55.0126C26.6602 54.34 27.2083 53.7171 27.2083 53.6175C27.2083 53.5303 24.8166 51.9607 21.8892 50.142C18.9494 48.3108 16.3583 46.6167 16.1092 46.3925L15.6732 45.9565L14.6268 46.4797Z" fill="#005BDD"/>
<path d="M52.0591 46.3426C51.8598 46.5544 49.2812 48.2361 46.304 50.0922C43.3393 51.9358 40.9102 53.5303 40.9102 53.6175C40.9102 53.7171 41.4583 54.34 42.1309 55.0126C44.0493 56.9559 45.4818 59.3103 46.4036 62.0508C46.8895 63.4833 47.0016 64.6418 46.7275 65.3145L46.5282 65.7754H51.5857H56.6308L57.0543 65.3519L57.4778 64.9283V58.3885V51.8361L57.1664 50.8396C56.5062 48.7468 54.8619 46.953 52.9186 46.1807L52.4079 45.9814L52.0591 46.3426Z" fill="#005BDD"/>
<path d="M32.7392 50.4664C31.7178 50.7654 30.4845 52.0111 30.198 53.045C29.9863 53.8173 30.0485 55.1129 30.3351 55.8727C31.2942 58.4513 34.9317 59.1614 36.9248 57.1807C38.9054 55.1876 38.1954 51.5502 35.6168 50.591C34.8694 50.317 33.4742 50.2547 32.7392 50.4664Z" fill="#2CD8B3"/>
<path d="M27.7902 55.1247C26.3452 56.2957 24.6511 58.5628 23.7667 60.4812C23.094 61.9511 22.5957 63.5954 22.5957 64.3055C22.5957 64.8536 22.6455 64.9781 23.0192 65.3519L23.4428 65.7754H27.0553C30.5183 65.7754 30.6678 65.7629 30.9917 65.5138C31.4899 65.1152 31.5647 64.8785 31.7017 63.3089C31.8013 62.0757 32.038 60.8175 32.3619 59.7338C32.4367 59.522 32.3245 59.4348 31.6892 59.1359C30.2318 58.4632 28.9238 56.7068 28.737 55.187C28.6996 54.8507 28.6248 54.5642 28.575 54.5642C28.5127 54.5642 28.1639 54.8133 27.7902 55.1247Z" fill="#2CD8B3"/>
<path d="M39.3777 55.187C39.1908 56.7068 37.8828 58.4632 36.4254 59.1359C35.7901 59.4348 35.678 59.522 35.7527 59.7338C36.0766 60.8175 36.3133 62.0757 36.4129 63.3089C36.5499 64.8785 36.6247 65.1152 37.123 65.5138C37.4468 65.7629 37.5963 65.7754 41.0593 65.7754H44.6718L45.0954 65.3519C45.4691 64.9781 45.5189 64.8536 45.5189 64.3055C45.5189 62.4992 43.6005 58.5628 41.6573 56.3953C41.0095 55.6728 39.7264 54.5642 39.5396 54.5642C39.4898 54.5642 39.415 54.8507 39.3777 55.187Z" fill="#2CD8B3"/>
<path d="M33.2115 62.1255C33.1367 62.6612 33.0371 63.5082 32.9997 64.0065C32.9623 64.5048 32.8502 65.1152 32.7506 65.3519L32.5762 65.7754H34.0585H35.5409L35.3665 65.3519C35.2669 65.1152 35.1547 64.5048 35.1174 64.0065C35.08 63.5082 34.9804 62.6612 34.9056 62.1255L34.781 61.1663H34.0585H33.336L33.2115 62.1255Z" fill="#005BDD"/>
</svg>
