<svg width="68" height="68" viewBox="0 0 68 68" fill="none" xmlns="http://www.w3.org/2000/svg">
<g clip-path="url(#clip0_2506_3642)">
<path d="M26.8457 11.0029V21.0668L27.2424 21.6884C27.8508 22.6273 28.9881 23.6324 29.9667 24.0952C30.9321 24.5449 32.2281 24.7168 33.3919 24.5449L34.0134 24.4391L33.8944 23.963C33.8415 23.6985 33.7886 23.0902 33.7886 22.6141C33.8018 21.5164 34.2779 20.4585 35.1243 19.7311L35.7062 19.2021V18.0648C35.7062 17.0994 35.6665 16.8746 35.4417 16.6366C35.045 16.2001 35.0979 15.5389 35.5607 15.0628L35.9442 14.6793H37.8883H39.8323L40.2158 15.0628C40.4406 15.2876 40.5993 15.5918 40.5993 15.7902C40.5993 16.1737 40.348 16.7953 40.1761 16.7953C40.1232 16.7953 40.0703 17.3507 40.0703 18.0251C40.0703 19.2418 40.0835 19.2683 40.4538 19.546C41.4324 20.2733 42.1466 21.9529 42.0011 23.196C41.9482 23.5663 41.6705 24.4126 41.3928 25.0606C41.1018 25.7086 40.8638 26.2905 40.8638 26.3434C40.8638 26.3963 46.4049 26.4492 53.1627 26.4492H65.4616V13.6875V0.925723H46.1536H26.8457V11.0029Z" fill="#2CD8B3"/>
<path d="M15.4469 6.5989C14.4419 6.92951 13.8732 7.2998 13.1855 8.06683C11.6779 9.74636 11.3738 11.9549 12.3656 13.965C13.4633 16.2 15.9627 17.3637 18.3564 16.7422C19.4672 16.4645 20.221 16.0016 21.0145 15.1288C21.9667 14.084 22.2708 13.2244 22.2841 11.5714C22.2841 10.3415 22.2576 10.1828 21.8609 9.38929C21.3187 8.29165 20.3929 7.36593 19.3218 6.85017C18.2109 6.32118 16.5975 6.21539 15.4469 6.5989Z" fill="#005BDD"/>
<path d="M36.0239 15.5389C35.9049 15.843 36.0636 16.134 36.3677 16.134C36.619 16.134 36.6322 16.2133 36.6322 17.8532V19.5591L36.2619 19.7575C34.7411 20.5378 34.146 22.6405 34.9924 24.201C35.204 24.5845 35.561 25.0474 35.7991 25.2193C37.4918 26.5153 40.0177 25.9202 40.8773 24.0158C41.1815 23.3414 41.208 21.9925 40.917 21.318C40.6922 20.7494 40.031 20.0352 39.5152 19.7575L39.1449 19.5591V17.8532C39.1449 16.1869 39.1449 16.1472 39.4491 16.1075C39.6607 16.0811 39.74 15.9753 39.74 15.7372V15.4066L37.915 15.3669C36.381 15.3405 36.09 15.3669 36.0239 15.5389ZM39.8458 21.7544C40.4145 22.9446 39.7665 24.2803 38.4043 24.73C37.1744 25.1399 35.7065 23.9762 35.7065 22.5876C35.7065 22.376 35.7991 21.9925 35.9181 21.7412L36.1297 21.2916H37.8754H39.621L39.8458 21.7544Z" fill="#005BDD"/>
<path d="M13.9523 17.787C10.6726 18.3953 8.82117 19.7574 7.32679 22.6801C6.32172 24.6241 5.67371 26.264 5.0786 28.3534C4.61574 29.9404 4.07353 32.4927 3.91484 33.8152L3.82227 34.5161H5.87208H7.90867L8.06736 33.5507C8.23928 32.4795 8.90052 29.5966 9.09888 29.094C9.29725 28.5915 9.35015 28.8957 9.52207 31.4745C9.60142 32.744 9.69399 33.9475 9.73367 34.1458L9.81301 34.5161H17.113H24.413L24.651 31.3025C24.7833 29.5437 24.9155 27.7319 24.9552 27.2823L25.0345 26.4623L25.59 26.9516C28.4597 29.4511 32.6387 30.0197 36.9367 28.4857C38.4311 27.9435 39.8858 27.1632 40.1899 26.7268C40.4544 26.3565 40.5735 25.8408 40.3751 25.9466C39.0658 26.6078 38.7088 26.7268 37.9682 26.7268C36.7119 26.74 35.9581 26.4227 34.9794 25.5102C34.4769 25.0341 34.424 25.0076 33.9215 25.1266C33.6305 25.1928 32.9032 25.2589 32.3213 25.2589C29.888 25.2589 27.9307 24.0951 26.3967 21.7279C26.0793 21.2386 25.6429 20.6567 25.4445 20.4451C24.2014 19.1888 21.6358 18.1308 18.8454 17.7209C17.5891 17.5489 15.0764 17.5754 13.9523 17.787ZM18.3958 19.3343L18.8719 19.4665L18.528 20.617L18.171 21.7544L17.0998 21.794L16.0418 21.8337L15.6847 20.6832C15.288 19.4136 15.288 19.3739 16.1344 19.2285C16.3856 19.1888 16.6634 19.1359 16.7295 19.1094C16.9014 19.0433 17.8007 19.1623 18.3958 19.3343ZM18.2635 22.8388C18.2635 22.971 18.3958 24.8886 18.5545 27.0971L18.8586 31.1174L18.0255 32.1489C17.5759 32.7176 17.1527 33.2069 17.0865 33.2466C17.0336 33.273 16.5972 32.8101 16.1212 32.2018L15.2616 31.0909L15.5657 27.3484C15.7244 25.2853 15.8567 23.381 15.8699 23.1033V22.614H17.0601C18.1048 22.614 18.2503 22.6404 18.2635 22.8388Z" fill="#005BDD"/>
<path d="M2.24805 36.6981C2.24805 37.8486 2.28772 38.0867 2.44642 38.0867C2.61834 38.0867 2.64479 38.7082 2.64479 42.9137V47.7407H3.37214H4.09949V55.7415V63.7424H4.89297H5.68644V55.7415V47.7407H19.2417H32.7969V42.9137C32.7969 38.1528 32.7969 38.0867 33.0614 38.0867C33.3259 38.0867 33.3391 38.0206 33.2994 36.7246L33.2598 35.3756L17.7605 35.336L2.24805 35.3095V36.6981Z" fill="#005BDD"/>
<path d="M10.4466 48.8912C10.4466 49.1028 10.2614 52.5809 10.0498 56.6276C9.74566 62.1158 9.67954 64.1392 9.78534 64.5095C10.354 66.6519 12.7741 67.4057 14.6652 66.0171C15.5777 65.3426 15.6042 65.2368 16.0141 57.5401C16.2125 53.7182 16.4109 50.1211 16.4505 49.5524L16.5167 48.5341H13.4882H10.4466V48.8912Z" fill="#005BDD"/>
<path d="M17.6803 49.2881C17.7067 49.7113 17.9051 53.2819 18.1167 57.2097C18.5267 65.0518 18.5267 64.9857 19.4127 65.8982C20.3649 66.8768 21.8593 66.9826 23.2214 66.1892C23.962 65.7528 24.3455 65.1047 24.4248 64.1658C24.4513 63.7558 24.3058 60.1323 24.081 56.1385C23.8562 52.1314 23.671 48.7856 23.671 48.693C23.671 48.574 22.9834 48.5343 20.6558 48.5343H17.6406L17.6803 49.2881Z" fill="#005BDD"/>
<path d="M29.7559 56.1383V63.7424H30.5493H31.3428V56.1383V48.5341H30.5493H29.7559V56.1383Z" fill="#005BDD"/>
<path d="M42.0885 48.6268C40.7847 48.9724 39.5993 49.955 39.039 51.1536C38.7804 51.7151 38.748 51.8986 38.748 53.0216C38.748 54.1446 38.7804 54.3282 39.039 54.8897C39.4485 55.7535 40.2998 56.6281 41.1618 57.0492C41.8407 57.3732 41.9377 57.3948 43.1122 57.3948C44.2975 57.3948 44.3945 57.3732 45.0626 57.0492C46.3449 56.4122 47.2716 55.1704 47.541 53.7127C47.9182 51.6935 46.679 49.5447 44.7178 48.7996C44.0174 48.5297 42.7782 48.4541 42.0885 48.6268Z" fill="#005BDD"/>
<path d="M38.5813 58.8959C37.5193 59.1753 36.6849 59.7664 36.078 60.6584C35.4711 61.5611 35.3086 62.3886 35.3086 64.4736V66.1609L35.6229 66.4725L35.9371 66.7842H43.0461C48.0202 66.7842 50.2201 66.7519 50.4043 66.666C50.8486 66.4725 50.9136 66.1394 50.9136 64.2801C50.9136 61.8728 50.6535 61.0345 49.6132 60.0136C49.028 59.4225 48.4753 59.1108 47.5867 58.8851C46.7089 58.6594 39.4374 58.6594 38.5813 58.8959Z" fill="#005BDD"/>
<path d="M58.3541 48.6268C57.0503 48.9724 55.865 49.955 55.3046 51.1536C55.046 51.7151 55.0137 51.8986 55.0137 53.0216C55.0137 54.1446 55.046 54.3282 55.3046 54.8897C55.7141 55.7535 56.5654 56.6281 57.4274 57.0492C58.1063 57.3732 58.2033 57.3948 59.3778 57.3948C60.5632 57.3948 60.6602 57.3732 61.3282 57.0492C62.6106 56.4122 63.5373 55.1704 63.8067 53.7127C64.1838 51.6935 62.9446 49.5447 60.9834 48.7996C60.283 48.5297 59.0438 48.4541 58.3541 48.6268Z" fill="#005BDD"/>
<path d="M54.8489 58.8959C53.7869 59.1753 52.9524 59.7664 52.3456 60.6584C51.7387 61.5611 51.5762 62.3886 51.5762 64.4736V66.1609L51.8904 66.4725L52.2047 66.7842H59.3137C64.2878 66.7842 66.4877 66.7519 66.6719 66.666C67.1162 66.4725 67.1812 66.1394 67.1812 64.2801C67.1812 61.8728 66.9211 61.0345 65.8808 60.0136C65.2956 59.4225 64.7429 59.1108 63.8543 58.8851C62.9765 58.6594 55.705 58.6594 54.8489 58.8959Z" fill="#005BDD"/>
</g>
<defs>
<clipPath id="clip0_2506_3642">
<rect width="67.71" height="67.71" fill="white"/>
</clipPath>
</defs>
</svg>
