<svg width="68" height="68" viewBox="0 0 68 68" fill="none" xmlns="http://www.w3.org/2000/svg">
<g clip-path="url(#clip0_2522_2493)">
<path d="M4.80028 3.42521C2.71079 4.13934 1.13706 5.80564 0.594854 7.86868C0.422934 8.55636 0.396484 11.6377 0.396484 33.855C0.396484 56.0724 0.422934 59.1537 0.594854 59.8414C1.15029 61.9309 2.72402 63.584 4.85318 64.2849C5.55408 64.5229 6.44013 64.5361 23.6718 64.5361C41.2738 64.5361 41.7895 64.5229 42.5962 64.2716C44.7121 63.6236 46.352 61.8383 46.881 59.6298C47.0265 58.995 47.0794 57.9503 47.0794 55.4641V52.1314L46.0611 52.6472C45.0957 53.1365 44.5535 53.2688 38.0866 54.5648C30.5221 56.0856 30.3899 56.0988 28.7765 55.5434C26.277 54.6838 24.4653 52.1976 24.4653 49.632C24.4653 48.984 26.8986 36.6322 27.3086 35.2436C27.4144 34.8733 27.7318 34.2121 28.0227 33.7889C28.3401 33.2864 31.9372 29.5967 37.8089 23.7382L47.0794 14.481V11.7038C47.0794 9.69367 47.0265 8.6886 46.881 8.08027C46.352 5.87176 44.7121 4.08644 42.5962 3.43843C41.7895 3.18717 41.287 3.17394 23.6189 3.18717C6.65172 3.18717 5.44829 3.21362 4.80028 3.42521ZM22.0187 13.8991C22.6403 14.071 23.2354 14.5868 23.4867 15.1687C23.7247 15.7109 23.7644 26.4625 23.5263 27.0708C23.2751 27.732 22.6271 28.2743 21.8997 28.4329C21.4501 28.5387 19.4664 28.5652 15.8693 28.5387C9.93143 28.4991 10.0108 28.4991 9.36277 27.613L9.0586 27.1766L9.01893 21.2917C8.99248 15.7505 9.0057 15.3803 9.23052 14.9438C9.53469 14.3884 9.99755 14.0313 10.5927 13.8859C11.3068 13.714 21.3972 13.7272 22.0187 13.8991ZM34.6879 18.3822C35.2037 18.7261 35.7062 19.5725 35.7062 20.075C35.7062 20.5775 35.3756 21.2123 34.873 21.6487C34.2515 22.1909 33.7225 22.2571 30.218 22.1909C27.9037 22.1513 27.3747 22.1116 27.0176 21.9264C25.3778 21.0272 25.6952 18.5674 27.5202 18.1178C27.7714 18.0516 29.3716 18.012 31.0908 18.0252C34.1721 18.0516 34.2118 18.0516 34.6879 18.3822ZM20.7624 33.0483C21.7675 33.5905 22.2039 34.4898 21.9526 35.4288C21.8071 35.9974 21.1062 36.6983 20.5243 36.857C20.326 36.9231 17.9984 36.9628 15.3403 36.9628C11.0026 36.9628 10.4736 36.9364 10.0901 36.738C8.45027 35.8255 8.76766 33.379 10.5927 32.9293C10.8439 32.8632 13.1582 32.8235 15.737 32.8367C19.4267 32.8632 20.4979 32.9029 20.7624 33.0483ZM19.0432 41.5121C20.445 42.2791 20.7227 43.7735 19.678 44.7918C19.0167 45.4398 18.382 45.5191 14.1898 45.4662C11.0026 45.4266 10.4604 45.4001 10.0901 45.2018C8.45027 44.2893 8.76766 41.8427 10.5927 41.3931C10.8439 41.3269 12.7747 41.2873 14.8774 41.3005C17.8397 41.3269 18.7919 41.3666 19.0432 41.5121ZM16.9669 49.87C17.6282 50.042 18.3291 50.6767 18.5142 51.2586C18.739 51.9199 18.5671 52.5679 18.0381 53.163C17.3769 53.8903 16.7686 53.9829 13.3169 53.93C10.9762 53.8903 10.4472 53.8506 10.0901 53.6655C8.45027 52.7662 8.76766 50.2932 10.5927 49.8568C11.2671 49.6981 16.385 49.6981 16.9669 49.87Z" fill="#005BDD"/>
<path d="M13.0918 21.1596V24.3335H16.3318H19.5719V21.1596V17.9857H16.3318H13.0918V21.1596Z" fill="#005BDD"/>
<path d="M54.8955 12.7219C54.5781 12.8144 53.864 13.4096 52.5415 14.7188C51.4968 15.7371 50.6504 16.6364 50.6504 16.7157C50.6504 16.795 53.5598 19.7838 57.1304 23.3412L63.6105 29.8213L65.4752 27.9698C66.4935 26.9515 67.4192 25.9597 67.525 25.7613C67.763 25.2985 67.763 24.1612 67.525 23.6983C67.4192 23.4999 64.9594 20.9873 62.0632 18.0911C57.6065 13.6608 56.7205 12.8277 56.2708 12.7086C55.6493 12.5367 55.5038 12.5367 54.8955 12.7219Z" fill="#2CD8B3"/>
<path d="M40.3611 26.8857C36.4202 30.8266 33.1934 34.0799 33.1934 34.1196C33.1934 34.1592 36.1292 37.1215 39.6999 40.7054L46.2196 47.2119L53.4535 39.9781L60.7005 32.731L54.194 26.2245C50.6102 22.6406 47.6479 19.7047 47.6082 19.7047C47.5685 19.7047 44.3153 22.9315 40.3611 26.8857Z" fill="#2CD8B3"/>
<path d="M30.892 37.9547C30.7201 38.4043 28.5645 49.3543 28.5645 49.7246C28.5645 50.6635 29.3844 51.6025 30.363 51.7876C30.7597 51.8537 42.2651 49.6584 42.4767 49.4733C42.5296 49.4204 39.9641 46.7755 36.7637 43.5751C32.9021 39.7135 30.9317 37.8356 30.892 37.9547Z" fill="#2CD8B3"/>
</g>
<defs>
<clipPath id="clip0_2522_2493">
<rect width="67.71" height="67.71" fill="white"/>
</clipPath>
</defs>
</svg>
