<svg width="70" height="69" viewBox="0 0 70 69" fill="none" xmlns="http://www.w3.org/2000/svg">
<g clip-path="url(#clip0_2239_544)">
<path d="M48.4733 68.9635H0.900391V15.4454C4.13013 15.4454 7.35987 15.577 10.5896 15.5889C16.8816 15.5889 16.5706 16.0794 16.5108 9.73952C16.5108 6.5337 16.5108 3.31592 16.5108 0.00244141H25.3148C32.5758 0.00244141 39.8367 0.00244141 47.0977 0.00244141C48.4135 0.00244141 49.7891 0.253653 49.7891 1.71302C49.7891 5.30162 49.7891 8.59118 49.7891 12.4788C40.0401 10.3855 31.8461 12.6702 26.0924 20.7087C21.0085 27.7184 20.4224 35.5535 24.5493 43.1255C29.992 53.0899 38.82 56.1761 49.8729 53.8913C49.8729 58.2455 49.9446 62.4681 49.8011 66.6787C49.825 67.4921 49.9327 68.9635 48.4733 68.9635ZM12.671 28.5438C13.9868 28.5438 15.3146 28.6036 16.6304 28.5438C16.9143 28.5673 17.1999 28.531 17.4688 28.4371C17.7377 28.3432 17.9838 28.1938 18.1913 27.9987C18.3988 27.8037 18.563 27.5671 18.6733 27.3045C18.7836 27.0419 18.8374 26.7591 18.8314 26.4744C18.8456 26.1895 18.7974 25.905 18.6904 25.6407C18.5833 25.3763 18.4199 25.1385 18.2115 24.9438C18.0031 24.749 17.7547 24.6021 17.4838 24.5132C17.2128 24.4242 16.9256 24.3955 16.6424 24.4289C14.0028 24.381 11.3592 24.381 8.71158 24.4289C7.34791 24.4289 6.31918 25.0748 6.4388 26.582C6.55842 28.0892 7.45557 28.5199 8.71158 28.5677C9.96759 28.6156 11.3552 28.5438 12.671 28.5438ZM12.671 36.5584C13.9868 36.5584 15.3026 36.5584 16.6304 36.5584C17.9582 36.5584 18.8314 35.9363 18.8673 34.5727C18.8911 34.2881 18.8509 34.0018 18.7497 33.7348C18.6485 33.4678 18.4888 33.2268 18.2823 33.0295C18.0758 32.8322 17.8279 32.6836 17.5565 32.5946C17.2852 32.5056 16.9974 32.4785 16.7142 32.5152C14.0107 32.5152 11.2954 32.5152 8.59195 32.5152C8.31263 32.4774 8.0284 32.5021 7.7598 32.5876C7.49121 32.673 7.24498 32.8172 7.03892 33.0095C6.83285 33.2018 6.67211 33.4375 6.56832 33.6996C6.46453 33.9617 6.42029 34.2435 6.4388 34.5248C6.4388 35.9124 7.35987 36.4866 8.66373 36.4985C9.96759 36.5105 11.3073 36.4985 12.671 36.4985V36.5584ZM12.671 52.5516C13.9868 52.5516 15.2907 52.5516 16.6065 52.5516C17.9223 52.5516 18.9271 51.9176 18.9271 50.4582C18.9271 48.9989 17.9941 48.4845 16.7142 48.4725C14.0825 48.4725 11.4628 48.4725 8.8312 48.4725C7.46753 48.4725 6.51057 49.0586 6.5345 50.5539C6.55842 52.0491 7.58715 52.5515 8.9269 52.5635C10.2666 52.5755 11.3313 52.4678 12.5753 52.4678L12.671 52.5516ZM12.671 44.5131H16.6304C17.9343 44.5131 18.8314 43.8911 18.8673 42.5274C18.8911 42.2428 18.8509 41.9565 18.7497 41.6895C18.6485 41.4225 18.4888 41.1815 18.2823 40.9843C18.0758 40.787 17.8279 40.6384 17.5565 40.5494C17.2852 40.4604 16.9974 40.4332 16.7142 40.4699C14.0107 40.4699 11.2954 40.4699 8.59195 40.4699C8.3089 40.4362 8.02189 40.4665 7.75214 40.5586C7.48238 40.6508 7.23678 40.8023 7.0335 41.0022C6.83022 41.202 6.67445 41.445 6.57773 41.7132C6.481 41.9813 6.44579 42.2677 6.47468 42.5513C6.47468 43.9389 7.39576 44.5131 8.69962 44.525L12.671 44.5131Z" fill="#005BDD"/>
<path d="M26.1997 33.3293C26.1824 31.0462 26.6169 28.7822 27.4782 26.6677C28.3395 24.5533 29.6107 22.6301 31.2184 21.009C32.8262 19.3879 34.7388 18.1009 36.8461 17.2221C38.9533 16.3433 41.2136 15.8901 43.4968 15.8886C48.1036 15.8663 52.5317 17.6701 55.8116 20.9052C59.0915 24.1403 60.9561 28.5431 60.9972 33.1498C60.9879 37.7614 59.1601 42.1831 55.9104 45.4552C52.6608 48.7272 48.2517 50.5854 43.6403 50.6263C39.0357 50.6391 34.614 48.8253 31.3446 45.5829C28.0752 42.3404 26.225 37.9338 26.1997 33.3293ZM39.8723 34.5255C40.6857 35.4346 41.1522 35.9968 41.6427 36.5231C42.1331 37.0495 42.7432 37.6595 43.3174 38.1978C44.8365 39.6332 45.7098 39.6572 47.205 38.1978C49.3821 36.0805 51.4754 33.8915 53.6525 31.7622C54.7411 30.6976 55.5784 29.5253 54.2865 28.1736C52.9946 26.8219 51.7865 27.7071 50.6979 28.8076C48.9395 30.6498 47.1093 32.468 45.1236 34.5733C43.76 33.0661 42.7312 31.8101 41.535 30.6378C41.3393 30.3868 41.0888 30.1837 40.8028 30.044C40.5167 29.9043 40.2026 29.8317 39.8843 29.8317C39.5659 29.8317 39.2518 29.9043 38.9657 30.044C38.6797 30.1837 38.4293 30.3868 38.2335 30.6378C36.5349 32.3005 34.8483 33.9633 33.1855 35.6619C32.9586 35.8344 32.7713 36.0535 32.6361 36.3045C32.5009 36.5555 32.421 36.8325 32.4018 37.1169C32.3825 37.4013 32.4243 37.6865 32.5244 37.9534C32.6246 38.2203 32.7806 38.4627 32.9822 38.6643C33.1785 38.8947 33.425 39.0772 33.7027 39.1978C33.9804 39.3183 34.2819 39.3738 34.5844 39.3599C34.8868 39.3461 35.182 39.2633 35.4475 39.1178C35.713 38.9724 35.9417 38.7682 36.1162 38.5208C37.3483 37.3365 38.4847 36.0446 39.8723 34.5255Z" fill="#2CD8B3"/>
<path d="M55.4941 52.6838L62.4919 45.5664C64.7297 47.4452 66.8659 49.4417 68.8916 51.5474C70.638 53.4853 70.0878 56.5954 68.0782 58.3299C67.1339 59.1789 65.9089 59.6486 64.6391 59.6486C63.3693 59.6486 62.1443 59.1789 61.2 58.3299C58.9751 56.3202 56.9296 54.0953 55.4941 52.6838Z" fill="#2CD8B3"/>
<path d="M12.3121 2.09644V11.367H3.01758L12.3121 2.09644Z" fill="#005BDD"/>
</g>
<defs>
<clipPath id="clip0_2239_544">
<rect width="69.0328" height="68.973" fill="white" transform="translate(0.900391 -0.00878906)"/>
</clipPath>
</defs>
</svg>
