<svg width="64" height="68" viewBox="0 0 64 68" fill="none" xmlns="http://www.w3.org/2000/svg">
<path d="M30.8024 64.6079C23.0211 63.0072 15.2917 62.6413 7.35491 63.1474C7.35491 60.2447 7.32747 57.5158 7.3915 54.7899C7.3915 54.4667 7.82752 54.0032 8.16901 53.8752C11.9712 52.3232 11.8736 44.2065 8.14157 42.8284C7.95222 42.7428 7.78551 42.6141 7.65474 42.4527C7.52397 42.2912 7.43278 42.1014 7.38845 41.8984C7.32442 39.4591 7.35491 37.0442 7.35491 34.2208C11.7974 34.2208 16.0997 34.0409 20.3806 34.2818C23.5029 34.4586 26.5946 35.1965 29.7016 35.6752C30.47 35.7941 30.9487 36.0594 30.9457 37.026C30.9091 45.9659 30.9213 54.9088 30.9152 63.8579C30.8929 64.11 30.8552 64.3605 30.8024 64.6079Z" fill="#2CD8B3"/>
<path d="M56.1016 34.547C56.1016 37.0656 56.126 39.5414 56.0681 42.0173C56.0681 42.2947 55.6503 42.7033 55.3424 42.8161C51.592 44.1516 51.4762 52.2683 55.2692 53.8538C55.6138 54.0002 56.0589 54.4484 56.0681 54.7685C56.1321 57.5127 56.1047 60.2264 56.1047 63.1474C48.177 62.6504 40.4598 63.0041 32.6267 64.6262C32.5932 64.0652 32.5383 63.5895 32.5383 63.1017C32.5383 54.5642 32.5566 46.0268 32.5078 37.4894C32.5078 36.3002 32.8493 35.8398 34.0324 35.5807C40.9869 34.0447 48.1441 33.6442 55.2265 34.3946C55.4674 34.4342 55.7113 34.4799 56.1016 34.547Z" fill="#2CD8B3"/>
<path d="M41.8596 12.4748C41.8745 13.8095 41.6258 15.134 41.1278 16.3725C40.6299 17.6109 39.8924 18.7389 38.9576 19.6918C38.0229 20.6447 36.9092 21.4037 35.6806 21.9254C34.4519 22.447 33.1324 22.7211 31.7977 22.7319C30.463 22.7387 29.1402 22.4822 27.9048 21.977C26.6695 21.4718 25.546 20.7279 24.5986 19.7878C23.6512 18.8478 22.8985 17.7301 22.3837 16.4988C21.8689 15.2674 21.6021 13.9466 21.5985 12.612C21.5815 11.2786 21.8291 9.95505 22.3268 8.71793C22.8246 7.4808 23.5626 6.35462 24.4983 5.40449C25.4339 4.45436 26.5487 3.69914 27.778 3.18248C29.0074 2.66583 30.3269 2.39801 31.6604 2.39449C32.9948 2.37629 34.3195 2.62372 35.5574 3.12237C36.7953 3.62102 37.9216 4.36094 38.8707 5.29904C39.8199 6.23714 40.573 7.35469 41.0861 8.58661C41.5992 9.81854 41.8622 11.1402 41.8596 12.4748Z" fill="#005BDD"/>
<path d="M52.3176 32.5529C49.8509 32.5529 47.5641 32.3639 45.3047 32.5956C41.1824 33.0194 37.0722 33.6994 32.9712 34.2512C32.2821 34.3427 31.5351 34.5043 30.8826 34.3458C24.7132 32.8506 18.3615 32.2468 12.021 32.5529C11.7892 32.5529 11.5514 32.5285 11.0117 32.1413C12.6491 30.3972 14.1523 28.4824 15.9665 26.9578C17.5703 25.5979 19.476 24.5674 21.3329 23.549C23.2721 22.4818 25.1076 22.1311 27.4036 23.3355C30.6234 25.0278 34.075 24.4881 37.3527 22.869C38.0884 22.5155 38.925 22.4324 39.7158 22.6342C44.4932 24.1483 48.6459 27.1801 51.5432 31.2692C51.8115 31.6138 52.0005 32.0102 52.3176 32.5529Z" fill="#005BDD"/>
<path d="M2.39453 48.2375C2.45984 47.5376 2.57704 46.8436 2.74517 46.1611C2.98202 45.4308 3.46506 44.8053 4.11182 44.3916C4.75857 43.9778 5.52891 43.8014 6.29126 43.8926C7.02893 43.9668 7.71983 44.2882 8.25177 44.8047C8.78371 45.3211 9.12542 46.0022 9.22142 46.7374C9.33624 47.6935 9.35667 48.6586 9.28241 49.6187C9.13605 51.5763 7.75787 52.8447 5.92842 52.8447C4.09897 52.8447 2.69334 51.5031 2.51649 49.6218C2.47381 49.1705 2.51649 48.7071 2.51649 48.2528L2.39453 48.2375Z" fill="#005BDD"/>
<path d="M61.0551 48.3168C61.0029 49.0695 60.8907 49.8169 60.7197 50.5518C60.4936 51.2862 60.0145 51.9168 59.3676 52.3315C58.7206 52.7462 57.9477 52.9183 57.1859 52.8173C56.4443 52.7701 55.7429 52.464 55.2041 51.9524C54.6652 51.4408 54.3231 50.7563 54.2374 50.0182C54.1216 49.0622 54.1001 48.0971 54.1734 47.1368C54.3106 45.2128 55.7193 43.8865 57.5274 43.8804C59.3355 43.8743 60.7624 45.2037 60.9545 47.088C60.976 47.4943 60.976 47.9014 60.9545 48.3077L61.0551 48.3168Z" fill="#005BDD"/>
</svg>
