<svg width="68" height="68" viewBox="0 0 68 68" fill="none" xmlns="http://www.w3.org/2000/svg">
<path d="M4.52958 3.63491C3.43518 6.24636 2.90234 8.6937 2.90234 10.9917C2.90234 13.7524 3.60793 15.7371 5.17763 17.4532L6.0416 18.3784L7.55369 17.9457C8.38885 17.7069 9.61291 17.3637 10.2753 17.1697L11.4706 16.8414L11.9746 15.752C12.9394 13.633 12.7378 11.5737 11.3986 10.1561C11.053 9.79793 10.1746 8.96225 9.44009 8.30566C7.89926 6.94776 6.35844 5.18686 5.5232 3.85881C5.20643 3.36635 4.93283 2.93359 4.90403 2.90374C4.87523 2.87389 4.7024 3.20214 4.52958 3.63491Z" fill="#005BDD"/>
<path d="M31.4755 4.11079C31.0555 4.419 30.9686 4.65023 30.9686 5.44022C30.9686 6.86593 29.9257 6.76963 44.9751 6.76963C57.6196 6.76963 58.4601 6.75031 58.6626 6.42279C58.7927 6.24942 58.938 5.90257 58.9816 5.67134C59.0975 5.17045 58.7499 4.16855 58.4165 3.99518C57.9529 3.76395 31.7942 3.87956 31.4755 4.11079Z" fill="#005BDD"/>
<path d="M34.5928 8.88414C35.004 9.52406 35.5003 10.3872 35.6988 10.8188L36.0391 11.5926L45.0007 11.6074H53.9763L54.4153 10.6699C54.657 10.164 55.1387 9.33063 55.4791 8.80977C55.8194 8.28891 56.103 7.8425 56.103 7.81274C56.103 7.76805 51.0973 7.73828 44.9719 7.73828H33.8555L34.5928 8.88414Z" fill="#005BDD"/>
<path d="M36.4188 13.1164C36.5359 13.7045 36.4334 14.4319 36.1261 15.051C35.7602 15.8248 35.1749 16.3045 34.0188 16.7689C29.8041 18.4868 27.2285 20.9785 25.9553 24.5536C25.6333 25.4667 25.1504 27.4632 25.1504 27.912C25.1504 27.9894 32.7895 28.0513 44.9795 28.0513H64.8091V27.6953C64.8091 26.9215 64.1804 24.8012 63.5653 23.4857C62.1313 20.3904 59.7751 18.2856 56.0724 16.8153C54.7845 16.3045 54.2287 15.8403 53.8333 14.9736C53.5847 14.4164 53.5262 14.0759 53.5703 13.4105L53.6433 12.5747H44.9651H36.3017L36.4188 13.1164Z" fill="#005BDD"/>
<path d="M8.92271 18.9473C7.75283 19.2526 6.78763 19.5161 6.77304 19.53C6.71454 19.5855 8.32319 27.9644 8.39627 28.0476C8.45478 28.0893 9.84408 27.7702 11.5258 27.354C13.7193 26.7991 14.5383 26.5355 14.509 26.3968C14.4798 26.2858 13.7925 24.4408 12.9735 22.2767C11.8767 19.4051 11.4381 18.3647 11.2626 18.3786C11.1456 18.3925 10.0927 18.6422 8.92271 18.9473Z" fill="#005BDD"/>
<path d="M11.8704 28.8409C9.04625 29.51 8.66461 29.6304 8.71046 29.8578C8.83251 30.5001 9.87059 33.7384 9.97741 33.8455C10.1149 33.9793 16.1599 32.6545 16.4347 32.4405C16.5721 32.3334 15.3355 28.0246 15.1676 28.0514C15.1219 28.0647 13.6411 28.4127 11.8704 28.8409Z" fill="#2CD8B3"/>
<path d="M25.1504 30.9841C25.1504 32.0829 25.2084 33.0424 25.2664 33.1508C25.3243 33.2437 25.7011 33.4603 26.1215 33.6305C26.5273 33.8008 27.5419 34.4509 28.3825 35.1009C30.3537 36.6176 30.6291 36.7568 31.6002 36.7568C32.5858 36.7568 32.9336 36.5711 34.7163 35.1318C36.4556 33.708 36.8759 33.4913 37.9919 33.383C39.2674 33.2746 40.0501 33.6151 41.7458 34.9926C43.4562 36.3854 44.1226 36.7414 45.0074 36.7568C45.8334 36.7568 46.3982 36.4474 47.9351 35.1782C49.7611 33.6615 50.225 33.4294 51.6015 33.4294C53.0073 33.4294 53.3409 33.5997 55.5149 35.3639C56.356 36.0449 57.1964 36.633 57.3989 36.6949C57.6022 36.7414 58.1527 36.7568 58.6165 36.7259C59.414 36.664 59.5736 36.5711 61.3703 35.2247C62.4283 34.4353 63.603 33.677 63.9795 33.5377L64.6753 33.3055L64.7769 31.6495C64.8198 30.7364 64.8198 29.7769 64.7769 29.5138L64.6896 29.0186H44.92H25.1504V30.9841Z" fill="#2CD8B3"/>
<path d="M13.5459 34.6939C11.4648 35.2882 10.6268 35.5927 10.6408 35.7231C10.7665 36.7959 12.5263 44.2326 13.3504 47.2331C15.8645 56.3086 18.7975 63.093 20.8507 64.5571C21.2837 64.8757 21.3116 64.8757 21.563 64.6437C21.9541 64.2814 22.1636 63.2376 22.2334 61.2952C22.3871 57.4248 21.3255 50.7564 19.3422 43.087C18.6718 40.4487 16.8841 34.172 16.7444 33.94C16.6606 33.7951 16.9679 33.7226 13.5459 34.6939Z" fill="#005BDD"/>
<path d="M37.5884 34.8885C36.9392 35.0389 36.5998 35.2304 34.947 36.4064C33.1763 37.6509 32.2762 37.9791 31.0219 37.8697C29.9889 37.7877 29.6053 37.6099 27.5541 36.2697C25.8277 35.1483 25.2817 34.8475 25.1784 34.9432C24.9571 35.1483 26.0933 39.087 26.9934 41.3023L27.5246 42.5606L45.0108 42.5328L62.4972 42.4924L62.9986 41.261C63.8695 39.1687 64.9911 35.162 64.7841 34.9568C64.6515 34.8475 64.1647 35.1073 62.4972 36.215C60.6082 37.4732 59.9589 37.774 58.9852 37.8697C57.7011 37.9928 56.8455 37.6646 54.853 36.2834C52.1084 34.3825 51.4 34.3551 48.9506 36.0919C47.047 37.4185 46.1324 37.8287 44.9664 37.8287C43.8011 37.8151 43.063 37.5005 41.248 36.2287C40.4512 35.6817 39.6691 35.162 39.5067 35.08C39.0788 34.8611 38.0901 34.7791 37.5884 34.8885Z" fill="#2CD8B3"/>
<path d="M28.5027 45.3511C30.2883 48.7206 33.3804 52.3807 36.1241 54.3833L37.1403 55.1288H44.5147C52.9784 55.1288 51.8169 55.3226 53.9943 53.5826C56.0126 51.9667 58.3061 49.2322 59.9752 46.4281C60.4541 45.6274 60.89 44.8675 60.9338 44.7297C61.0348 44.5087 60.1788 44.4951 44.5441 44.4951H28.0527L28.5027 45.3511Z" fill="#005BDD"/>
<path d="M33.3931 58.6285C31.1947 59.4612 29.2934 60.2541 29.2043 60.3881C28.9369 60.6973 28.9666 61.248 29.2488 61.611L29.4717 61.9063H44.9643C59.7891 61.9063 60.4721 61.893 60.6951 61.6648C61.0216 61.3283 61.0216 60.5221 60.6951 60.2674C60.5462 60.1599 58.63 59.3942 56.4313 58.5607L52.4508 57.0698L44.9196 57.0831H37.4037L33.3931 58.6285Z" fill="#005BDD"/>
</svg>
