<svg width="68" height="68" viewBox="0 0 68 68" fill="none" xmlns="http://www.w3.org/2000/svg">
<g clip-path="url(#clip0_2239_440)">
<path d="M21.4708 3.53189C21.4177 4.35568 21.2848 4.56827 20.8065 4.62141C20.1953 4.70113 20.1953 4.72771 20.1953 9.4844V14.2411H20.8597H21.524V17.2971V20.353H34.5451H47.5662V17.2971V14.2411H48.2305H48.8949V9.4844C48.8949 4.72771 48.8949 4.70113 48.3103 4.62141C47.8054 4.56827 47.6725 4.35568 47.6193 3.53189L47.5396 2.54867H34.5451H21.5506L21.4708 3.53189ZM46.1046 9.85643V15.7026L42.969 15.7824C39.9396 15.8621 39.8067 15.8355 39.6738 15.2775C39.2752 13.7893 38.292 12.4606 36.8304 11.4508C35.5283 10.5473 35.236 10.441 34.8108 10.7334C34.4122 10.9725 34.1731 10.9725 33.7745 10.7334C33.3759 10.4942 33.057 10.5473 32.0737 11.1585C30.6653 11.9823 29.6555 13.1781 29.1506 14.6663L28.7786 15.7026H25.8821H22.9855L22.9058 10.1222C22.8793 7.06619 22.9058 4.40882 22.9855 4.22281C23.0653 3.9305 25.4303 3.87735 34.5982 3.9305L46.1046 4.01022V9.85643ZM34.6514 13.497C34.8906 15.6761 34.864 15.8355 34.2528 15.8355C33.7213 15.8355 33.6947 15.7292 33.8542 14.4271C33.9339 13.683 34.0136 12.8327 34.0136 12.5669C34.0136 11.5306 34.4919 12.2215 34.6514 13.497ZM46.2375 18.0943V18.7586H34.5451H22.8527V18.0943V17.4299H34.5451H46.2375V18.0943Z" fill="#005BDD"/>
<path d="M32.2609 5.31219C31.5169 6.05625 31.3574 6.42828 31.3574 7.33179C31.3574 8.26187 31.5169 8.60733 32.2875 9.37796C33.1644 10.2549 33.3239 10.308 34.4665 10.1752C37.1239 9.88286 38.1337 7.14577 36.3001 5.31219C35.5561 4.56813 35.184 4.40869 34.2805 4.40869C33.377 4.40869 33.005 4.56813 32.2609 5.31219Z" fill="#005BDD"/>
<path d="M24.1816 5.20583C24.1816 5.68416 24.3411 5.7373 25.9355 5.7373C27.4502 5.7373 27.6628 5.68416 27.5831 5.25898C27.5033 4.88695 27.1579 4.78065 25.8292 4.72751C24.3145 4.64778 24.1816 4.70093 24.1816 5.20583Z" fill="#005BDD"/>
<path d="M43.2096 5.36504C42.7047 5.86994 42.7047 5.97624 43.1299 6.87974C43.5019 7.70353 44.0334 7.80982 44.5383 7.1189C45.5215 5.84337 44.3257 4.24895 43.2096 5.36504ZM44.3523 5.84337C44.5649 6.1091 44.5649 6.26855 44.2725 6.50771C44.0068 6.74687 43.8474 6.7203 43.5816 6.42799C43.2627 6.02938 43.4222 5.47134 43.8208 5.47134C43.9537 5.47134 44.1928 5.63078 44.3523 5.84337Z" fill="#005BDD"/>
<path d="M24.1816 6.82668C24.1816 7.30501 24.3145 7.35816 25.2977 7.27844C26.1215 7.22529 26.467 7.06585 26.5201 6.72039C26.5998 6.34836 26.4138 6.26864 25.404 6.26864C24.3411 6.26864 24.1816 6.34836 24.1816 6.82668Z" fill="#005BDD"/>
<path d="M24.1816 8.39455C24.1816 8.81973 24.3677 8.92603 24.9789 8.92603C25.59 8.92603 25.7761 8.81973 25.7761 8.39455C25.7761 7.96937 25.59 7.86308 24.9789 7.86308C24.3677 7.86308 24.1816 7.96937 24.1816 8.39455Z" fill="#005BDD"/>
<path d="M24.1816 9.98903C24.1816 10.2813 24.3677 10.5205 24.5802 10.5205C24.7928 10.5205 24.9789 10.2813 24.9789 9.98903C24.9789 9.69672 24.7928 9.45756 24.5802 9.45756C24.3677 9.45756 24.1816 9.69672 24.1816 9.98903Z" fill="#005BDD"/>
<path d="M8.87598 21.5648C6.75009 22.548 5.50112 25.1788 6.11232 27.4641C6.75009 29.8823 8.71654 31.4236 11.1613 31.4236C14.5362 31.4236 17.0872 28.2347 16.2369 25.0991C15.5725 22.6277 13.6327 21.0599 11.1613 21.0599C10.497 21.0599 9.4606 21.299 8.87598 21.5648Z" fill="#005BDD"/>
<path d="M54.5818 21.5648C52.4293 22.548 51.1538 25.2851 51.7916 27.4907C51.9776 28.1019 52.4293 29.032 52.8014 29.5369C54.6881 32.0082 59.0462 32.0082 60.9329 29.5369C63.5903 26.0026 61.2252 21.0599 56.8671 21.0599C56.2028 21.0599 55.1664 21.299 54.5818 21.5648Z" fill="#005BDD"/>
<path d="M7.8135 32.1943C7.20231 32.4601 6.37852 33.151 5.95334 33.709L5.18271 34.6922L5.10299 40.8573C4.99669 47.8462 5.15613 48.9092 6.51139 50.1847C7.70721 51.3274 9.16876 51.6197 13.3408 51.6197H16.9017L17.4863 57.2533C17.8318 60.3624 18.2304 63.3121 18.3632 63.7638C18.7087 64.8799 19.5325 65.438 20.7283 65.438C21.7115 65.438 22.5885 64.7736 22.9339 63.7904C23.0136 63.5513 22.6948 59.9107 22.1899 55.712C21.1003 46.3847 21.3129 46.7833 17.4066 46.6238L14.8821 46.5175V43.7007C14.8821 41.0434 14.9087 40.9371 15.3604 41.3357C16.9283 42.7706 20.4891 43.2755 22.8808 42.4518C23.9969 42.0532 24.05 42.0532 24.5018 42.6378C24.8738 43.1427 25.0067 43.1958 25.299 42.9035C25.5381 42.6644 25.5647 42.4518 25.3256 42.0797C25.1395 41.7874 25.113 41.4685 25.2724 41.2294C25.4053 41.0168 25.5116 40.4853 25.5116 40.007C25.5116 39.0503 24.5018 38.0671 23.5185 38.0671C23.0402 38.0671 22.6682 37.6685 21.8975 36.3398C20.9409 34.7188 20.5423 34.3734 20.1171 34.7985C20.0108 34.8783 20.3563 35.7286 20.8877 36.6587C21.4192 37.6154 21.7647 38.4391 21.685 38.5189C21.6052 38.5986 20.9675 38.7314 20.2766 38.7846C18.5227 38.944 17.7521 38.386 15.2541 35.2503C13.0485 32.4601 11.9058 31.6894 9.96597 31.6894C9.38135 31.6894 8.39812 31.9286 7.8135 32.1943Z" fill="#005BDD"/>
<path d="M55.9104 32.1943C55.1132 32.5664 54.2363 33.4167 52.7747 35.2503C49.7985 38.9706 49.1607 39.2629 45.8124 38.4391C44.1383 38.014 44.0586 38.014 43.3676 38.5189C42.5704 39.1035 42.3578 40.007 42.7564 41.0434C42.9425 41.5748 43.3942 41.8671 44.6698 42.2923C47.6194 43.2755 50.9677 42.8769 52.6684 41.3357C53.1202 40.9371 53.1468 41.0434 53.1468 43.7007V46.5175L50.6223 46.6238C46.7159 46.7833 46.9285 46.3847 45.839 55.712C45.3341 59.9107 45.0152 63.5513 45.0949 63.7904C45.4404 64.7736 46.3173 65.438 47.3005 65.438C48.4964 65.438 49.3201 64.8799 49.6656 63.7638C49.7985 63.3121 50.1971 60.3624 50.5425 57.2799L51.1272 51.6197H54.688C58.8601 51.6197 60.3216 51.3274 61.5175 50.1847C62.8727 48.9092 63.0322 47.8462 62.9259 40.8573L62.8461 34.6922L62.0755 33.709C60.6405 31.8223 58.0895 31.2111 55.9104 32.1943Z" fill="#005BDD"/>
<path d="M37.097 33.3368C36.911 33.6823 36.2201 35.5425 35.5823 37.4558L34.4397 40.9901H30.6396C27.1053 40.9901 26.8396 41.0166 26.4676 41.5481C26.2018 41.9467 26.1487 42.2922 26.3081 42.7439L26.5739 43.3817H24.0759C21.3123 43.3817 20.6213 43.674 20.3025 45.0293C20.1696 45.6139 20.3025 45.9062 20.9402 46.5705C21.6577 47.288 21.9235 47.3677 23.3584 47.3677H24.9794V56.0042V64.6406H33.6159H42.2523V56.0042V47.3677H43.8202C45.8132 47.3677 46.7698 46.7034 46.7698 45.3481C46.7698 44.7901 46.5573 44.232 46.2384 43.9132C45.7335 43.4083 45.3614 43.3817 40.8971 43.3817C37.0705 43.3817 36.1404 43.302 36.3264 43.0362C36.6718 42.611 39.3292 34.6124 39.3292 34.0278C39.3292 33.4431 38.6117 32.7522 38.0005 32.7522C37.7082 32.7522 37.3096 33.018 37.097 33.3368Z" fill="#2CD8B3"/>
<path d="M0.558047 34.7719C0.0265737 35.4628 0 35.7817 0 45.2153C0 54.4098 0.0265737 54.9944 0.5049 55.4993C0.903505 55.9511 0.930079 56.1637 0.690916 56.5623C0.531474 56.8546 0.398605 58.5553 0.398605 60.8141C0.398605 64.1623 0.451752 64.6407 0.903505 65.1456C1.5147 65.8365 2.68394 65.8631 3.26856 65.2519C3.58745 64.8798 3.69374 64.0029 3.77346 61.2392C3.87976 56.7749 3.69374 56.9343 8.13154 56.9343C10.7358 56.9343 11.4798 57.014 11.7987 57.3595C12.1442 57.6784 12.2239 58.4224 12.2239 60.9469C12.2239 64.8798 12.5428 65.7036 14.1106 65.7036C15.4659 65.7036 15.6785 65.0924 15.6785 60.9469C15.6785 58.8476 15.5456 56.9343 15.4127 56.642C15.2001 56.2434 15.2533 56.0042 15.6785 55.5525C16.3428 54.835 16.3694 53.7189 15.705 52.9217C15.2001 52.2839 15.1204 52.2839 9.5931 52.2042L3.98605 52.1245V43.6209C3.98605 35.4893 3.95948 35.1173 3.45458 34.6124C2.65737 33.8152 1.24896 33.8949 0.558047 34.7719Z" fill="#005BDD"/>
<path d="M64.5735 34.6124C64.0686 35.1173 64.042 35.4893 64.042 43.6209V52.1245L58.435 52.2042C52.9077 52.2839 52.828 52.2839 52.3231 52.9217C51.6587 53.7189 51.6853 54.835 52.3496 55.5525C52.7748 56.0042 52.828 56.2434 52.6154 56.642C52.4825 56.9343 52.3496 58.8476 52.3496 61.0001C52.3496 64.3749 52.4028 64.8798 52.828 65.2519C53.0937 65.5176 53.5986 65.7036 53.9706 65.7036C55.4853 65.677 55.8042 64.8267 55.8042 60.9469C55.8042 58.4224 55.8839 57.6784 56.2294 57.3595C56.5483 57.014 57.2923 56.9343 59.8966 56.9343C64.3344 56.9343 64.1483 56.7749 64.2546 61.2392C64.3344 64.0029 64.4407 64.8798 64.7595 65.2253C65.3442 65.8631 66.5134 65.8365 67.1246 65.1456C67.5498 64.6672 67.6295 64.1623 67.6295 61.3455C67.6295 59.5917 67.6029 57.5986 67.5763 56.9343C67.5498 56.27 67.6029 51.0881 67.6561 45.4013C67.7624 35.9942 67.7358 35.011 67.3372 34.5858C66.726 33.9215 65.2644 33.9215 64.5735 34.6124Z" fill="#005BDD"/>
</g>
<defs>
<clipPath id="clip0_2239_440">
<rect width="67.71" height="67.71" fill="white"/>
</clipPath>
</defs>
</svg>
