<svg width="68" height="68" viewBox="0 0 68 68" fill="none" xmlns="http://www.w3.org/2000/svg">
<path d="M30.1945 1.44074C29.7449 1.89037 29.7212 2.22168 29.7212 7.21502V12.4923L28.041 12.658C25.8402 12.8946 22.7637 13.7939 20.3499 14.9062C15.9718 16.965 12.4457 20.1361 10.8365 23.4729C10.2922 24.5615 9.79524 25.8158 9.72425 26.2181L9.55859 26.999H31.1411H52.7237L52.558 26.2181C52.4871 25.8158 51.9901 24.5615 51.4458 23.4729C49.8366 20.1361 46.3105 16.965 41.9324 14.9062C39.5186 13.7939 36.4421 12.8946 34.2413 12.658L32.5611 12.4923V11.1198V9.74718L36.4895 9.67618C41.5301 9.58152 41.3171 9.77084 41.3171 5.41647C41.3171 2.482 41.1515 1.58273 40.5125 1.15675C40.3705 1.06209 38.0987 0.967434 35.4719 0.967434C30.9755 0.967434 30.6442 0.991099 30.1945 1.44074Z" fill="#005BDD"/>
<path d="M9.43164 46.018V54.3879H11.4245H13.4173V46.018V37.648H11.4245H9.43164V46.018Z" fill="#005BDD"/>
<path d="M48.0742 46.018V54.3879H50.0671H52.0599V46.018V37.648H50.0671H48.0742V46.018Z" fill="#005BDD"/>
<path d="M33.8171 49.8791V57.3436H28.8118V49.9105C28.6297 49.8866 28.4941 49.8577 28.3572 49.8515C27.0911 49.7962 26.2897 48.9936 26.2835 47.7363C26.2747 45.9364 26.2709 44.1365 26.2835 42.3354C26.2786 41.9366 26.3534 41.5409 26.5033 41.1713C26.6533 40.8018 26.8756 40.4659 27.157 40.1833C27.4384 39.9007 27.7734 39.6771 28.1423 39.5256C28.5112 39.374 28.9066 39.2977 29.3055 39.3009C30.6452 39.2858 31.985 39.2858 33.3247 39.3009C33.7183 39.2997 34.1082 39.3762 34.4722 39.5261C34.8361 39.6759 35.1669 39.8962 35.4455 40.1741C35.7242 40.4521 35.9452 40.7823 36.096 41.1458C36.2468 41.5094 36.3243 41.8991 36.3241 42.2927C36.3442 43.967 36.3304 45.6413 36.3304 47.3168C36.3291 49.1054 35.7112 49.7598 33.8171 49.8791Z" fill="#005BDD"/>
<path d="M19.7355 56.0112V48.5466C19.5069 48.5353 19.3236 48.529 19.1414 48.5165C18.6334 48.4933 18.1536 48.2762 17.801 47.9097C17.4484 47.5433 17.2498 47.0556 17.2461 46.547C17.226 44.6441 17.2147 42.7388 17.2461 40.8359C17.2725 40.0849 17.5832 39.372 18.1153 38.8415C18.6475 38.311 19.3613 38.0025 20.1124 37.9784C21.5342 37.9445 22.9572 37.9495 24.3828 37.9784C25.3877 37.9985 26.1739 38.4733 26.7894 39.3412C25.4718 40.4038 25.2068 41.8533 25.2608 43.4459C25.3161 45.0963 25.2734 46.7505 25.2734 48.4486C24.8526 48.475 24.7521 48.7086 24.7571 49.1294C24.7848 51.4078 24.7697 53.6863 24.7697 56.0124L19.7355 56.0112Z" fill="#005BDD"/>
<path d="M42.9031 56.0109V48.5464C43.1317 48.5351 43.3151 48.5288 43.4972 48.5162C44.0052 48.4931 44.485 48.2759 44.8377 47.9095C45.1903 47.5431 45.3889 47.0553 45.3926 46.5468C45.4127 44.6439 45.424 42.7385 45.3926 40.8356C45.3662 40.0847 45.0555 39.3718 44.5233 38.8413C43.9912 38.3108 43.2774 38.0022 42.5263 37.9782C41.1045 37.9443 39.6814 37.9493 38.2558 37.9782C37.251 37.9983 36.4647 38.473 35.8493 39.341C37.1669 40.4036 37.4319 41.853 37.3779 43.4456C37.3226 45.0961 37.3653 46.7503 37.3653 48.4484C37.7861 48.4748 37.8866 48.7084 37.8815 49.1292C37.8539 51.4076 37.869 53.686 37.869 56.0122L42.9031 56.0109Z" fill="#005BDD"/>
<path d="M22.202 37.6824C21.8042 37.6809 21.4107 37.601 21.0438 37.4473C20.6769 37.2935 20.344 37.0689 20.064 36.7864C19.784 36.5038 19.5625 36.1688 19.4121 35.8006C19.2617 35.4323 19.1854 35.0381 19.1875 34.6403C19.1984 33.8471 19.5205 33.0899 20.0843 32.5319C20.6482 31.9739 21.4087 31.6598 22.202 31.6572C22.6002 31.6572 22.9945 31.7361 23.362 31.8893C23.7295 32.0425 24.0631 32.267 24.3434 32.5499C24.6237 32.8327 24.8451 33.1683 24.995 33.5372C25.1448 33.9062 25.2201 34.3011 25.2165 34.6993C25.2062 35.4927 24.8844 36.2503 24.3204 36.8084C23.7564 37.3666 22.9955 37.6805 22.202 37.6824Z" fill="#005BDD"/>
<path d="M40.4692 31.6572C40.8675 31.66 41.2612 31.7416 41.6277 31.8975C41.9942 32.0533 42.3261 32.2801 42.6044 32.565C42.8827 32.8498 43.1018 33.187 43.2491 33.557C43.3963 33.927 43.4688 34.3225 43.4623 34.7207C43.4462 35.5129 43.1197 36.2671 42.5531 36.821C41.9866 37.3749 41.2252 37.6842 40.4328 37.6824C40.035 37.6783 39.6419 37.5957 39.276 37.4395C38.9101 37.2832 38.5787 37.0563 38.3006 36.7717C38.0226 36.4871 37.8034 36.1505 37.6557 35.7811C37.508 35.4117 37.4346 35.0168 37.4397 34.6189C37.4558 33.8268 37.7823 33.0726 38.3489 32.5187C38.9155 31.9648 39.6769 31.6554 40.4692 31.6572Z" fill="#005BDD"/>
<path d="M31.3225 38.791C30.9246 38.792 30.5304 38.7144 30.1626 38.5627C29.7947 38.4109 29.4605 38.188 29.179 37.9068C28.8975 37.6255 28.6743 37.2915 28.5223 36.9237C28.3702 36.556 28.2923 36.1619 28.293 35.764C28.2995 34.9712 28.6174 34.2127 29.178 33.6521C29.7386 33.0915 30.4971 32.7737 31.2898 32.7671C31.6877 32.7655 32.082 32.8426 32.4499 32.994C32.8178 33.1455 33.1521 33.3683 33.4335 33.6496C33.7149 33.9308 33.9379 34.265 34.0895 34.6329C34.2411 35.0008 34.3184 35.395 34.3169 35.7929C34.3106 36.5855 33.9933 37.3439 33.4332 37.9047C32.8731 38.4655 32.1151 38.7838 31.3225 38.791Z" fill="#005BDD"/>
<path fill-rule="evenodd" clip-rule="evenodd" d="M35.6837 35.5185C35.6682 34.9886 35.5568 34.4654 35.3545 33.9746C35.1338 33.4391 34.8093 32.9526 34.3997 32.5432C33.9901 32.1338 33.5035 31.8095 32.9679 31.589C32.4324 31.3685 31.8585 31.2563 31.2793 31.2587C30.1253 31.2682 29.0213 31.7309 28.2053 32.5469C27.4134 33.3388 26.9543 34.4018 26.9191 35.5185H25.9705C26.0643 35.1852 26.1152 34.8384 26.1197 34.4863C26.1245 33.9595 26.025 33.4369 25.8269 32.9488C25.6287 32.4607 25.3359 32.0167 24.9654 31.6425C24.5948 31.2683 24.1538 30.9713 23.6678 30.7686C23.1819 30.5659 22.6606 30.4615 22.1341 30.4615C21.0853 30.4649 20.0798 30.8805 19.3343 31.6187C18.5887 32.357 18.1629 33.3587 18.1485 34.4082C18.1465 34.7843 18.1975 35.158 18.2993 35.5185H8.99727C7.47633 35.5185 6.23972 34.2925 6.22667 32.7716C6.21354 31.2428 7.43599 29.9928 8.96477 29.981C13.2601 29.9479 22.0291 29.8931 31.4224 29.9099L52.6882 29.9517C54.2233 29.9548 55.4661 31.2 55.4661 32.7351C55.4661 34.2723 54.22 35.5185 52.6828 35.5185H44.3043C44.3957 35.1942 44.4466 34.857 44.4536 34.5145C44.4621 33.9877 44.3662 33.4644 44.1713 32.9749C43.9765 32.4854 43.6865 32.0393 43.3182 31.6625C42.9499 31.2856 42.5105 30.9855 42.0255 30.7793C41.5405 30.5732 41.0194 30.4652 40.4924 30.4615C39.4438 30.4591 38.4361 30.8684 37.6863 31.6012C36.9365 32.334 36.5044 33.3318 36.483 34.3799C36.478 34.7654 36.5288 35.1489 36.6332 35.5185H35.6837Z" fill="#005BDD"/>
<rect x="5" y="57.7366" width="57.2631" height="6.26316" rx="3.13158" fill="#2CD8B3"/>
</svg>
