<svg width="68" height="68" viewBox="0 0 68 68" fill="none" xmlns="http://www.w3.org/2000/svg">
<path d="M17.9993 1.60012C16.5975 1.87784 15.4338 2.85646 14.9841 4.13925C14.7593 4.78725 14.7461 5.89812 14.7461 25.0606C14.7461 41.5649 14.7725 45.4 14.918 45.9026C15.1957 46.8547 15.9495 47.7408 16.9149 48.2301L17.7481 48.6665H33.8424H49.95L50.7567 48.2565C51.6824 47.7937 52.1321 47.3176 52.6214 46.2861L52.9652 45.5587L53.0049 30.8397L53.0446 16.134H48.5746C46.1149 16.134 43.6948 16.0678 43.179 16.0017C40.8118 15.6579 38.9339 13.8726 38.4843 11.5054C38.4049 11.1218 38.352 8.71496 38.352 6.13616V1.45465L28.4732 1.46788C23.0247 1.4811 18.3167 1.534 17.9993 1.60012ZM35.0591 11.7566C35.3236 11.9682 35.35 12.0608 35.2442 12.3782L35.112 12.7617L27.9178 12.8014C21.3584 12.8278 20.6972 12.8146 20.4723 12.6162C20.1682 12.3253 20.1682 12.1005 20.4988 11.7698C20.7501 11.5186 20.9352 11.5054 27.7591 11.5054C34.4243 11.5054 34.7682 11.5186 35.0591 11.7566ZM35.0988 16.3456C35.3765 16.6101 35.3633 16.9142 35.0855 17.2184C34.8872 17.4432 34.4904 17.4564 27.812 17.4564C20.9352 17.4564 20.7633 17.4564 20.4988 17.1919C20.1814 16.8745 20.1682 16.6894 20.4591 16.372C20.6575 16.1472 21.0675 16.134 27.7856 16.134C34.0672 16.134 34.9136 16.1604 35.0988 16.3456ZM25.7093 23.434C26.0399 23.5397 26.4895 23.8439 26.8598 24.201C29.1477 26.4888 27.8649 30.9984 24.929 30.9984C21.9932 30.9984 20.7104 26.4888 22.9982 24.201C23.8578 23.3546 24.6513 23.1166 25.7093 23.434ZM31.6339 23.5001C31.8455 23.6984 31.872 23.9762 31.872 26.6475V29.5834L32.4009 29.6627C32.7051 29.7024 33.0225 29.8082 33.1283 29.8876C33.3928 30.0992 33.3796 30.5356 33.1019 30.8397C32.9167 31.0513 32.6654 31.0778 31.2901 31.0778C29.5312 31.0778 29.0948 30.9323 29.0948 30.3636C29.0948 29.9537 29.3593 29.7421 30.0205 29.6627L30.5495 29.5834V27.3484C30.5495 25.1796 30.5363 25.1267 30.2982 25.2589C29.7031 25.5763 29.0948 25.3383 29.0948 24.7961C29.0948 24.439 29.3461 24.2142 30.3511 23.6852C31.2769 23.2091 31.3033 23.2091 31.6339 23.5001ZM38.2727 23.434C39.5555 23.8175 40.6002 25.497 40.6002 27.1765C40.6002 30.6281 37.1486 32.3077 35.2178 29.7818C33.6573 27.7319 34.4508 24.2539 36.646 23.4604C37.2412 23.2488 37.6114 23.2356 38.2727 23.434ZM44.1973 23.5001C44.4089 23.6984 44.4353 23.9762 44.4353 26.6475V29.5834L44.9643 29.6627C45.2685 29.7024 45.5859 29.8082 45.6917 29.8876C45.9562 30.0992 45.9429 30.5356 45.6652 30.8397C45.4801 31.0513 45.2288 31.0778 43.8535 31.0778C42.0946 31.0778 41.6582 30.9323 41.6582 30.3636C41.6582 29.9537 41.9227 29.7421 42.5839 29.6627L43.1129 29.5834V27.3484C43.1129 25.1796 43.0997 25.1267 42.8616 25.2589C42.2665 25.5763 41.6582 25.3383 41.6582 24.7961C41.6582 24.439 41.9094 24.2142 42.9145 23.6852C43.8402 23.2091 43.8667 23.2091 44.1973 23.5001ZM24.3075 34.86C24.5984 35.0584 24.5984 35.1113 24.5984 38.1V41.1285H25.1671C25.4845 41.1285 25.8019 41.1946 25.8944 41.2872C26.1193 41.512 26.0928 41.922 25.8283 42.2129C25.6432 42.4245 25.3919 42.4509 23.9636 42.4509C22.1783 42.4509 21.8213 42.3319 21.8213 41.7236C21.8213 41.3004 22.0725 41.1285 22.7073 41.1285H23.276V38.8274V36.5131L22.8396 36.6982C22.4428 36.8569 22.3502 36.8569 22.1122 36.685C21.7684 36.447 21.7419 35.9577 22.0593 35.6799C22.2709 35.4948 23.7785 34.6749 23.9372 34.6484C23.9769 34.6484 24.1488 34.741 24.3075 34.86ZM31.5281 35.0848C33.049 35.9312 33.7499 38.272 33.049 40.1631C32.5729 41.4194 31.3033 42.4509 30.2189 42.4509C29.6106 42.4509 28.8568 42.0939 28.2881 41.5252C25.4448 38.6819 28.1823 33.2334 31.5281 35.0848ZM36.8709 34.86C37.1618 35.0584 37.1618 35.1113 37.1618 38.1V41.1285H37.7305C38.0479 41.1285 38.3652 41.1946 38.4578 41.2872C38.6826 41.512 38.6562 41.922 38.3917 42.2129C38.2066 42.4245 37.9553 42.4509 36.527 42.4509C34.7417 42.4509 34.3846 42.3319 34.3846 41.7236C34.3846 41.3004 34.6359 41.1285 35.2707 41.1285H35.8393V38.8274V36.5131L35.4029 36.6982C35.0062 36.8569 34.9136 36.8569 34.6756 36.685C34.3317 36.447 34.3053 35.9577 34.6227 35.6799C34.8343 35.4948 36.3419 34.6749 36.5006 34.6484C36.5402 34.6484 36.7122 34.741 36.8709 34.86ZM44.0915 35.0848C45.6123 35.9312 46.3132 38.272 45.6123 40.1631C45.1362 41.4194 43.8667 42.4509 42.7823 42.4509C42.1739 42.4509 41.4201 42.0939 40.8515 41.5252C38.0082 38.6819 40.7457 33.2334 44.0915 35.0848Z" fill="#2CD8B3"/>
<path d="M24.3867 24.7828C23.0113 25.3912 22.7204 27.9435 23.8841 29.1734C24.2412 29.5569 24.3867 29.623 24.9289 29.623C25.4711 29.623 25.6166 29.5569 25.9868 29.1734C27.5606 27.4939 26.2778 23.9497 24.3867 24.7828Z" fill="#2CD8B3"/>
<path d="M36.9496 24.7828C35.5875 25.3912 35.2833 27.9567 36.4339 29.1734C36.8041 29.5569 36.9496 29.623 37.4918 29.623C38.034 29.623 38.1795 29.5569 38.5498 29.1734C40.1235 27.4939 38.8407 23.9497 36.9496 24.7828Z" fill="#2CD8B3"/>
<path d="M29.1604 36.5527C27.8115 37.9942 28.5256 41.0491 30.2184 41.0491C31.8979 41.0491 32.6252 37.981 31.2763 36.5659C30.906 36.1692 30.7606 36.1031 30.2184 36.1031C29.6762 36.1031 29.5307 36.1692 29.1604 36.5527Z" fill="#2CD8B3"/>
<path d="M41.7229 36.5527C40.374 37.9942 41.0881 41.0491 42.7809 41.0491C44.4736 41.0491 45.1877 37.9942 43.8388 36.5527C43.4685 36.1692 43.3231 36.1031 42.7809 36.1031C42.2387 36.1031 42.0932 36.1692 41.7229 36.5527Z" fill="#2CD8B3"/>
<path d="M39.8066 6.42705C39.8066 12.3252 39.8066 12.312 40.9836 13.5022C42.1738 14.6924 42.1738 14.6924 48.0456 14.6528L53.0312 14.6131L46.4189 8.00078L39.8066 1.38848V6.42705Z" fill="#2CD8B3"/>
<path d="M8.29244 19.4533C7.10222 19.731 6.05748 20.5906 5.52849 21.7544L5.22433 22.4156L5.18465 39.6341L5.1582 56.8657H33.8556H62.553L62.5266 39.6341L62.4869 22.4156L62.1827 21.7412C61.7992 20.8948 60.9661 20.0749 60.1065 19.6781C59.5113 19.4004 59.2072 19.374 56.9061 19.3343L54.3537 19.2814V21.3444V23.4075H56.4036H58.4534V38.0868V52.7661H33.8556H9.25783V38.0868V23.4075H11.3076H13.3575V21.3576V19.3078L11.0828 19.3211C9.82649 19.3343 8.57015 19.3872 8.29244 19.4533Z" fill="#005BDD"/>
<path d="M1.89103 58.3205C1.37527 58.5321 1.28269 58.9024 1.34882 60.7538C1.40172 62.2482 1.45461 62.5788 1.74556 63.2136C2.43324 64.7212 3.84827 65.8056 5.4749 66.1098C6.58576 66.3081 61.124 66.3081 62.2349 66.1098C63.9012 65.8056 65.422 64.5889 66.0172 63.0813C66.242 62.4994 66.3213 61.9969 66.361 60.6348C66.4007 59.0611 66.3874 58.8759 66.1494 58.585L65.8849 58.2543L34.0268 58.2279C15.843 58.2147 2.06295 58.2543 1.89103 58.3205ZM37.5578 61.2696C37.9678 61.4679 38.0471 61.9572 37.7429 62.3011C37.5313 62.5391 37.2933 62.5523 33.8549 62.5523C30.4165 62.5523 30.1785 62.5391 29.9669 62.3011C29.6627 61.9572 29.7421 61.4679 30.152 61.2696C30.6149 61.0315 37.0949 61.0315 37.5578 61.2696Z" fill="#005BDD"/>
</svg>
