<svg width="68" height="68" viewBox="0 0 68 68" fill="none" xmlns="http://www.w3.org/2000/svg">
<path d="M54.4854 8.50345C53.8374 8.83406 53.8242 8.96631 53.8242 14.5735C53.8242 18.0781 53.8639 19.8502 53.9565 19.9031C54.0358 19.956 54.5383 20.1014 55.0806 20.2205L56.0724 20.4585V18.1706V15.8696H59.5108C62.7773 15.8696 62.9624 15.8563 63.2137 15.6051C63.5575 15.2612 63.5708 14.3752 63.2401 14.0446C62.9889 13.7933 55.9798 8.76794 55.5037 8.50345C55.1335 8.29186 54.8954 8.29186 54.4854 8.50345Z" fill="#005BDD"/>
<path d="M8.38392 11.188C6.28121 12.6824 4.48266 14.0049 4.39009 14.1239C4.13882 14.4545 4.19172 15.3009 4.49589 15.6051C4.74715 15.8563 4.9323 15.8696 8.19878 15.8696H11.6372V18.1706V20.4585L12.6422 20.2205C13.1977 20.0882 13.687 19.9427 13.7399 19.9031C13.8589 19.784 13.925 11.3864 13.8192 10.0772C13.7134 8.76794 13.5018 8.46378 12.7084 8.46378C12.2587 8.46378 11.7694 8.78117 8.38392 11.188Z" fill="#005BDD"/>
<path d="M25.6551 9.78613C25.4038 10.0374 25.3906 10.2225 25.3906 12.6955C25.3906 15.8562 25.3906 15.8694 26.7131 15.8694H27.5066V17.0729V18.2896L28.2075 18.197C28.5778 18.1573 29.0538 18.1176 29.2654 18.1176H29.6225V16.9935V15.8694H33.8544H38.0862V16.9935V18.1176H38.4565C38.6549 18.1176 39.131 18.1573 39.5145 18.197L40.2022 18.2896V17.0729V15.8694H40.9957C42.3181 15.8694 42.3181 15.8562 42.3181 12.6955C42.3181 10.2225 42.3049 10.0374 42.0536 9.78613C41.7891 9.52163 41.6172 9.52163 33.8544 9.52163C26.0915 9.52163 25.9196 9.52163 25.6551 9.78613Z" fill="#005BDD"/>
<path d="M27.7711 20.1807C27.4405 20.2071 26.2503 20.2864 25.1262 20.3658C16.2261 21.0006 8.05324 22.9975 4.64129 25.3911C3.22626 26.383 2.80307 27.4806 3.43785 28.4989C4.05941 29.504 6.50596 30.8926 9.26991 31.8051L10.7511 32.3076L12.8141 31.8315C14.9697 31.329 17.7998 30.8132 18.3288 30.8132C18.5007 30.8132 18.6462 30.7736 18.6462 30.7074C18.6462 30.6545 17.575 29.5437 16.2657 28.2344C14.1498 26.1185 13.8853 25.8143 13.8853 25.4308C13.8853 24.8622 14.282 24.4654 14.8375 24.4654C15.2078 24.4654 15.6045 24.8093 18.2494 27.441L21.225 30.4033L23.0764 30.2181C25.8668 29.9272 28.7894 29.7553 30.6805 29.7553C31.6195 29.7553 32.4659 29.7156 32.5849 29.6759C32.77 29.6098 32.7965 29.1998 32.7965 26.502C32.7965 24.1084 32.8362 23.3017 32.9816 22.9446C33.1932 22.4553 33.6164 22.2569 34.1983 22.4024C34.8198 22.5611 34.9124 23.0768 34.9124 26.502V29.5966L35.2166 29.6759C35.3753 29.7156 36.2481 29.7553 37.1606 29.7553C39.0517 29.7553 42.3976 29.9536 44.8309 30.2181L46.484 30.39L49.4859 27.4013C52.078 24.8225 52.5408 24.4258 52.8847 24.4258C53.4533 24.4258 53.8236 24.796 53.8236 25.3647C53.8236 25.8011 53.6252 26.0392 51.4432 28.2344C50.1339 29.5437 49.0628 30.6678 49.0628 30.7207C49.0628 30.7736 49.2082 30.8132 49.3669 30.8132C49.9488 30.8132 53.5327 31.4745 55.1064 31.8712C55.966 32.096 56.7991 32.2679 56.9578 32.2679C57.8571 32.2679 62.0361 30.4429 63.2395 29.5304C65.0513 28.1419 64.9852 26.7401 63.0676 25.3911C60.3169 23.4604 54.7229 21.8205 47.7138 20.8948C43.2836 20.3129 41.538 20.2071 34.8463 20.1674C31.2889 20.1542 28.1017 20.1542 27.7711 20.1807Z" fill="#005BDD"/>
<path d="M3.17383 35.4023V39.7267L3.51767 40.216C5.18397 42.6229 13.2907 45.1224 22.4818 46.0745C26.4359 46.4845 29.4247 46.5903 34.8864 46.511C40.2821 46.4316 42.8609 46.2729 46.987 45.7572C55.054 44.7653 61.2828 42.9668 63.5442 40.9698C64.5625 40.0706 64.536 40.216 64.536 35.3758C64.536 33.0086 64.5096 31.0778 64.4831 31.0778C64.4567 31.0778 64.1128 31.2894 63.7293 31.5539C60.119 34.0137 52.8058 35.7726 42.6493 36.6322C39.8721 36.8702 31.1174 36.9496 27.8377 36.7776C16.6365 36.1693 8.04048 34.2914 3.98053 31.5539C3.59702 31.2894 3.25318 31.0778 3.22673 31.0778C3.20028 31.0778 3.17383 33.0219 3.17383 35.4023ZM6.87672 35.1775C7.26023 35.3758 7.4057 36.0371 7.4057 37.5843C7.4057 39.2506 7.22056 39.8854 6.69157 40.0177C6.10969 40.1631 5.6865 39.9648 5.47491 39.4755C5.25009 38.9333 5.22364 36.3148 5.42201 35.7461C5.67328 35.0981 6.28161 34.8601 6.87672 35.1775ZM61.8911 35.1775C62.2746 35.3758 62.4201 36.0371 62.4201 37.5843C62.4201 39.2506 62.2349 39.8854 61.7059 40.0177C61.1241 40.1631 60.7009 39.9648 60.4893 39.4755C60.2645 38.9333 60.238 36.3148 60.4364 35.7461C60.6877 35.0981 61.296 34.8601 61.8911 35.1775ZM14.2825 37.2934C14.666 37.4918 14.8115 38.153 14.8115 39.7003C14.8115 41.3666 14.6263 42.0014 14.0974 42.1336C13.5155 42.2791 13.0923 42.0807 12.8807 41.5914C12.6559 41.0492 12.6294 38.4307 12.8278 37.8621C13.0791 37.2141 13.6874 36.976 14.2825 37.2934ZM54.4853 37.2934C54.8688 37.4918 55.0143 38.153 55.0143 39.7003C55.0143 41.3666 54.8292 42.0014 54.3002 42.1336C53.7183 42.2791 53.2951 42.0807 53.0835 41.5914C52.8587 41.0492 52.8322 38.4307 53.0306 37.8621C53.2819 37.2141 53.8902 36.976 54.4853 37.2934ZM23.8042 39.4093C24.1877 39.6077 24.3332 40.2689 24.3332 41.8162C24.3332 43.4825 24.1481 44.1173 23.6191 44.2496C23.0372 44.395 22.614 44.1967 22.4024 43.7073C22.1776 43.1651 22.1511 40.5467 22.3495 39.978C22.6008 39.33 23.2091 39.092 23.8042 39.4093ZM44.9636 39.4093C45.3471 39.6077 45.4926 40.2689 45.4926 41.8162C45.4926 43.4825 45.3074 44.1173 44.7784 44.2496C44.1966 44.395 43.7734 44.1967 43.5618 43.7073C43.337 43.1651 43.3105 40.5467 43.5089 39.978C43.7602 39.33 44.3685 39.092 44.9636 39.4093ZM34.3839 39.9383C34.7674 40.1367 34.9129 40.7979 34.9129 42.3452C34.9129 44.0115 34.7277 44.6463 34.1988 44.7785C33.6169 44.924 33.1937 44.7256 32.9821 44.2363C32.7573 43.6941 32.7308 41.0756 32.9292 40.507C33.1805 39.859 33.7888 39.6209 34.3839 39.9383Z" fill="#005BDD"/>
<path d="M3.17383 46.5242V50.3461L3.55734 50.8751C5.17074 53.0968 12.1269 55.3582 20.551 56.4029C22.4685 56.6278 26.4095 56.998 27.0839 56.998H27.5071V55.0144C27.5071 52.7 27.6261 52.224 28.3006 51.9859C28.9883 51.7479 38.8803 51.7876 39.4622 52.0256C40.0969 52.2901 40.2027 52.7397 40.2027 55.0276V56.998H40.6391C41.3929 56.998 45.6248 56.6013 47.6746 56.3368C55.8607 55.2921 62.5655 53.0571 64.1525 50.8751L64.536 50.3461V46.5242C64.536 44.4347 64.5096 42.7155 64.4831 42.7155C64.4567 42.7155 64.1128 42.9271 63.7293 43.1916C61.2563 44.8843 56.0855 46.5109 50.346 47.4102C42.4377 48.6401 31.977 48.8914 23.143 48.0582C14.4412 47.2383 7.4057 45.453 3.99375 43.1783C3.59702 42.9271 3.25318 42.7155 3.22673 42.7155C3.20028 42.7155 3.17383 44.4347 3.17383 46.5242Z" fill="#2CD8B3"/>
</svg>
