<svg width="59" height="70" viewBox="0 0 59 70" fill="none" xmlns="http://www.w3.org/2000/svg">
<g clip-path="url(#clip0_2239_422)">
<path d="M0.0136719 52.3753V50.7223C0.0136719 35.7799 0.0136719 20.8396 0.0136719 5.90133C0.0136719 1.87669 1.8885 0.0112305 5.95064 0.0112305C16.206 0.0112305 26.4613 0.0112305 36.7166 0.0112305C40.56 0.0112305 42.4942 1.92981 42.5036 5.73572C42.5036 7.6543 42.5036 9.57287 42.5036 11.1509C40.835 11.7539 39.307 12.1664 37.9103 12.8413C33.4638 14.9818 29.0736 17.2378 24.6458 19.4189C23.0835 20.1844 21.9461 21.2437 21.9211 23.0748C21.893 24.9777 22.9897 26.2808 24.6896 26.8245C27.3018 27.6525 28.2986 29.2524 27.7956 31.9146C27.6643 32.6208 27.8393 33.377 27.7643 34.1019C27.3737 37.8516 29.3267 40.2576 32.5576 41.4575C35.1949 42.4418 38.0696 42.8012 40.8475 43.4074C41.3714 43.4779 41.9001 43.5071 42.4286 43.4948V52.3941L0.0136719 52.3753ZM21.1024 6.86686C21.9367 6.86686 22.8054 7.01685 23.6022 6.81687C24.1271 6.68251 24.5396 6.06069 24.9833 5.6576C24.549 5.22951 24.1459 4.48271 23.674 4.43896C22.0674 4.28585 20.4499 4.28585 18.8432 4.43896C18.3745 4.48583 17.9777 5.23889 17.5465 5.6701C18.0058 6.07006 18.4089 6.66063 18.9432 6.82C19.6088 7.01998 20.3837 6.86999 21.1024 6.86686Z" fill="#005BDD"/>
<path d="M4.68906 28.6661C3.42036 29.3954 3.76001 31.4233 5.17856 31.6131L5.54818 31.6631V32.3723C5.55817 33.2215 5.77795 33.711 6.37733 34.2604C7.41627 35.1995 8.97468 35.1495 9.97365 34.1605C10.4731 33.651 10.6929 33.1116 10.6929 32.3124V31.6431H10.9826C11.3023 31.6431 11.8318 31.3134 12.1215 30.9338C12.4212 30.5143 12.4511 29.8749 12.1714 29.3554C11.8717 28.776 11.5221 28.5263 10.9227 28.4763C10.5531 28.4364 10.3233 28.4763 10.0236 28.6362C9.62401 28.836 9.19445 29.3754 9.19445 29.6751C9.19445 29.805 9.08456 29.825 8.45521 29.775C8.03564 29.745 7.5861 29.765 7.41627 29.825C7.12657 29.9249 7.10659 29.9149 7.04665 29.6351C6.83686 28.6661 5.56816 28.1467 4.68906 28.6661ZM5.83788 29.2855C6.48722 29.5552 6.49721 30.5043 5.85786 30.8139C4.87887 31.2735 4.10965 29.9049 5.02871 29.3454C5.40832 29.1057 5.41831 29.1057 5.83788 29.2855ZM11.3722 29.4653C11.622 29.7051 11.6719 30.2845 11.4621 30.5542C10.7928 31.4333 9.41423 30.4643 10.0536 29.5652C10.3732 29.1057 10.9327 29.0657 11.3722 29.4653ZM8.62503 30.5542C8.83482 30.6042 9.1445 30.784 9.32432 30.9438L9.64399 31.2335L8.17549 31.2435C7.32636 31.2435 6.69701 31.2035 6.69701 31.1536C6.69701 31.0237 7.17652 30.6941 7.54614 30.5642C7.93574 30.4243 8.1655 30.4243 8.62503 30.5542ZM9.97365 32.2425C10.0636 32.8419 9.57406 33.691 8.96469 34.0107C8.78487 34.1006 8.41525 34.1705 8.13553 34.1705C7.10659 34.1705 6.29741 33.3913 6.29741 32.4023V31.9428L8.12554 31.9628L9.94368 31.9927L9.97365 32.2425Z" fill="white"/>
<path d="M18.3053 30.0046C17.3762 30.4641 16.8867 31.2733 16.8867 32.3422C16.8867 33.7707 17.8757 34.8097 19.3142 34.9196C20.3232 34.9995 21.3222 34.4301 21.8117 33.501C22.1114 32.9216 22.1114 31.7628 21.8117 31.1934C21.1224 29.9047 19.564 29.3752 18.3053 30.0046ZM20.3332 30.7039C21.1923 31.1135 21.5519 32.3822 21.0624 33.2613C20.473 34.3002 18.9246 34.49 18.1155 33.6209C17.596 33.0615 17.4561 32.2723 17.7758 31.593C18.2453 30.584 19.3042 30.2144 20.3332 30.7039Z" fill="white"/>
<path d="M1.12322 32.3625C0.833513 32.6522 1.16318 34.1706 1.70262 35.0797C2.36195 36.1786 3.62066 37.0876 4.84941 37.3374C5.1491 37.3973 5.39884 37.4772 5.39884 37.5172C5.39884 37.5572 5.17907 38.8658 4.89935 40.4242C4.53972 42.5121 4.43982 43.3013 4.51974 43.4012C4.58967 43.4911 4.87937 43.531 5.35888 43.531H6.09813V43.8008C6.09813 43.9606 6.00822 45.0695 5.89833 46.2782C5.78844 47.487 5.69854 48.5659 5.69854 48.6758C5.69854 48.8356 5.54869 48.9255 4.97927 49.1253C4.32994 49.3451 4.25002 49.405 4.22005 49.6548C4.20007 49.8346 4.24003 49.9445 4.35991 49.9944C4.5597 50.0644 6.1281 49.5749 6.28793 49.395C6.33788 49.3251 6.50771 47.8866 6.65756 46.1983C6.87733 43.7209 6.89731 43.1015 6.79741 42.9816C6.7075 42.8717 6.47774 42.8318 5.98824 42.8318C5.39884 42.8318 5.29894 42.8018 5.29894 42.6519C5.29894 42.562 5.52871 41.2034 5.79843 39.635C6.21801 37.1975 6.32789 36.758 6.50771 36.6081C6.68752 36.4683 6.93727 36.4383 8.10607 36.4383C10.0341 36.4383 9.86427 36.1985 10.4437 39.635C10.7034 41.1435 10.9332 42.4821 10.9632 42.602C11.0131 42.8218 11.0131 42.8218 9.38477 42.8517L7.74644 42.8817V43.1814V43.4811L8.54562 43.531L9.34481 43.581L9.57457 46.3282C9.70444 47.8366 9.8443 49.1653 9.89424 49.2752C9.94419 49.425 10.2239 49.5649 10.8832 49.7747C11.7424 50.0444 11.8023 50.0544 11.9721 49.8945C12.2219 49.6348 12.0221 49.415 11.2828 49.1453C10.9332 49.0154 10.6335 48.8956 10.6135 48.8756C10.5436 48.8156 10.114 43.6909 10.164 43.601C10.1839 43.561 10.5436 43.531 10.9532 43.531C11.5426 43.531 11.7124 43.5011 11.7623 43.3712C11.7923 43.2813 11.6125 41.9926 11.3528 40.4942C11.103 39.0057 10.8932 37.727 10.8932 37.6471C10.8932 37.3574 12.042 37.757 12.7713 38.3164C13.2908 38.706 13.3108 38.8259 13.021 39.5351C12.6514 40.4542 12.6015 41.583 12.8712 42.5021C13.4306 44.3302 14.1499 44.3302 14.7093 42.5021C14.979 41.583 14.9291 40.4542 14.5595 39.5351C14.2698 38.8259 14.2897 38.706 14.8092 38.3164C15.3986 37.8668 16.3976 37.4573 16.7372 37.5272C16.7672 37.5372 16.7972 38.3364 16.8172 39.3154C16.8371 40.9037 16.8671 41.1335 17.0669 41.583C17.1968 41.8528 17.3566 42.1425 17.4365 42.2324C17.5564 42.3622 17.5364 42.8218 17.2967 45.6089C17.1368 47.3871 16.987 48.8556 16.967 48.8756C16.947 48.8956 16.6473 49.0154 16.2977 49.1453C15.5584 49.415 15.3587 49.6348 15.6084 49.8945C15.7782 50.0544 15.8382 50.0444 16.6973 49.7747C17.3566 49.5649 17.6363 49.425 17.6863 49.2752C17.7362 49.1653 17.8661 47.8866 17.986 46.4281C18.0959 44.9696 18.2157 43.601 18.2457 43.3712L18.3056 42.9716L18.895 43.1115C19.4245 43.2413 19.5544 43.2413 20.0638 43.1015C20.3735 43.0116 20.6333 42.9516 20.6432 42.9616C20.6432 42.9716 20.7731 44.4002 20.923 46.1184C21.0728 47.8466 21.2426 49.3251 21.2926 49.395C21.4524 49.5749 23.0208 50.0644 23.2206 49.9944C23.3405 49.9445 23.3804 49.8346 23.3605 49.6548C23.3305 49.405 23.2506 49.3451 22.6312 49.1353C22.2516 49.0054 21.9219 48.8856 21.9219 48.8856C21.912 48.8756 21.7821 47.447 21.6322 45.6988L21.3525 42.5221L21.7221 41.8228L22.0818 41.1135V39.2854V37.4672L22.6712 37.3474C24.0697 37.0677 25.4383 36.0087 26.0877 34.7001C26.3874 34.0707 26.4273 33.9109 26.4273 33.1517C26.4273 32.3425 26.4173 32.2925 26.2076 32.2626C25.9278 32.2226 25.818 32.4324 25.748 33.1816C25.5882 34.78 23.9898 36.4383 22.4414 36.6081C22.0718 36.6481 22.0118 36.6281 21.852 36.3484C21.5223 35.779 21.2726 35.719 19.3346 35.759L17.5964 35.789L17.2967 36.0787C17.1268 36.2385 16.967 36.4483 16.937 36.5382C16.9071 36.6381 16.6773 36.738 16.3077 36.8179C15.5185 36.9877 14.7792 37.3474 14.2498 37.8469L13.7903 38.2664L13.3307 37.8469C12.8013 37.3474 12.062 36.9877 11.2728 36.8179C10.9032 36.738 10.6734 36.6381 10.6435 36.5382C10.6135 36.4483 10.4537 36.2385 10.2838 36.0787L9.98415 35.789L8.24593 35.759C6.30791 35.719 6.05817 35.779 5.72851 36.3484C5.55868 36.6281 5.51872 36.6481 5.11913 36.6081C4.44981 36.5382 3.50078 36.0087 2.91139 35.3894C2.29202 34.73 1.91241 33.9508 1.83249 33.1716C1.80252 32.852 1.73259 32.5123 1.68264 32.4124C1.58275 32.2126 1.29304 32.1926 1.12322 32.3625ZM21.0728 36.6081C21.2626 36.778 21.2826 36.8878 21.2926 38.4862L21.3026 40.1845L19.4445 40.2144L17.5864 40.2344V38.5661C17.5864 36.3384 17.5065 36.4383 19.4445 36.4383C20.6432 36.4383 20.893 36.4683 21.0728 36.6081ZM14 40.2044C14.2198 41.0036 14.08 42.7319 13.7903 42.7319C13.6504 42.7319 13.4706 41.9427 13.4606 41.2734C13.4506 40.664 13.6504 39.7349 13.7903 39.7349C13.8302 39.7349 13.9201 39.9447 14 40.2044ZM21.2426 41.0935C21.2127 41.1834 21.1827 41.2833 21.1827 41.3333C21.1827 41.5231 20.6133 42.0725 20.2337 42.2424C19.4245 42.612 18.4155 42.3523 17.936 41.653C17.4465 40.9337 17.4565 40.9337 19.4944 40.9337C21.1028 40.9337 21.2926 40.9537 21.2426 41.0935Z" fill="white"/>
<path d="M7.83599 37.377C7.7261 37.6567 7.84598 37.8865 8.08573 37.8865C8.4054 37.8865 8.57523 37.6068 8.4054 37.397C8.23558 37.1972 7.90592 37.1872 7.83599 37.377Z" fill="white"/>
<path d="M7.83599 38.8758C7.7261 39.1555 7.84598 39.3853 8.08573 39.3853C8.4054 39.3853 8.57523 39.1055 8.4054 38.8958C8.23558 38.696 7.90592 38.686 7.83599 38.8758Z" fill="white"/>
<path d="M0.0283453 55.0608H42.4527C42.4527 58.6948 42.6058 62.2758 42.3996 65.8348C42.2652 68.1815 40.0654 69.9626 37.65 69.972C26.7197 70.0053 15.7905 70.0053 4.8623 69.972C3.61871 69.9729 2.4231 69.4921 1.52645 68.6304C0.629802 67.7687 0.101831 66.5931 0.0533484 65.3505C-0.0497673 61.9727 0.0283453 58.5948 0.0283453 55.0608ZM21.1827 66.2348C22.1201 66.2348 23.0575 66.291 23.995 66.2348C24.9364 66.1617 25.8165 65.7394 26.4628 65.051C27.1091 64.3625 27.4749 63.4574 27.4884 62.5132C27.4845 61.5674 27.1233 60.6581 26.4771 59.9673C25.831 59.2766 24.9478 58.8556 24.0043 58.7886C22.188 58.6964 20.3681 58.6964 18.5517 58.7886C17.6071 58.8509 16.7209 59.2682 16.0712 59.9567C15.4215 60.6453 15.0563 61.5541 15.0489 62.5007C15.0568 63.4489 15.4195 64.3597 16.0655 65.0537C16.7115 65.7477 17.594 66.1747 18.5392 66.2504C19.411 66.291 20.2984 66.2348 21.1827 66.2348Z" fill="#005BDD"/>
<path d="M58.6599 23.679C58.1443 23.9196 57.6256 24.154 57.1194 24.4071C52.1011 26.9069 47.0953 29.4379 42.0551 31.9064C41.7769 32.0112 41.4807 32.0599 41.1836 32.0497C40.8865 32.0396 40.5944 31.9707 40.324 31.8471C35.3765 29.4306 30.454 26.9683 25.5566 24.4602C25.0753 24.2165 24.4941 23.5915 24.4941 23.1447C24.4941 22.6979 25.0785 22.0729 25.5597 21.8261C30.4592 19.3263 35.3817 16.8651 40.3271 14.4424C40.6242 14.3186 40.9428 14.2549 41.2645 14.2549C41.5863 14.2549 41.9049 14.3186 42.202 14.4424C47.1515 16.8484 52.0667 19.3232 56.9756 21.8136C57.4756 22.0667 57.8505 22.5698 58.2818 22.9541L58.6599 23.679Z" fill="#2CD8B3"/>
<path d="M52.2243 29.6785C52.2243 31.8471 52.4243 33.7407 52.1462 35.5717C51.9104 36.6673 51.2923 37.6432 50.4026 38.3246C45.853 41.7149 36.7163 41.6431 32.0511 38.3246C30.8762 37.4872 30.195 36.4342 30.2669 34.9093C30.3419 33.2532 30.2669 31.5877 30.2669 29.666C32.9885 31.0159 35.6008 32.1658 38.0474 33.5719C40.2754 34.8656 42.2502 34.8531 44.4687 33.5719C46.8998 32.1752 49.4683 31.0378 52.2243 29.6785Z" fill="#2CD8B3"/>
<path d="M21.2583 63.7319C20.4333 63.7319 19.574 63.8694 18.7929 63.6819C18.3148 63.5663 17.9586 62.9539 17.543 62.5664C17.9586 62.1289 18.3429 61.3571 18.7929 61.3165C20.4385 61.1728 22.0936 61.1728 23.7393 61.3165C24.1768 61.354 24.5642 62.0414 24.9736 62.4289C24.5611 62.8664 24.2143 63.5444 23.7237 63.6788C22.955 63.8913 22.0863 63.735 21.2583 63.7319Z" fill="#005BDD"/>
</g>
<defs>
<clipPath id="clip0_2239_422">
<rect width="58.6604" height="70" fill="white"/>
</clipPath>
</defs>
</svg>
