<svg width="68" height="68" viewBox="0 0 68 68" fill="none" xmlns="http://www.w3.org/2000/svg">
<path d="M30.2586 4.49631C27.7856 5.01207 25.5639 5.95102 23.4083 7.37928C21.8478 8.4108 19.7054 10.5929 18.6077 12.2327C17.6688 13.6477 16.624 15.7505 16.7695 15.8827C16.8224 15.9356 18.5548 16.5175 20.6311 17.1919C23.4347 18.1044 24.4662 18.3822 24.6778 18.3028C24.8365 18.2367 26.7276 16.901 28.87 15.3405L32.7845 12.4972L32.7977 8.3579V4.23182L32.1101 4.24505C31.7265 4.24505 30.8934 4.36407 30.2586 4.49631Z" fill="#005BDD"/>
<path d="M34.9141 8.3579L34.9273 12.4972L38.9476 15.4066C41.1561 17.0068 43.0604 18.3293 43.1662 18.3557C43.3646 18.3954 50.7704 16.0546 50.9423 15.8959C50.9952 15.843 50.7968 15.3008 50.5059 14.6793C48.7735 11.0028 45.6789 7.85536 41.976 6.03037C40.032 5.0782 37.0036 4.23182 35.4959 4.23182H34.9141V8.3579Z" fill="#005BDD"/>
<path d="M30.0209 16.9274C27.9446 18.435 26.2386 19.7575 26.2254 19.8633C26.199 19.9558 26.8337 21.9924 27.614 24.3993L29.0422 28.7634H33.856H38.6698L40.098 24.3993C40.8783 21.9924 41.5263 19.9691 41.5263 19.8765C41.5263 19.7575 33.9486 14.1238 33.8296 14.1635C33.8031 14.1635 32.0971 15.4066 30.0209 16.9274Z" fill="#2CD8B3"/>
<path d="M15.8832 18.5407C15.4071 20.8285 15.3277 23.5793 15.6848 25.6687C16.1344 28.3269 17.2717 31.0644 18.8587 33.2729C19.7447 34.516 21.9797 36.8171 22.2178 36.7377C22.3897 36.6848 27.2431 30.0196 27.2431 29.8345C27.2431 29.5436 24.3072 20.6831 24.1618 20.5376C24.0295 20.4186 16.3592 17.853 16.0948 17.853C16.0551 17.853 15.9625 18.1704 15.8832 18.5407Z" fill="#005BDD"/>
<path d="M47.5175 19.149C45.3883 19.8631 43.5898 20.4847 43.5236 20.564C43.4046 20.6963 40.4688 29.5965 40.4688 29.8345C40.4688 30.0196 45.3222 36.6848 45.4941 36.7377C45.5734 36.7642 46.1686 36.2749 46.8166 35.6269C51.3129 31.2363 53.1644 24.9414 51.8287 18.5407C51.7493 18.1704 51.6171 17.853 51.5377 17.8662C51.4452 17.8795 49.6334 18.4481 47.5175 19.149Z" fill="#005BDD"/>
<path d="M7.34042 24.7828C6.81144 25.0076 6.25601 25.6689 6.08409 26.2904C5.97829 26.621 5.95184 29.1866 5.97829 34.45L6.01796 42.1203L6.3618 42.9138C6.58662 43.4692 8.1868 45.7042 11.4665 50.0815C14.0982 53.5728 16.3464 56.6277 16.4654 56.8525C16.9415 57.7782 17.206 59.2726 17.2853 61.3885L17.3647 63.478H23.6199H29.8884V57.0244C29.8884 49.8567 29.8619 49.6054 29.0288 48.0185C28.3808 46.8018 28.0237 46.4183 23.1438 41.988C18.1317 37.4123 18.0391 37.3594 16.1348 37.3594C15.0371 37.3594 14.7859 37.3991 14.1511 37.7165C13.7544 37.9149 13.2254 38.2587 13.0006 38.4703C12.1674 39.2373 12.0748 39.1051 17.2589 44.3023C22.2842 49.3541 22.2578 49.3012 21.6759 50.0418C21.4908 50.2799 21.2792 50.3857 20.9882 50.3857C20.6179 50.3857 20.0625 49.8699 15.8967 45.7174C13.3312 43.165 11.0962 40.8243 10.9375 40.5333C10.6466 40.0176 10.6466 39.8853 10.5805 33.0614C10.5143 26.4094 10.5011 26.1053 10.2498 25.6689C9.73408 24.7828 8.31905 24.3596 7.34042 24.7828Z" fill="#005BDD"/>
<path d="M58.3072 24.9018C57.9898 25.0738 57.6063 25.4176 57.4608 25.6689C57.2095 26.1053 57.1963 26.4095 57.1302 33.0614C57.0641 39.8853 57.0641 40.0176 56.7731 40.5333C56.6144 40.8243 54.3795 43.165 51.8139 45.7174C46.7489 50.7824 46.7753 50.756 46.0876 50.055C45.3867 49.3674 45.3735 49.407 50.4518 44.3023C55.6358 39.1051 55.5432 39.2373 54.7233 38.4571C54.4853 38.2455 53.9563 37.9016 53.5596 37.7033C52.9248 37.4123 52.6603 37.3594 51.5759 37.3594C49.6715 37.3594 49.5789 37.4123 44.5668 41.988C39.7002 46.4183 39.3299 46.7886 38.6819 48.0185C37.8487 49.6054 37.8223 49.8567 37.8223 57.0244V63.478H44.0907H50.346L50.4253 61.3885C50.5047 59.1668 50.8088 57.6328 51.3246 56.7467C51.4701 56.4954 53.7315 53.4538 56.3235 49.9889C59.7222 45.4793 61.1505 43.4824 61.3753 42.9138L61.6927 42.1203L61.7324 34.45C61.7588 29.1866 61.7324 26.621 61.6266 26.2904C61.2034 24.8357 59.6693 24.1877 58.3072 24.9018Z" fill="#005BDD"/>
<path d="M26.5164 34.3442C25.1543 36.2221 24.017 37.8223 23.9773 37.9017C23.8318 38.2984 27.1248 39.8457 29.3068 40.4011C32.2559 41.1417 35.4563 41.1417 38.4054 40.4011C40.6007 39.8325 43.8804 38.2984 43.7349 37.9017C43.6952 37.8091 42.5579 36.2089 41.209 34.3442L38.736 30.9455H33.8561H28.9762L26.5164 34.3442Z" fill="#005BDD"/>
</svg>
