<svg width="85" height="68" viewBox="0 0 85 68" fill="none" xmlns="http://www.w3.org/2000/svg">
<path d="M39.5736 6.30662C39.4532 7.90422 39.3722 9.50646 39.2031 11.0971C39.0225 12.8105 38.7632 14.5146 38.5317 16.2233C37.7699 21.8265 38.6498 27.1982 40.7637 32.4124C42.8776 37.6266 45.1096 42.8153 45.8945 48.4602C46.3199 51.4822 46.2495 54.5533 45.6862 57.5527C45.6074 57.9787 45.5704 61.9337 45.5125 62.3643L45.8621 58.9488C46.5729 57.2632 47.3417 55.6008 47.9853 53.8921C49.7658 49.1664 50.5137 44.3041 49.0596 39.3724C48.2192 36.5384 46.9434 33.8317 45.839 31.0764C44.41 27.5307 43.4322 23.8194 42.9286 20.0298C42.8747 19.4909 42.8747 18.948 42.9286 18.409C43.0327 16.7883 43.2365 15.1861 43.2689 13.5722C43.3129 11.3981 44.2576 9.57129 45.2902 7.7653C45.3875 7.59628 45.7139 7.38095 45.8158 7.42957C46.0288 7.56102 46.1918 7.75986 46.2789 7.99452C46.779 9.20778 47.4227 10.3932 47.6866 11.6597C47.9598 12.961 47.763 14.3548 47.9182 15.6885C48.5711 21.0138 49.8608 26.1864 52.7967 30.7384C54.6322 33.6349 56.6898 36.3846 58.9509 38.9626C64.5703 45.2557 72.8431 44.9825 78.224 38.4856L79.3192 37.1589C73.9429 53.8087 57.8303 64.3552 40.8169 63.399C22.2106 62.3524 9.64282 48.8654 6.2207 36.8C7.62382 38.0457 8.94589 39.2937 10.3467 40.4421C13.0395 42.6556 16.0981 43.9916 19.629 44.1698C26.075 44.4963 33.1855 40.2013 33.5675 32.0419C33.7805 27.4969 33.7111 22.9425 33.8778 18.3952C33.9479 16.3259 34.1731 14.2649 34.5516 12.2293C34.8248 10.7892 35.4916 9.42542 35.9732 8.02462C36.2487 7.23045 36.5103 6.42933 36.7465 5.72315C36.7465 5.72315 36.9919 4.66039 38.5548 4.86183C39.1892 4.94287 39.6315 5.72546 39.5736 6.30662Z" fill="#005BDD"/>
<path d="M78.2719 24.1882C77.8088 24.6744 77.5148 25.1144 77.1142 25.4038C76.0723 26.1123 75.7898 27.0361 75.8084 28.2725C75.8361 30.0252 75.8222 31.7872 74.9679 33.4474C73.2267 36.8278 69.712 38.9325 66.1324 38.606C62.8423 38.3073 59.5406 35.4478 58.5218 32.0165C57.503 28.5851 59.0914 23.6094 61.7818 21.25C63.0128 20.1856 64.573 19.5781 66.1996 19.5297C68.2487 19.4209 69.9204 19.5667 71.6013 20.4998C73.0809 21.3218 74.4307 22.3753 75.8894 23.2389C76.547 23.6279 77.3365 23.827 78.2719 24.1882Z" fill="#2CD8B3"/>
<path d="M5.80469 25.5473C7.19391 26.4109 8.27982 27.2722 9.50928 27.7793C10.6461 28.2424 11.9543 28.6036 13.1629 28.5457C15.3162 28.4415 15.8951 27.0685 14.8531 25.1722C13.5936 22.8769 12.3587 20.5677 11.1486 18.2446C10.8406 17.6519 10.6855 16.9804 10.4539 16.3437L10.785 16.0913C11.5769 16.9596 12.3711 17.8232 13.1583 18.6938C13.3644 18.9253 13.5589 19.1569 13.7418 19.4115C15.9252 22.3405 18.9328 23.7644 22.4684 24.3317C25.2468 24.7809 27.6224 25.9525 28.8611 28.7054C30.0998 31.4584 29.8892 34.1419 28.0345 36.5545C26.1383 39.0204 23.5497 39.8099 20.5235 39.3168C17.2333 38.7819 14.7212 36.8787 12.4637 34.6166C9.80597 31.9409 7.56167 28.8843 5.80469 25.5473Z" fill="#2CD8B3"/>
</svg>
